<?xml version="1.0" encoding="UTF-8"?>
<svg width="95px" height="130px" viewBox="0 0 95 130" version="1.1" xmlns="http://www.w3.org/2000/svg" xmlns:xlink="http://www.w3.org/1999/xlink">
    <!-- Generator: Sketch 44.1 (41455) - http://www.bohemiancoding.com/sketch -->
    <title>IF_logo_symbol_blue</title>
    <desc>Created with Sketch.</desc>
    <defs></defs>
    <g id="Page-1" stroke="none" stroke-width="1" fill="none" fill-rule="evenodd">
        <g id="Desktop-HD" transform="translate(-93.000000, -105.000000)" fill="#0B3668">
            <g id="logo/logo-if-full" transform="translate(93.000000, 105.000000)">
                <path d="M0,124.952562 L0,0.32446281 L8.59016393,0.32446281 L8.59016393,120.655041 L85.9016393,120.655041 L85.9016393,43.2996694 L94.4918033,43.2996694 L94.4918033,129.250083 L90.1967213,129.250083 L0,129.250083 L0,124.952562 Z M30.0655738,77.6798347 L42.9508197,77.6798347 L42.9508197,0.32446281 L51.5409836,0.32446281 L51.5409836,77.6798347 L73.0163934,77.6798347 L73.0163934,86.274876 L25.7704918,86.274876 L21.4754098,86.274876 L21.4754098,0.32446281 L30.0655738,0.32446281 L30.0655738,77.6798347 Z M21.4754098,107.762479 L21.4754098,99.167438 L73.0163934,99.167438 L73.0163934,107.762479 L21.4754098,107.762479 Z M64.4262295,64.7872727 L64.4262295,0.32392562 L73.0163934,0.32392562 L73.0163934,64.7872727 L64.4262295,64.7872727 Z" id="IF_logo_symbol_blue"></path>
            </g>
        </g>
    </g>
</svg>