<?xml version="1.0" encoding="UTF-8"?>
<svg width="524px" height="130px" viewBox="0 0 524 130" version="1.1" xmlns="http://www.w3.org/2000/svg" xmlns:xlink="http://www.w3.org/1999/xlink">
    <!-- Generator: Sketch 44.1 (41455) - http://www.bohemiancoding.com/sketch -->
    <title>logo/logo-if-full</title>
    <desc>Created with Sketch.</desc>
    <defs></defs>
    <g id="Page-1" stroke="none" stroke-width="1" fill="none" fill-rule="evenodd">
        <g id="Desktop-HD" transform="translate(-93.000000, -105.000000)" fill="#0B3668">
            <g id="logo/logo-if-full" transform="translate(93.000000, 105.000000)">
                <path d="M0,124.952562 L0,0.32446281 L8.59016393,0.32446281 L8.59016393,120.655041 L85.9016393,120.655041 L85.9016393,43.2996694 L94.4918033,43.2996694 L94.4918033,129.250083 L90.1967213,129.250083 L0,129.250083 L0,124.952562 Z M30.0655738,77.6798347 L42.9508197,77.6798347 L42.9508197,0.32446281 L51.5409836,0.32446281 L51.5409836,77.6798347 L73.0163934,77.6798347 L73.0163934,86.274876 L25.7704918,86.274876 L21.4754098,86.274876 L21.4754098,0.32446281 L30.0655738,0.32446281 L30.0655738,77.6798347 Z M21.4754098,107.762479 L21.4754098,99.167438 L73.0163934,99.167438 L73.0163934,107.762479 L21.4754098,107.762479 Z M64.4262295,64.7872727 L64.4262295,0.32392562 L73.0163934,0.32392562 L73.0163934,64.7872727 L64.4262295,64.7872727 Z" id="logo-symbol"></path>
                <path d="M135.295082,124.952562 L135.295082,107.762479 L128.852459,107.762479 L128.852459,103.464959 L146.032787,103.464959 L146.032787,107.762479 L139.590164,107.762479 L139.590164,124.952562 L146.032787,124.952562 L146.032787,129.250083 L128.852459,129.250083 L128.852459,124.952562 L135.295082,124.952562 Z M210.459016,124.952562 L210.459016,107.762479 L204.016393,107.762479 L204.016393,103.464959 L221.196721,103.464959 L221.196721,107.762479 L214.754098,107.762479 L214.754098,124.952562 L221.196721,124.952562 L221.196721,129.250083 L204.016393,129.250083 L204.016393,124.952562 L210.459016,124.952562 Z M262,124.952562 L262,107.762479 L255.557377,107.762479 L255.557377,103.464959 L272.737705,103.464959 L272.737705,107.762479 L266.295082,107.762479 L266.295082,124.952562 L272.737705,124.952562 L272.737705,129.250083 L255.557377,129.250083 L255.557377,124.952562 L262,124.952562 Z M287.770492,107.762479 L287.770492,129.250083 L292.065574,129.250083 L292.065574,107.762479 L298.508197,107.762479 L298.508197,103.464959 L281.327869,103.464959 L281.327869,107.762479 L287.770492,107.762479 Z M309.245902,103.464959 L307.098361,103.464959 L307.098361,129.250083 L309.245902,129.250083 L324.278689,129.250083 L324.278689,124.952562 L311.393443,124.952562 L311.393443,118.506281 L319.983607,118.506281 L319.983607,114.20876 L311.393443,114.20876 L311.393443,107.762479 L324.278689,107.762479 L324.278689,103.464959 L309.245902,103.464959 Z M455.587934,103.520826 L453.440393,103.520826 L453.440393,129.30595 L455.587934,129.30595 L470.620721,129.30595 L470.620721,125.00843 L457.735475,125.00843 L457.735475,118.562149 L466.325639,118.562149 L466.325639,114.264628 L457.735475,114.264628 L457.735475,107.818347 L470.620721,107.818347 L470.620721,103.520826 L455.587934,103.520826 Z M156.770492,103.464959 L158.918033,103.464959 L167.508197,120.655041 L167.508197,103.464959 L171.803279,103.464959 L171.803279,129.250083 L169.655738,129.250083 L167.508197,129.250083 L158.918033,112.06 L158.918033,129.250083 L154.622951,129.250083 L154.622951,103.464959 L156.770492,103.464959 Z M231.934426,103.464959 L234.081967,103.464959 L242.672131,120.655041 L242.672131,103.464959 L246.967213,103.464959 L246.967213,129.250083 L244.819672,129.250083 L242.672131,129.250083 L234.081967,112.06 L234.081967,129.250083 L229.786885,129.250083 L229.786885,103.464959 L231.934426,103.464959 Z M182.540984,103.464959 L197.57377,103.464959 L197.57377,107.762479 L184.688525,107.762479 L184.688525,129.250083 L180.393443,129.250083 L180.393443,103.464959 L182.540984,103.464959 Z M382.571541,125.00843 L382.571541,107.818347 L376.128918,107.818347 L376.128918,103.520826 L393.309246,103.520826 L393.309246,107.818347 L386.866623,107.818347 L386.866623,125.00843 L393.309246,125.00843 L393.309246,129.30595 L376.128918,129.30595 L376.128918,125.00843 L382.571541,125.00843 Z M414.784656,129.305736 L406.194492,112.115653 L406.194492,129.30595 L401.89941,129.30595 L401.89941,103.520826 L404.047005,103.520826 L406.194599,103.520826 L414.784656,120.710694 L414.784656,103.520826 L419.079738,103.520826 L419.079738,129.305736 L416.93225,129.30595 L414.784656,129.30595 Z M354.344262,103.464959 L369.377049,103.464959 L369.377049,107.762479 L356.491803,107.762479 L356.491803,129.250083 L352.196721,129.250083 L352.196721,103.464959 L354.344262,103.464959 Z M356.491803,116.357521 L356.491803,112.06 L365.081967,112.06 L365.081967,116.357521 L356.491803,116.357521 Z M184.688525,116.357521 L184.688525,112.06 L193.278689,112.06 L193.278689,116.357521 L184.688525,116.357521 Z M498.001976,129.305789 L492.096239,129.305789 L486.727386,119.099178 L483.506075,119.099178 L483.506075,129.305789 L479.210993,129.305789 L479.210993,103.520665 L487.781292,103.168269 C495.58814,103.168269 497.227251,107.384136 497.227251,110.920996 C497.227251,114.574963 495.409894,117.201285 492.081743,118.412649 L498.001976,129.305789 Z M484.020411,114.910169 L487.328161,114.910169 C492.484943,114.910169 492.484943,111.907814 492.484943,110.920996 C492.484943,109.045128 491.860546,107.309467 487.328161,107.309467 L484.020411,107.309467 L484.020411,114.910169 Z M438.548217,130 C431.657295,130 427.027196,124.517438 427.027196,116.357521 C427.027196,108.197603 431.763061,102.715041 438.812364,102.715041 C441.672889,102.715041 444.167795,103.815744 446.226213,105.986529 L446.734643,106.522645 L443.886467,109.736653 L443.282471,109.094174 C442.346143,108.099835 441.083389,107.082934 438.812364,107.082934 C434.561307,107.082934 431.920368,110.607438 431.920368,116.281777 C431.920368,122.224174 434.405073,125.632107 438.7372,125.632107 C440.100352,125.632107 441.402836,125.24157 442.23286,124.597479 L442.16575,120.710909 L436.260012,120.710909 L436.260012,116.173264 L446.460832,116.413388 L446.460832,126.62 C444.559721,128.568388 441.639065,130 438.548217,130 Z M514.131083,129.30595 C510.485632,129.30595 507.094128,127.997355 504.581505,125.622438 L504.052673,125.122314 L506.993193,121.89595 L507.606853,122.475579 C509.451054,124.218223 511.821402,125.178182 514.281948,125.178182 C517.114017,125.178182 518.872853,124.047934 518.872853,122.229008 C518.872853,120.384835 517.654124,119.805207 515.119489,118.769504 L511.356997,117.218636 C507.489812,115.778967 505.515148,113.512025 505.515148,110.490868 C505.515148,106.452273 509.265292,103.520826 514.432812,103.520826 C517.546747,103.520826 520.532902,104.655372 522.624607,106.63438 L523.138943,107.120537 L520.489952,110.195413 L519.861796,109.670041 C518.211948,108.290537 516.450964,107.648595 514.320603,107.648595 C512.393185,107.648595 510.333157,108.348017 510.333157,110.311983 C510.333157,111.868223 511.738722,112.524669 514.053771,113.42124 L514.249198,113.496983 L517.734657,114.930207 C520.498542,115.994917 523.690861,117.752603 523.690861,121.872314 C523.690861,126.249339 519.759251,129.30595 514.131083,129.30595 Z" id="logo-font"></path>
            </g>
        </g>
    </g>
</svg>