<svg xmlns="http://www.w3.org/2000/svg" width="50" height="65" viewBox="0 0 262 65">
    <g fill="#0B3668" fill-rule="evenodd">
        <path d="M0 62.476V.162h4.295v60.166h38.656V21.65h4.295v42.975H0v-2.149zM15.033 38.84h6.442V.162h4.295V38.84h10.738v4.297h-25.77V.162h4.295V38.84zM10.738 53.88v-4.297h25.77v4.297h-25.77zm21.475-21.487V.162h4.295v32.232h-4.295zM67.648 62.476v-8.595h-3.222v-2.149h8.59v2.15h-3.22v8.594h3.22v2.149h-8.59v-2.149h3.222zm37.582 0v-8.595h-3.222v-2.149h8.59v2.15h-3.221v8.594h3.221v2.149h-8.59v-2.149h3.222zm25.77 0v-8.595h-3.221v-2.149h8.59v2.15h-3.221v8.594h3.22v2.149h-8.59v-2.149H131zm12.885-8.595v10.744h2.148V53.881h3.221v-2.149h-8.59v2.15h3.221zm10.738-2.149h-1.074v12.893h8.59v-2.149h-6.442v-3.223h4.295v-2.149h-4.295v-3.223h6.442v-2.149h-7.516zm73.171.028h-1.074v12.893h8.59v-2.149h-6.442v-3.223h4.295v-2.149h-4.295V53.91h6.442V51.76h-7.516zm-149.409-.028h1.074l4.295 8.596v-8.596h2.148v12.893h-2.148L79.46 56.03v8.595h-2.148V51.732h1.074zm37.582 0h1.074l4.295 8.596v-8.596h2.148v12.893h-2.148l-4.295-8.595v8.595h-2.148V51.732h1.074zm-24.697 0h7.517v2.15h-6.443v10.743h-2.147V51.732h1.073zm100.016 10.772V53.91h-3.222V51.76h8.59v2.15h-3.22v8.594h3.22v2.149h-8.59v-2.149h3.222zm16.106 2.149l-4.295-8.595v8.595h-2.147V51.76H203.097l4.295 8.595V51.76h2.148v12.893h-2.148zm-30.22-12.92h7.517v2.148h-6.443v10.744h-2.148V51.732h1.074zm1.074 6.446V56.03h4.295v2.149h-4.295zm-85.902 0V56.03h4.295v2.149h-4.295zm156.657 6.474h-2.953l-2.684-5.103h-1.611v5.103h-2.148V51.76l4.286-.176c3.903 0 4.723 2.108 4.723 3.876 0 1.827-.91 3.14-2.573 3.746l2.96 5.447zm-6.99-7.198h1.653c2.578 0 2.578-1.501 2.578-1.995 0-.937-.312-1.805-2.578-1.805h-1.654v3.8zM219.273 65c-3.445 0-5.76-2.741-5.76-6.821s2.368-6.821 5.892-6.821c1.43 0 2.678.55 3.707 1.635l.254.268-1.424 1.607-.302-.32c-.468-.498-1.1-1.007-2.235-1.007-2.125 0-3.446 1.763-3.446 4.6 0 2.971 1.243 4.675 3.409 4.675.681 0 1.332-.195 1.747-.517l-.033-1.944h-2.953v-2.268l5.1.12v5.103c-.95.974-2.41 1.69-3.956 1.69zm37.792-.347c-1.823 0-3.519-.654-4.775-1.842l-.265-.25 1.47-1.613.307.29a4.854 4.854 0 0 0 3.338 1.351c1.416 0 2.295-.565 2.295-1.474 0-.923-.609-1.212-1.876-1.73l-1.882-.776c-1.933-.72-2.92-1.853-2.92-3.364 0-2.019 1.875-3.485 4.458-3.485 1.557 0 3.05.568 4.096 1.557l.257.243-1.324 1.538-.314-.263c-.825-.69-1.706-1.01-2.77-1.01-.964 0-1.994.349-1.994 1.331 0 .778.702 1.106 1.86 1.555l.098.037 1.742.717c1.382.532 2.978 1.411 2.978 3.471 0 2.189-1.965 3.717-4.78 3.717z"/>
    </g>
</svg>
