<svg xmlns="http://www.w3.org/2000/svg" width="24" height="24" viewBox="0 0 24 24">
    <g fill="none" fill-rule="evenodd">
        <path d="M0 0h24v24H0z"/>
        <path stroke="#FFF" stroke-linecap="round" stroke-linejoin="round" stroke-width="2" d="M9.086 7.401a2.315 2.315 0 0 0 0-3.27L6.632 1.676a2.313 2.313 0 0 0-3.271 0L2.016 3.022a3.465 3.465 0 0 0-.439 4.366 53.778 53.778 0 0 0 15.034 15.034 3.467 3.467 0 0 0 4.365-.438l1.346-1.346a2.313 2.313 0 0 0 0-3.27l-2.453-2.454a2.312 2.312 0 0 0-3.271 0l-.817.817a54.83 54.83 0 0 1-7.513-7.514l.818-.816z"/>
    </g>
</svg>
