<svg xmlns="http://www.w3.org/2000/svg" width="24" height="24" viewBox="0 0 24 24">
    <g fill="none" fill-rule="evenodd">
        <path d="M0 0h24v24H0z"/>
        <path stroke="#FFF" stroke-linejoin="round" d="M6.497 21.5h-5v-13h5v13zm-2.51-15h-.029C2.447 6.5 1.47 5.318 1.47 4.019c0-1.329 1.008-2.412 2.547-2.412 1.541 0 2.488 1.118 2.519 2.447-.001 1.3-.978 2.446-2.549 2.446zm11.51 6a2 2 0 0 0-2 2v7h-5s.059-12 0-13h5v1.485s1.548-1.443 3.938-1.443c2.962 0 5.062 2.144 5.062 6.304V21.5h-5v-7a2 2 0 0 0-2-2z"/>
    </g>
</svg>
