<?xml version="1.0" encoding="utf-8"?>
<!-- Generator: Adobe Illustrator 16.0.0, SVG Export Plug-In . SVG Version: 6.00 Build 0)  -->
<!DOCTYPE svg PUBLIC "-//W3C//DTD SVG 1.1//EN" "http://www.w3.org/Graphics/SVG/1.1/DTD/svg11.dtd">
<svg version="1.1" id="Layer_1" xmlns="http://www.w3.org/2000/svg" xmlns:xlink="http://www.w3.org/1999/xlink" x="0px" y="0px"
	 width="311.81px" height="141.73px" viewBox="0 0 311.81 141.73" enable-background="new 0 0 311.81 141.73" xml:space="preserve">
<g id="AutarcTech">
	<g>
		<g>
			<path fill="#1C75BC" d="M13.868,77.504l16.934-39.631h4.396l17.05,39.631h-4.337l-5.704-13.369H23.729l-5.763,13.369H13.868z
				 M25.275,60.569h15.387l-7.605-18.181L25.275,60.569z"/>
		</g>
		<g>
			<path fill="#1C75BC" d="M78.897,48.21v29.294h-3.563v-4.52c-1.96,3.511-5.17,5.23-9.863,5.23c-4.812,0-8.911-2.377-10.813-6.298
				c-0.948-1.9-1.426-4.398-1.426-7.545V48.21h3.742v16.162c0,6.533,3.39,10.455,9.09,10.455c5.468,0,9.091-4.158,9.091-10.455
				V48.21H78.897z"/>
		</g>
		<g>
			<path fill="#1C75BC" d="M89.22,77.504V51.539h-6.119V48.21h6.119V37.873h3.802V48.21h7.012v3.329h-7.012v25.965H89.22z"/>
		</g>
		<g>
			<path fill="#1C75BC" d="M131.106,48.21v29.294h-3.802v-5.108c-2.853,3.857-6.655,5.819-11.525,5.819
				c-8.733,0-15.744-6.833-15.744-15.386c0-8.617,6.949-15.332,15.744-15.332c4.811,0,8.852,2.02,11.525,5.882V48.21H131.106z
				 M103.777,62.829c0,6.534,5.464,11.997,11.941,11.997c6.357,0,11.585-5.406,11.585-11.94c0-6.654-5.17-12.061-11.525-12.061
				C109.241,50.825,103.777,56.292,103.777,62.829z"/>
		</g>
		<g>
			<path fill="#1C75BC" d="M136.216,77.504V48.21h3.803v4.22c1.662-3.327,3.977-4.635,8.557-4.932v3.922
				c-2.556,0.297-3.806,0.712-5.35,2.02c-2.257,1.901-3.029,3.683-3.029,7.011v17.054H136.216z"/>
		</g>
		<g>
			<path fill="#1C75BC" d="M174.479,68.886h4.396c-1.9,3.626-3.269,5.229-6.002,6.952c-2.611,1.666-5.168,2.377-8.258,2.377
				c-9.031,0-16.04-6.713-16.04-15.329c0-8.498,7.069-15.389,15.744-15.389c6.593,0,12.24,3.685,14.556,9.565h-4.396
				c-2.26-3.919-6.062-6.237-10.22-6.237c-6.655,0-11.943,5.349-11.943,12.004c0,6.712,5.229,11.997,11.884,11.997
				c3.03,0,5.764-1.066,7.902-3.087C172.934,70.967,173.347,70.434,174.479,68.886z"/>
		</g>
		<g>
			<path fill="#6D6E71" d="M187.964,77.504V41.437h-9.089v-3.563h22.16v3.563h-9.092v36.067H187.964z"/>
		</g>
		<g>
			<path fill="#6D6E71" d="M259.635,68.886h4.396c-1.902,3.626-3.269,5.229-6,6.952c-2.614,1.666-5.171,2.377-8.258,2.377
				c-9.034,0-16.043-6.713-16.043-15.329c0-8.498,7.068-15.389,15.743-15.389c6.595,0,12.24,3.685,14.558,9.565h-4.396
				c-2.259-3.919-6.059-6.237-10.219-6.237c-6.655,0-11.943,5.349-11.943,12.004c0,6.712,5.229,11.997,11.884,11.997
				c3.03,0,5.762-1.066,7.902-3.087C258.089,70.967,258.506,70.434,259.635,68.886z"/>
		</g>
		<g>
			<path fill="#6D6E71" d="M269.225,77.504V37.873h3.803v14.139c1.844-2.791,5.349-4.515,8.912-4.515
				c7.903,0,13.07,5.467,13.07,13.904v16.102h-3.801V61.402c0-6.361-3.683-10.577-9.27-10.577c-3.327,0-6.656,2.08-8.02,4.934
				c-0.594,1.304-0.893,3.028-0.893,5.643v16.102H269.225z"/>
		</g>
		<g>
			<path fill="#D1D3D4" d="M99.287,94.298H89.062c0.114,2.189,2.099,4.064,4.335,4.064c1.69,0,3.38-1.121,3.972-2.648h1.573
				c-0.795,2.325-3.078,3.95-5.521,3.95c-3.242,0-5.867-2.65-5.867-5.89c0-3.267,2.6-5.915,5.842-5.915
				c2.42,0,4.656,1.555,5.478,3.812C99.175,92.472,99.242,92.928,99.287,94.298z M97.757,92.998c-0.549-2.352-2.237-3.86-4.335-3.86
				c-2.124,0-3.927,1.598-4.316,3.86H97.757z"/>
			<path fill="#D1D3D4" d="M101.547,99.388V88.134h1.462v1.46c1.118-1.229,2.125-1.734,3.467-1.734c3.015,0,4.978,2.101,4.978,5.343
				v6.186h-1.46v-6.186c0-2.421-1.393-4.064-3.493-4.064c-1.299,0-2.554,0.778-3.082,1.894c-0.228,0.505-0.318,1.12-0.318,2.171
				v6.186H101.547z"/>
			<path fill="#D1D3D4" d="M115.816,88.134v10.478c0,1.78-0.137,2.374-0.685,3.175c-0.317,0.479-0.774,0.865-1.302,1.14
				c-0.593,0.319-0.912,0.391-1.755,0.409v-1.46c1.666-0.089,2.283-0.981,2.283-3.264V88.134H115.816z M114.357,86.767v-2.602h1.459
				v2.602H114.357z"/>
			<path fill="#D1D3D4" d="M118.077,93.774c0-3.242,2.671-5.915,5.89-5.915c3.195,0,5.867,2.694,5.867,5.891
				c0,3.218-2.672,5.914-5.89,5.914C120.725,99.664,118.077,96.992,118.077,93.774z M119.516,93.817c0,2.51,2.008,4.545,4.451,4.545
				c2.487,0,4.427-2.035,4.427-4.658c0-2.51-2.006-4.566-4.427-4.566C121.499,89.138,119.516,91.237,119.516,93.817z"/>
			<path fill="#D1D3D4" d="M132.776,103.335l1.827-4.311l-4.381-10.891h1.664l3.562,8.972l3.835-8.972h1.62l-6.529,15.201H132.776z"
				/>
			<path fill="#D1D3D4" d="M148.098,86.767v-2.602h1.46v2.602H148.098z M148.098,99.388V88.134h1.46v11.254H148.098z"/>
			<path fill="#D1D3D4" d="M152.524,99.388V88.134h1.461v1.46c1.119-1.229,2.123-1.734,3.47-1.734c3.013,0,4.978,2.101,4.978,5.343
				v6.186h-1.461v-6.186c0-2.421-1.393-4.064-3.493-4.064c-1.303,0-2.559,0.778-3.081,1.894c-0.229,0.505-0.32,1.12-0.32,2.171
				v6.186H152.524z"/>
			<path fill="#D1D3D4" d="M176.518,84.165v15.223h-1.37v-2.032c-0.753,0.958-1.278,1.416-2.077,1.779
				c-0.684,0.32-1.598,0.529-2.443,0.529c-3.31,0-6.001-2.65-6.001-5.89c0-3.312,2.668-5.915,6.049-5.915
				c1.755,0,3.262,0.708,4.383,2.057v-5.751H176.518z M166.062,93.704c0,2.556,2.055,4.658,4.541,4.658
				c2.491,0,4.521-2.103,4.521-4.637c0-2.531-2.029-4.588-4.54-4.588C168.117,89.138,166.062,91.216,166.062,93.704z"/>
			<path fill="#D1D3D4" d="M190.514,94.298h-10.227c0.112,2.189,2.097,4.064,4.335,4.064c1.689,0,3.377-1.121,3.973-2.648h1.576
				c-0.799,2.325-3.085,3.95-5.524,3.95c-3.242,0-5.866-2.65-5.866-5.89c0-3.267,2.602-5.915,5.842-5.915
				c2.42,0,4.656,1.555,5.479,3.812C190.398,92.472,190.467,92.928,190.514,94.298z M188.982,92.998
				c-0.548-2.352-2.238-3.86-4.336-3.86c-2.125,0-3.927,1.598-4.317,3.86H188.982z"/>
			<path fill="#D1D3D4" d="M192.773,88.134h1.46v1.918c0.913-1.37,2.602-2.192,4.498-2.192c3.287,0,5.957,2.673,5.957,5.937
				c0,3.242-2.694,5.868-6.048,5.868c-1.827,0-3.355-0.778-4.34-2.217v5.888h-1.527V88.134z M194.212,93.726
				c0,2.672,1.917,4.637,4.52,4.637c2.511,0,4.519-2.008,4.519-4.545c0-2.623-1.984-4.68-4.541-4.68
				C196.197,89.138,194.212,91.146,194.212,93.726z"/>
			<path fill="#D1D3D4" d="M217.976,94.298H207.75c0.114,2.189,2.102,4.064,4.335,4.064c1.69,0,3.381-1.121,3.973-2.648h1.576
				c-0.799,2.325-3.081,3.95-5.524,3.95c-3.242,0-5.866-2.65-5.866-5.89c0-3.267,2.6-5.915,5.842-5.915
				c2.421,0,4.66,1.555,5.478,3.812C217.863,92.472,217.931,92.928,217.976,94.298z M216.445,92.998
				c-0.547-2.352-2.234-3.86-4.336-3.86c-2.124,0-3.927,1.598-4.313,3.86H216.445z"/>
			<path fill="#D1D3D4" d="M220.238,99.388V88.134h1.459v1.46c1.118-1.229,2.125-1.734,3.471-1.734c3.012,0,4.977,2.101,4.977,5.343
				v6.186h-1.462v-6.186c0-2.421-1.394-4.064-3.49-4.064c-1.303,0-2.558,0.778-3.085,1.894c-0.228,0.505-0.318,1.12-0.318,2.171
				v6.186H220.238z"/>
			<path fill="#D1D3D4" d="M244.229,84.165v15.223h-1.369v-2.032c-0.753,0.958-1.279,1.416-2.078,1.779
				c-0.685,0.32-1.597,0.529-2.44,0.529c-3.312,0-6.004-2.65-6.004-5.89c0-3.312,2.671-5.915,6.048-5.915
				c1.759,0,3.265,0.708,4.384,2.057v-5.751H244.229z M233.775,93.704c0,2.556,2.055,4.658,4.543,4.658
				c2.486,0,4.521-2.103,4.521-4.637c0-2.531-2.034-4.588-4.544-4.588C235.83,89.138,233.775,91.216,233.775,93.704z"/>
			<path fill="#D1D3D4" d="M258.224,94.298h-10.225c0.114,2.189,2.098,4.064,4.337,4.064c1.688,0,3.378-1.121,3.971-2.648h1.575
				c-0.801,2.325-3.082,3.95-5.525,3.95c-3.239,0-5.867-2.65-5.867-5.89c0-3.267,2.604-5.915,5.847-5.915
				c2.42,0,4.656,1.555,5.479,3.812C258.109,92.472,258.179,92.928,258.224,94.298z M256.696,92.998
				c-0.55-2.352-2.239-3.86-4.34-3.86c-2.121,0-3.924,1.598-4.312,3.86H256.696z"/>
			<path fill="#D1D3D4" d="M260.486,99.388V88.134h1.462v1.46c1.118-1.229,2.121-1.734,3.468-1.734c3.013,0,4.977,2.101,4.977,5.343
				v6.186h-1.459v-6.186c0-2.421-1.394-4.064-3.494-4.064c-1.303,0-2.558,0.778-3.081,1.894c-0.229,0.505-0.32,1.12-0.32,2.171
				v6.186H260.486z"/>
			<path fill="#D1D3D4" d="M282.538,96.077h1.688c-0.73,1.393-1.254,2.008-2.306,2.673c-1.003,0.638-1.983,0.914-3.17,0.914
				c-3.472,0-6.167-2.58-6.167-5.89c0-3.267,2.719-5.915,6.052-5.915c2.532,0,4.701,1.417,5.591,3.677h-1.688
				c-0.868-1.506-2.328-2.398-3.926-2.398c-2.557,0-4.589,2.057-4.589,4.612c0,2.577,2.008,4.612,4.564,4.612
				c1.165,0,2.215-0.41,3.037-1.188C281.945,96.878,282.103,96.672,282.538,96.077z"/>
			<path fill="#D1D3D4" d="M297.332,94.298h-10.227c0.115,2.189,2.102,4.064,4.337,4.064c1.688,0,3.381-1.121,3.974-2.648h1.574
				c-0.8,2.325-3.08,3.95-5.524,3.95c-3.242,0-5.867-2.65-5.867-5.89c0-3.267,2.602-5.915,5.844-5.915
				c2.42,0,4.658,1.555,5.478,3.812C297.219,92.472,297.285,92.928,297.332,94.298z M295.802,92.998
				c-0.546-2.352-2.235-3.86-4.336-3.86c-2.123,0-3.928,1.598-4.315,3.86H295.802z"/>
		</g>
	</g>
	<g>
		<g>
			<g>
				<g>
					<g>
						<path fill="#6D6E71" d="M222.229,68.503c-2.008,3.496-5.771,5.856-10.091,5.856c-3.217,0-6.128-1.302-8.236-3.409
							c-2.104-2.105-3.407-5.015-3.407-8.231c0-6.43,5.213-11.641,11.644-11.641c3.212,0,6.124,1.302,8.231,3.408
							c0.723,0.727,1.345,1.552,1.859,2.45h4.107c-0.76-1.868-1.89-3.585-3.357-5.059c-2.897-2.894-6.749-4.486-10.841-4.486
							c-4.096,0-7.945,1.593-10.842,4.486c-2.894,2.896-4.49,6.746-4.49,10.841c0,4.093,1.593,7.941,4.487,10.837
							c2.896,2.9,6.746,4.493,10.845,4.493c6.406,0,11.899-3.953,14.187-9.546H222.229z"/>
					</g>
				</g>
			</g>
			<g>
				<g>
					<path fill="#6D6E71" d="M211.368,64.024c-0.336-0.335-0.543-0.797-0.543-1.305c0-1.02,0.824-1.842,1.845-1.848h14.423
						c1.02,0,1.848,0.828,1.848,1.848c-0.003,1.02-0.828,1.842-1.845,1.848H212.67C212.161,64.567,211.7,64.359,211.368,64.024z"/>
				</g>
			</g>
		</g>
		<g>
			<path fill="#6D6E71" d="M207.809,61.161c-0.855,0.853-0.855,2.253,0,3.11l5.465,5.46c0.854,0.855,1.552,0.567,1.552-0.643
				l0.003-12.749c0-1.21-0.7-1.498-1.555-0.643L207.809,61.161z"/>
		</g>
	</g>
</g>
</svg>
