<?xml version="1.0" encoding="UTF-8" standalone="no"?>
<svg
   xmlns:svg="http://www.w3.org/2000/svg"
   xmlns="http://www.w3.org/2000/svg"
   version="1.1"
   width="486.03934"
   height="248.67728"
   id="svg3834">
  <defs
     id="defs3836" />
  <g
     transform="translate(-106.98015,-408.02309)"
     id="layer1">
    <path
       d="m 235.0328,573.38934 5.8746,0 0,78.31103 -13.7061,0 0,-78.31103 7.8315,0 z"
       id="path44"
       style="fill:#f8d100;fill-opacity:1;fill-rule:nonzero;stroke:none" />
    <path
       d="m 235.0328,494.68733 5.8746,0 0,78.70241 -13.7061,0 0,-78.70241 7.8315,0 z"
       id="path48"
       style="fill:#e2001a;fill-opacity:1;fill-rule:nonzero;stroke:none" />
    <path
       d="m 461.56455,529.01308 c 0,-2.15259 -0.14482,-3.67114 -0.44226,-4.55956 -0.52837,-1.76513 -1.66337,-2.65355 -3.40499,-2.65355 -2.41873,0 -3.79246,1.4481 -4.11732,4.33647 -0.11737,1.00194 -0.17612,1.96081 -0.17612,2.87664 l 8.14069,0 z m 3.54197,2.39132 -11.68266,0 0,1.5029 c 0,2.27 0.20744,3.90988 0.6223,4.90789 0.58706,1.4481 1.73772,2.16824 3.45196,2.16824 2.56744,0 3.90596,-1.63596 4.02729,-4.90789 l 3.44805,0 c -0.20744,4.95486 -2.70051,7.43229 -7.47534,7.43229 -3.09972,0 -5.22491,-1.04499 -6.37556,-3.14278 -0.8493,-1.5616 -1.27981,-4.086 -1.27981,-7.56536 0,-3.95292 0.3679,-6.78259 1.1076,-8.49291 1.15065,-2.68486 3.42065,-4.0273 6.81391,-4.0273 3.18191,0 5.3071,1.17805 6.36774,3.53807 0.64968,1.4755 0.97452,3.99989 0.97452,7.56535 l 0,1.0215 z m -20.97439,10.66038 -3.4911,0 0,-22.30078 3.4911,0 0,22.30078 z m 0.17612,-27.74094 -3.84334,0 0,-3.80812 3.84334,0 0,3.80812 z m -13.71431,15.88411 c 0,-2.50874 -0.20743,-4.36387 -0.61838,-5.57324 -0.64578,-1.83165 -1.85905,-2.74356 -3.62809,-2.74356 -1.82774,0 -3.0371,1.02933 -3.62809,3.0958 -0.35223,1.23676 -0.52836,3.28759 -0.52836,6.14856 0,2.56745 0.17613,4.39519 0.52836,5.48714 0.55968,1.82774 1.69468,2.74358 3.40892,2.74358 2.00386,0 3.33063,-1.10762 3.98032,-3.3189 0.32485,-1.15065 0.48532,-3.09581 0.48532,-5.83938 m 3.62808,-10.44199 c 0,0.32484 -0.0235,0.908 -0.0626,1.74555 -0.047,0.84147 -0.0705,1.49898 -0.0705,1.96864 l 0,19.51415 c 0,2.71618 -0.63011,4.69264 -1.9021,5.9294 -1.26806,1.24066 -3.28759,1.85905 -6.05855,1.85905 -4.60261,0 -6.93133,-2.1565 -6.99394,-6.46167 l 3.7181,0 c 0,2.71617 1.15065,4.07426 3.45196,4.07426 1.79643,0 2.99405,-0.65361 3.58111,-1.94908 0.41487,-0.85711 0.6223,-2.27 0.6223,-4.24646 l 0,-3.0097 c -1.24067,1.74164 -2.96666,2.6105 -5.17794,2.6105 -2.77488,0 -4.67307,-1.16631 -5.70631,-3.49894 -0.68099,-1.53028 -1.0215,-3.92161 -1.0215,-7.16615 0,-3.59676 0.37182,-6.28162 1.1076,-8.05066 1.06064,-2.53614 2.951,-3.8042 5.66325,-3.8042 2.47744,0 4.26604,1.02933 5.35408,3.0958 l 0,-2.61049 3.49501,0 z m -18.40264,2.92047 c -0.35614,-0.0588 -0.60663,-0.09 -0.75144,-0.09 -1.68293,0 -2.94709,0.51661 -3.78464,1.54986 -0.84147,1.02932 -1.26024,2.40306 -1.26024,4.11339 l 0,13.80393 -3.54198,0 0,-18.22652 c 0,-1.5068 -0.047,-2.86098 -0.13307,-4.07034 l 3.45196,0 0,2.91969 c 1.20937,-2.2426 3.09973,-3.36195 5.66327,-3.36195 0.23873,0 0.35614,1.11935 0.35614,3.36195 m -18.40773,6.32664 c 0,-2.15259 -0.14873,-3.67114 -0.44227,-4.55957 -0.53227,-1.76512 -1.66727,-2.65355 -3.40891,-2.65355 -2.4148,0 -3.78853,1.4481 -4.11339,4.33648 -0.11737,1.00194 -0.17612,1.96081 -0.17612,2.87664 l 8.14069,0 z m 3.54197,2.39132 -11.68266,0 0,1.5029 c 0,2.27 0.20744,3.90988 0.61839,4.90789 0.59097,1.4481 1.74164,2.16824 3.45196,2.16824 2.56353,0 3.90988,-1.63597 4.02338,-4.90789 l 3.45196,0 c -0.20353,4.95486 -2.6966,7.43229 -7.47534,7.43229 -3.09972,0 -5.221,-1.04499 -6.37165,-3.14278 -0.85712,-1.5616 -1.27981,-4.086 -1.27981,-7.56536 0,-3.95293 0.36397,-6.78259 1.10369,-8.49291 1.15065,-2.68487 3.42065,-4.0273 6.81391,-4.0273 3.18582,0 5.3071,1.17805 6.37165,3.53807 0.64969,1.4755 0.97452,3.99989 0.97452,7.56535 l 0,1.0215 z m -20.97438,10.66078 -3.49502,0 0,-14.2462 c 0,-1.91775 -0.13307,-3.22888 -0.39921,-3.93728 -0.50096,-1.29937 -1.51855,-1.94906 -3.05275,-1.94906 -1.50681,0 -2.66921,0.73971 -3.49501,2.21129 -0.681,1.27198 -1.01759,2.77488 -1.01759,4.51651 l 0,13.40474 -3.49501,0 0,-17.43203 c 0,-1.97646 -0.0588,-3.59677 -0.17613,-4.86875 l 3.44805,0 0,3.05275 c 1.24068,-2.36001 3.17409,-3.53806 5.79633,-3.53806 3.92552,0 5.88634,2.31696 5.88634,6.94697 l 0,15.83912 z m -20.17598,0 -15.04461,0 0,-31.98741 14.73542,0 0,3.05276 -10.97427,0 0,10.97035 10.39895,0 0,2.96665 -10.39895,0 0,11.94488 11.28346,0 0,3.05277 z m -36.28162,-10.92849 c 0,-3.0371 -0.22309,-5.20534 -0.66143,-6.50473 -0.6223,-1.85905 -1.816,-2.78661 -3.58504,-2.78661 -1.74163,0 -2.91968,0.97454 -3.54197,2.91969 -0.41095,1.26806 -0.61839,3.24454 -0.61839,5.92939 0,2.91968 0.23483,5.05662 0.7084,6.41471 0.61838,1.82774 1.72598,2.74356 3.31889,2.74356 1.88645,0 3.13886,-0.93149 3.76116,-2.78662 0.41095,-1.20937 0.61838,-3.18583 0.61838,-5.92939 m 3.58503,10.9273 -3.40891,0 -0.043,-2.56353 c -1.26807,1.94515 -3.00971,2.91969 -5.221,2.91969 -2.86099,0 -4.82179,-1.28372 -5.88242,-3.85117 -0.68101,-1.71033 -1.0215,-4.36388 -1.0215,-7.96457 0,-3.38933 0.39919,-5.95678 1.19761,-7.69842 1.06064,-2.41873 2.93143,-3.62809 5.61628,-3.62809 2.24262,0 3.92554,0.87278 5.04488,2.6105 l 0,-11.81181 3.53807,0 0,27.78399 c 0,0.79841 0.0626,2.19563 0.18004,4.20341 m -21.28324,10e-4 -3.49501,0 0,-14.2462 c 0,-1.91775 -0.13307,-3.22888 -0.39921,-3.93728 -0.50096,-1.29937 -1.51855,-1.94906 -3.05275,-1.94906 -1.5029,0 -2.66921,0.73971 -3.49501,2.21129 -0.681,1.27198 -1.01759,2.77488 -1.01759,4.51651 l 0,13.40474 -3.49501,0 0,-17.43203 c 0,-1.97646 -0.0588,-3.59677 -0.18004,-4.86875 l 3.45196,0 0,3.05275 c 1.24068,-2.36001 3.17409,-3.53806 5.79633,-3.53806 3.92552,0 5.88633,2.31696 5.88633,6.94697 l 0,15.83912 z m -21.37086,0 -3.49501,0 -0.043,-2.83359 c -1.35809,2.12519 -3.2328,3.18974 -5.62021,3.18974 -3.98033,0 -5.97244,-2.28565 -5.97244,-6.86088 l 0,-15.79605 3.49501,0 0,14.25011 c 0,1.82774 0.14873,3.1232 0.44226,3.89422 0.50097,1.26416 1.5342,1.90211 3.0958,1.90211 2.92362,0 4.37954,-2.16825 4.37954,-6.50473 l 0,-13.54171 3.54198,0 0,17.38896 c 0,1.74164 0.0588,3.37762 0.17612,4.91182 m 215.87131,-46.98605 c -1.08803,0.11738 -1.94515,0.17613 -2.56353,0.17613 -2.00778,0 -3.38152,-0.42662 -4.1173,-1.28373 -0.61839,-0.7671 -0.93149,-2.16824 -0.93149,-4.20341 l 0,-14.42231 -3.31498,0 0,-2.56745 3.31498,0 0,-4.1134 3.49894,-1.54987 0,5.66327 3.98423,0 0,2.56745 -3.98423,0 0,14.02702 c 0,1.23675 0.18002,2.07039 0.53227,2.49699 0.35615,0.43052 1.01758,0.64186 1.99211,0.64186 0.17613,0 0.70449,-0.0587 1.589,-0.17611 l 0,2.74356 z M 487.32042,465.6993 c -0.27005,-0.0274 -0.72405,-0.043 -1.37374,-0.043 -1.09195,0 -1.82773,0.3992 -2.2113,1.1937 -0.23482,0.55968 -0.35223,1.45985 -0.35223,2.70053 l 0,3.22887 3.80028,0 0,2.56744 -3.80028,0 0,19.73334 -3.49893,0 0,-19.73334 -3.27585,0 0,-2.56744 3.27585,0 0,-2.43437 c 0,-2.41873 0.29354,-4.14471 0.88451,-5.17404 0.82582,-1.5342 2.42264,-2.30522 4.77874,-2.30522 0.6223,0 1.20936,0.0314 1.77295,0.094 l 0,2.73965 z m -18.54355,20.7513 0,-2.65355 -0.8806,0 c -4.66524,0 -6.99004,1.59292 -6.99004,4.77874 0,2.86099 1.08804,4.28951 3.26803,4.28951 1.65552,0 2.88055,-0.70447 3.67505,-2.12127 0.61837,-1.12325 0.92756,-2.55179 0.92756,-4.29343 m 3.67505,8.62992 -3.405,0 -0.047,-2.91969 c -1.5029,2.17997 -3.49501,3.27192 -5.97245,3.27192 -1.89035,0 -3.3502,-0.61837 -4.38344,-1.85905 -0.91191,-1.17805 -1.36591,-2.74356 -1.36591,-4.68872 0,-3.15843 1.20545,-5.2797 3.62808,-6.37165 1.589,-0.73579 4.21907,-1.12325 7.87063,-1.15065 l 0,-0.97454 c 0,-1.82774 -0.14481,-3.09581 -0.43835,-3.8042 -0.47356,-1.18196 -1.47548,-1.76904 -3.0097,-1.76904 -1.06063,0 -1.94906,0.29354 -2.65746,0.88452 -0.7084,0.59098 -1.06063,1.4168 -1.06063,2.47743 l 0,0.21918 -3.49111,0 0,-0.21918 c 0,-2.03517 0.73188,-3.55372 2.20738,-4.55565 1.26807,-0.88452 2.9784,-1.32677 5.1349,-1.32677 2.56744,0 4.34821,0.61837 5.35406,1.85905 0.93931,1.11934 1.41288,2.97839 1.41288,5.57324 l 0,8.2307 c 0,2.68093 0.0744,5.05661 0.22308,7.1231 m -20.39823,-10e-4 -3.49502,0 0,-14.2462 c 0,-1.88644 -0.13307,-3.20148 -0.3953,-3.93728 -0.50096,-1.29937 -1.52246,-1.94906 -3.05666,-1.94906 -3.00579,0 -4.5126,2.19955 -4.5126,6.59474 l 0,13.5378 -3.49501,0 0,-31.98742 3.49501,0 0,12.25409 c 1.44419,-2.03517 3.31889,-3.05276 5.6202,-3.05276 3.89423,0 5.83938,2.3287 5.83938,6.99002 l 0,15.79607 z m -19.86523,-6.9454 c 0,4.92355 -2.31696,7.38923 -6.94697,7.38923 -3.18583,0 -5.32277,-1.03323 -6.41862,-3.09972 -0.82581,-1.5616 -1.23676,-4.27778 -1.23676,-8.14069 0,-3.8629 0.37181,-6.60647 1.1076,-8.22679 1.12326,-2.50873 3.33064,-3.76115 6.63388,-3.76115 2.54005,0 4.33647,0.58708 5.40102,1.76904 0.97454,1.11934 1.45985,2.93534 1.45985,5.44016 l -3.45196,0 c 0,-3.1232 -1.15065,-4.68871 -3.44805,-4.68871 -1.83165,0 -3.02536,0.99019 -3.58895,2.96274 -0.32093,1.15065 -0.4853,3.20147 -0.4853,6.15247 0,3.36195 0.25439,5.67892 0.75535,6.94698 0.55576,1.41289 1.62031,2.12127 3.18191,2.12127 1.3894,0 2.36003,-0.4853 2.92361,-1.45983 0.41094,-0.7358 0.63403,-1.8708 0.66143,-3.405 l 3.45196,0 z m -18.98071,0.83911 c 0,4.33647 -2.33263,6.50472 -6.99003,6.50472 -4.57131,0 -6.81391,-2.40307 -6.7239,-7.21312 l 3.4911,0 c 0,0.44617 0.0156,0.85712 0.043,1.24067 0.20743,2.3287 1.29938,3.49502 3.27975,3.49502 2.23869,0 3.35804,-1.15065 3.35804,-3.45197 0,-1.23675 -0.35225,-2.21128 -1.06064,-2.91968 -0.44226,-0.47357 -1.43245,-1.12325 -2.96275,-1.94515 -2.09778,-1.12327 -3.42456,-1.94908 -3.98031,-2.47743 -1.12326,-1.03325 -1.68294,-2.40699 -1.68294,-4.11731 0,-1.91776 0.63404,-3.3776 1.9021,-4.37954 1.17805,-0.94321 2.75923,-1.41679 4.73569,-1.41679 2.2974,0 3.93728,0.5401 4.9079,1.6164 0.97453,1.07629 1.49115,2.73574 1.54985,4.97834 l -3.49501,0 c 0,-2.77487 -1.04889,-4.16036 -3.14278,-4.16036 -0.91582,0 -1.63596,0.2818 -2.16823,0.84146 -0.52837,0.55968 -0.7945,1.29548 -0.7945,2.2113 0,1.00193 0.42661,1.85905 1.28372,2.56745 0.43835,0.41094 1.48724,1.06063 3.13886,1.94515 1.80034,0.97454 3.04102,1.80034 3.7181,2.47743 1.06064,1.12326 1.59292,2.5244 1.59292,4.20341 m -16.72513,6.10629 c -1.08804,0.11737 -1.94515,0.17612 -2.56745,0.17612 -2.00777,0 -3.3776,-0.42661 -4.11339,-1.28372 -0.61838,-0.7671 -0.92757,-2.16824 -0.92757,-4.20342 l 0,-14.42231 -3.31889,0 0,-2.56745 3.31889,0 0,-4.1134 3.49502,-1.54986 0,5.66326 3.98032,0 0,2.56745 -3.98032,0 0,14.02703 c 0,1.23675 0.17612,2.07038 0.53228,2.49698 0.34832,0.43053 1.01366,0.64187 1.9882,0.64187 0.18004,0 0.70449,-0.0587 1.59291,-0.17612 l 0,2.74357 z m -12.83215,-19.37839 c -0.35224,-0.0588 -0.60272,-0.09 -0.75145,-0.09 -1.67901,0 -2.94316,0.51661 -3.78464,1.54986 -0.83755,1.02933 -1.26023,2.40306 -1.26023,4.11339 l 0,13.80394 -3.53807,0 0,-18.22653 c 0,-1.5068 -0.047,-2.86097 -0.13307,-4.07034 l 3.45196,0 0,2.91969 c 1.20936,-2.2426 3.09581,-3.36195 5.66326,-3.36195 0.23483,0 0.35224,1.11935 0.35224,3.36195 m -15.88411,19.37911 -3.49501,0 0,-22.30077 3.49501,0 0,22.30077 z m 0.17611,-27.74095 -3.84725,0 0,-3.80811 3.84725,0 0,3.80811 z m -7.07809,-4.2488 -7.34227,31.98742 -4.51651,0 -5.61629,-28.05014 -5.92939,28.05014 -4.51651,0 -7.07614,-31.98742 3.98033,0 5.48713,27.96404 6.01549,-27.96404 4.51651,0 5.57324,27.96404 5.8433,-27.96404 3.58111,0 z m -47.73962,12.61063 c -0.35615,-0.0588 -0.60664,-0.09 -0.75145,-0.09 -1.68293,0 -2.94316,0.51661 -3.78464,1.54986 -0.84146,1.02933 -1.26024,2.40306 -1.26024,4.11339 l 0,13.80394 -3.54197,0 0,-18.22653 c 0,-1.5068 -0.043,-2.86097 -0.12916,-4.07034 l 3.44805,0 0,2.91969 c 1.20936,-2.2426 3.09972,-3.36195 5.66326,-3.36195 0.23874,0 0.35615,1.11935 0.35615,3.36195 m -25.12928,-8.05264 -3.27583,0 0,-4.24646 3.27583,0 0,4.24646 z m 6.94307,0 -3.36195,0 0,-4.24646 3.36195,0 0,4.24646 z m 2.4786,27.43097 -3.49502,0 -0.043,-2.82968 c -1.35808,2.12128 -3.2328,3.18191 -5.62021,3.18191 -3.98032,0 -5.97244,-2.28173 -5.97244,-6.85696 l 0,-15.79605 3.49502,0 0,14.25011 c 0,1.82774 0.14872,3.1232 0.44226,3.89422 0.50096,1.26416 1.5342,1.90211 3.0958,1.90211 2.91969,0 4.37954,-2.16825 4.37954,-6.50473 l 0,-13.54171 3.54197,0 0,17.38896 c 0,1.74164 0.0588,3.37762 0.17613,4.91182 m -19.51264,-29.37964 c -0.26614,-0.0274 -0.72405,-0.043 -1.36983,-0.043 -1.09195,0 -1.83165,0.3992 -2.21128,1.1937 -0.23875,0.55967 -0.35617,1.45985 -0.35617,2.70052 l 0,3.22888 3.8042,0 0,2.56744 -3.8042,0 0,19.73333 -3.49501,0 0,-19.73333 -3.27584,0 0,-2.56744 3.27584,0 0,-2.43438 c 0,-2.41872 0.29354,-4.14471 0.88451,-5.17403 0.82582,-1.5342 2.41873,-2.30523 4.77874,-2.30523 0.61839,0 1.20936,0.0314 1.76904,0.094 l 0,2.73965 z m 310.11504,-17.60619 -3.49502,0 0,-14.99765 c 0,-1.62421 -0.14481,-2.77487 -0.44226,-3.45196 -0.44226,-1.09194 -1.32677,-1.63988 -2.65355,-1.63988 -2.62615,0 -3.93727,2.02344 -3.93727,6.06247 l 0,14.02702 -3.49893,0 0,-15.17767 c 0,-1.5616 -0.11737,-2.65355 -0.35615,-3.27194 -0.41095,-1.09194 -1.30721,-1.63988 -2.6966,-1.63988 -1.32677,0 -2.34436,0.64969 -3.04885,1.94908 -0.61837,1.15065 -0.93147,2.63789 -0.93147,4.46954 l 0,13.67087 -3.49503,0 0,-18.44961 c 0,-1.32678 -0.0626,-2.61049 -0.18002,-3.85116 l 3.49892,0 0,2.9236 c 1.17805,-2.27392 2.93534,-3.40892 5.26014,-3.40892 2.54396,0 4.19557,1.135 4.95876,3.40892 1.29939,-2.27392 3.14278,-3.40892 5.53019,-3.40892 2.03517,0 3.48327,0.66535 4.33649,1.99213 0.7671,1.15065 1.15065,3.02144 1.15065,5.61629 l 0,15.17767 z m -30.97178,0 -3.4911,0 -0.047,-2.82967 c -1.362,2.12127 -3.2328,3.18191 -5.62021,3.18191 -3.98033,0 -5.97635,-2.28174 -5.97635,-6.85696 l 0,-15.79605 3.49892,0 0,14.25011 c 0,1.82774 0.14873,3.1232 0.44227,3.89421 0.50096,1.26416 1.53028,1.90211 3.0958,1.90211 2.91968,0 4.38345,-2.16825 4.38345,-6.50472 l 0,-13.54171 3.53415,0 0,17.38896 c 0,1.74164 0.0626,3.37761 0.18003,4.91181 m -21.72815,0.001 -3.4911,0 0,-22.30077 3.4911,0 0,22.30077 z m 0.18003,-27.74486 -3.84725,0 0,-3.80811 3.84725,0 0,3.80811 z m -7.87298,8.36455 c -0.35615,-0.0588 -0.60663,-0.09 -0.75536,-0.09 -1.67901,0 -2.93925,0.51661 -3.78072,1.54986 -0.84147,1.02933 -1.26415,2.40306 -1.26415,4.11339 l 0,13.80394 -3.53807,0 0,-18.22653 c 0,-1.5068 -0.043,-2.86097 -0.12916,-4.07034 l 3.44414,0 0,2.91969 c 1.21327,-2.2426 3.09972,-3.36195 5.66717,-3.36195 0.23483,0 0.35615,1.11935 0.35615,3.36195 m -18.41047,6.32624 c 0,-2.15259 -0.14481,-3.67114 -0.43835,-4.55956 -0.53228,-1.76513 -1.66728,-2.65355 -3.40499,-2.65355 -2.42264,0 -3.79637,1.4481 -4.11731,4.33647 -0.11738,1.00194 -0.18004,1.96081 -0.18004,2.87664 l 8.14069,0 z m 3.54197,2.39132 -11.68266,0 0,1.5029 c 0,2.27 0.20744,3.90988 0.61839,4.9118 0.59489,1.44419 1.74164,2.16433 3.45587,2.16433 2.56744,0 3.90597,-1.63596 4.02729,-4.90789 l 3.44805,0 c -0.20744,4.95486 -2.70051,7.43229 -7.47534,7.43229 -3.09972,0 -5.22491,-1.04499 -6.37165,-3.14278 -0.85321,-1.5616 -1.28372,-4.086 -1.28372,-7.56536 0,-3.94901 0.3679,-6.78259 1.10369,-8.49291 1.15065,-2.68486 3.42456,-4.0273 6.81782,-4.0273 3.18191,0 5.3071,1.17805 6.36774,3.53807 0.64969,1.4755 0.97452,3.99989 0.97452,7.56535 l 0,1.0215 z m -18.75761,10.66118 c -1.09586,0.11737 -1.94515,0.17612 -2.56745,0.17612 -2.00777,0 -3.38151,-0.42661 -4.11339,-1.28372 -0.6223,-0.7671 -0.93148,-2.16824 -0.93148,-4.20341 l 0,-14.42232 -3.31498,0 0,-2.56745 3.31498,0 0,-4.11339 3.49893,-1.54987 0,5.66326 3.9764,0 0,2.56745 -3.9764,0 0,14.02703 c 0,1.23675 0.17612,2.07039 0.53228,2.49699 0.34832,0.43052 1.01366,0.64186 1.98429,0.64186 0.18003,0 0.7084,-0.0587 1.59682,-0.17611 l 0,2.74356 z m -13.8963,-6.10669 c 0,4.33648 -2.3287,6.50473 -6.99002,6.50473 -4.57132,0 -6.81783,-2.40308 -6.72782,-7.21313 l 3.49893,0 c 0,0.44618 0.0113,0.85713 0.043,1.24068 0.20742,2.3287 1.29937,3.49501 3.27192,3.49501 2.2426,0 3.36978,-1.15065 3.36978,-3.45196 0,-1.23675 -0.35616,-2.21129 -1.06846,-2.91969 -0.44227,-0.46965 -1.42854,-1.12325 -2.96275,-1.94515 -2.09388,-1.12326 -3.42065,-1.94908 -3.98032,-2.47743 -1.12326,-1.03325 -1.67902,-2.40698 -1.67902,-4.11731 0,-1.91776 0.63404,-3.3776 1.89819,-4.37954 1.18196,-0.94321 2.75922,-1.41678 4.73177,-1.41678 2.30523,0 3.94119,0.5401 4.91573,1.6164 0.97061,1.07628 1.48723,2.73573 1.54986,4.97833 l -3.49503,0 c 0,-2.77487 -1.0528,-4.16036 -3.14668,-4.16036 -0.91192,0 -1.63597,0.2818 -2.16433,0.84146 -0.53227,0.55968 -0.79841,1.29548 -0.79841,2.2113 0,1.00193 0.43052,1.85905 1.28372,2.56745 0.44227,0.41094 1.49115,1.06063 3.13887,1.94515 1.80033,0.97454 3.04101,1.80034 3.72201,2.47743 1.06064,1.12326 1.589,2.5244 1.589,4.20341 m -18.93525,6.10825 -3.49501,0 0,-22.30077 3.49501,0 0,22.30077 z m 0.17612,-27.74486 -3.84726,0 0,-3.80811 3.84726,0 0,3.80811 z m -10.26235,27.7433 -3.49501,0 0,-14.2462 c 0,-1.91775 -0.13307,-3.22888 -0.39921,-3.94119 -0.50488,-1.29546 -1.52246,-1.94515 -3.05666,-1.94515 -1.49899,0 -2.6653,0.73971 -3.4911,2.21129 -0.681,1.27199 -1.01759,2.77489 -1.01759,4.51651 l 0,13.40474 -3.49501,0 0,-17.43203 c 0,-1.97646 -0.0626,-3.59677 -0.18004,-4.86875 l 3.45196,0 0,3.05275 c 1.24068,-2.36001 3.17016,-3.53806 5.79633,-3.53806 3.92552,0 5.88633,2.31696 5.88633,6.94698 l 0,15.83911 z m -21.54893,0.001 -3.49893,0 0,-22.30078 3.49893,0 0,22.30078 z m 0.17611,-27.74486 -3.85116,0 0,-3.80811 3.85116,0 0,3.80811 z m -10.26548,27.7433 -3.49501,0 0,-14.99765 c 0,-1.62422 -0.14481,-2.77488 -0.43835,-3.45197 -0.44617,-1.09193 -1.33069,-1.63987 -2.65746,-1.63987 -2.62615,0 -3.94119,2.02344 -3.94119,6.06246 l 0,14.02703 -3.49501,0 0,-15.17768 c 0,-1.5616 -0.11738,-2.65355 -0.35224,-3.27194 -0.41095,-1.09193 -1.31504,-1.63987 -2.6966,-1.63987 -1.32677,0 -2.34436,0.64969 -3.05667,1.94907 -0.61838,1.15065 -0.92757,2.63789 -0.92757,4.46954 l 0,13.67088 -3.49502,0 0,-18.44962 c 0,-1.32677 -0.0587,-2.61048 -0.17611,-3.85116 l 3.49501,0 0,2.9236 c 1.18196,-2.27391 2.93534,-3.40891 5.26405,-3.40891 2.54005,0 4.19166,1.135 4.95485,3.40891 1.29939,-2.27391 3.14277,-3.40891 5.5341,-3.40891 2.03517,0 3.47936,0.66535 4.33649,1.99212 0.76318,1.15065 1.14673,3.02144 1.14673,5.61629 l 0,15.17768 z m -29.82191,-6.10669 c 0,4.33647 -2.3287,6.50472 -6.99002,6.50472 -4.57132,0 -6.81392,-2.40307 -6.7239,-7.21312 l 3.49501,0 c 0,0.44617 0.0156,0.85712 0.043,1.24067 0.20742,2.3287 1.29546,3.49502 3.27584,3.49502 2.23868,0 3.36195,-1.15065 3.36195,-3.45197 0,-1.23675 -0.35617,-2.21128 -1.06064,-2.91968 -0.44618,-0.46965 -1.43245,-1.12325 -2.96274,-1.94515 -2.0978,-1.12327 -3.42457,-1.94908 -3.98424,-2.47743 -1.12326,-1.03325 -1.68293,-2.40699 -1.68293,-4.11731 0,-1.91776 0.63403,-3.3776 1.9021,-4.37954 1.18196,-0.94321 2.75922,-1.41679 4.73568,-1.41679 2.30132,0 3.93728,0.5401 4.91182,1.6164 0.97061,1.07629 1.48723,2.73574 1.54986,4.97834 l -3.49503,0 c 0,-2.77487 -1.04888,-4.16036 -3.14276,-4.16036 -0.91584,0 -1.63597,0.2818 -2.16825,0.84146 -0.53227,0.55968 -0.79841,1.29548 -0.79841,2.2113 0,1.00193 0.43052,1.85905 1.28372,2.56745 0.44227,0.41094 1.49115,1.06063 3.14278,1.94515 1.79642,0.97454 3.0371,1.80034 3.7181,2.47743 1.06064,1.12326 1.589,2.5244 1.589,4.20341 m -21.4565,-6.94581 c 0,-2.15259 -0.14873,-3.67114 -0.44226,-4.55957 -0.53228,-1.76512 -1.66728,-2.65355 -3.40892,-2.65355 -2.41871,0 -3.78853,1.4481 -4.11338,4.33648 -0.11738,1.00194 -0.18004,1.96081 -0.18004,2.87664 l 8.1446,0 z m 3.53806,2.39132 -11.68266,0 0,1.5029 c 0,2.27 0.20744,3.90988 0.6223,4.9118 0.59097,1.44419 1.74164,2.16433 3.45196,2.16433 2.56744,0 3.90596,-1.63597 4.02729,-4.90789 l 3.44805,0 c -0.20353,4.95486 -2.6966,7.43229 -7.47534,7.43229 -3.09581,0 -5.221,-1.04499 -6.37165,-3.14278 -0.85712,-1.5616 -1.28372,-4.086 -1.28372,-7.56536 0,-3.94901 0.36788,-6.78259 1.10368,-8.49291 1.15065,-2.68487 3.42457,-4.0273 6.81392,-4.0273 3.18973,0 5.31101,1.17805 6.37165,3.53807 0.64968,1.4755 0.97452,3.99989 0.97452,7.56535 l 0,1.0215 z m -24.37744,-0.2673 c 0,-3.0371 -0.22308,-5.20534 -0.66535,-6.50472 -0.61837,-1.85905 -1.81207,-2.78662 -3.58111,-2.78662 -1.74164,0 -2.91969,0.97454 -3.54197,2.91969 -0.41487,1.26806 -0.61839,3.24454 -0.61839,5.92939 0,2.91969 0.23482,5.05662 0.7084,6.41471 0.61837,1.83165 1.72206,2.74356 3.31497,2.74356 1.89037,0 3.14278,-0.92757 3.76508,-2.78662 0.41095,-1.20936 0.61837,-3.18583 0.61837,-5.92939 m 3.58112,10.9273 -3.40499,0 -0.043,-2.56352 c -1.26808,1.94515 -3.00971,2.91968 -5.221,2.91968 -2.86099,0 -4.82179,-1.28372 -5.88634,-3.85117 -0.67709,-1.71033 -1.01759,-4.36388 -1.01759,-7.96456 0,-3.38934 0.3992,-5.95679 1.19762,-7.69843 1.06063,-2.41872 2.93143,-3.62809 5.61628,-3.62809 2.24262,0 3.92554,0.87278 5.04488,2.6105 l 0,-11.81181 3.53807,0 0,27.78399 c 0,0.79841 0.0588,2.19955 0.17612,4.20341 m -21.27933,10e-4 -3.49892,0 0,-14.2462 c 0,-1.91775 -0.12917,-3.22887 -0.3953,-3.94119 -0.50097,-1.29546 -1.51855,-1.94515 -3.05275,-1.94515 -1.50682,0 -2.66922,0.73972 -3.49502,2.21129 -0.681,1.27199 -1.01758,2.77489 -1.01758,4.51651 l 0,13.40474 -3.49501,0 0,-17.43202 c 0,-1.97647 -0.0588,-3.59678 -0.18004,-4.86875 l 3.45196,0 0,3.05275 c 1.24067,-2.36002 3.17016,-3.53807 5.79633,-3.53807 3.92552,0 5.88633,2.31697 5.88633,6.94698 l 0,15.83911 z m -21.37085,0 -3.49501,0 -0.047,-2.82967 c -1.35418,2.12127 -3.22889,3.18191 -5.6163,3.18191 -3.98033,0 -5.97244,-2.28174 -5.97244,-6.85696 l 0,-15.79605 3.4911,0 0,14.25011 c 0,1.82774 0.15264,3.1232 0.44618,3.89421 0.50096,1.26416 1.5342,1.90211 3.0958,1.90211 2.91968,0 4.37953,-2.16825 4.37953,-6.50472 l 0,-13.54171 3.54198,0 0,17.38896 c 0,1.74164 0.0588,3.37761 0.17612,4.91181 m -24.82201,-8.93785 c 0,-2.09387 -0.45009,-3.64765 -1.35026,-4.66524 -0.89625,-1.0215 -2.38349,-1.53028 -4.44606,-1.53028 l -4.02729,0 0,12.12491 3.40891,0 c 2.2426,0 3.83551,-0.36789 4.77874,-1.1076 1.08804,-0.8532 1.63596,-2.46178 1.63596,-4.82179 m -0.48922,-14.82152 c 0,-1.97646 -0.48532,-3.36195 -1.45593,-4.16036 -0.85712,-0.70839 -2.2426,-1.06064 -4.16036,-1.06064 l -3.7181,0 0,10.92731 3.93727,0 c 3.60069,0 5.39712,-1.90211 5.39712,-5.70631 m 4.33647,14.99765 c 0,3.24452 -0.81015,5.54583 -2.43046,6.90392 -1.4755,1.23675 -3.85116,1.85905 -7.12309,1.85905 l -7.83541,0 0,-31.99132 8.49684,0 c 2.86097,0 4.96268,0.61837 6.30511,1.85905 1.34244,1.24067 2.0156,3.28759 2.0156,6.14856 0,2.00777 -0.3405,3.54199 -1.0215,4.60262 -0.70447,1.20937 -1.9608,2.09388 -3.75724,2.65355 2.06258,0.50488 3.4911,1.43244 4.28952,2.79053 0.7084,1.17805 1.06063,2.90404 1.06063,5.17404 m -46.37645,-22.55996 0,78.30711 -5.8746,0 -7.83148,0 0,-78.30711 13.70608,0 z m -73.7178,28.73347 c 0.10567,-0.87669 0.16829,-1.78077 0.16829,-2.70834 0,-0.50488 0.004,-1.08803 -0.0587,-1.75338 7.8041,-0.1135 14.64932,-5.7337 14.64932,-12.19928 0,-3.28759 -2.14476,-5.77285 -3.35803,-7.25617 0.27396,-0.0548 0.54793,-0.12138 0.82189,-0.18787 1.14283,0.9941 4.38736,4.52435 4.38736,8.98607 0,7.75713 -7.75322,14.95851 -16.61012,15.11897 m -7.86281,-27.01297 c -0.14481,-0.86495 -0.47357,-1.64772 -0.97454,-2.32089 0.0274,-0.79058 0.35225,-1.54594 1.62423,-0.92756 -0.68883,0.7084 -0.15655,1.95297 -0.15655,1.95297 0,0 1.40896,-0.6536 1.11934,-1.58116 2.08996,0.50096 0.58707,3.30715 -1.61248,2.87664 m -1.81209,3.98032 c -0.28179,-1.15849 -0.87277,-2.34827 -1.63205,-3.24454 -0.68491,-0.81406 -1.82774,-1.78077 -3.35803,-1.78077 -0.70448,0 -1.87862,0.32876 -2.62615,0.64186 -0.27788,-0.50487 -0.82581,-1.73381 -0.82581,-2.28565 0,-0.5675 0.96279,-1.14282 2.79836,-1.14282 4.03903,0 6.45384,1.82773 6.45384,4.88831 0,1.0763 -0.4266,2.05475 -0.81016,2.92361 m 10.37546,52.07689 c 0.46966,0 0.70057,0.0783 0.97062,0.17612 1.1624,3.16625 5.64369,9.13479 5.83155,9.39309 l 0.043,0.0509 0.0665,-0.0156 c 1.09978,-0.17611 3.90596,-0.5988 6.25815,-0.5988 l 0.0509,0 c 0.25831,0 0.54402,0 0.73188,0.18003 0.14872,0.15263 0.227,0.41877 0.227,0.79841 0,0.58707 -0.25049,1.58508 -0.54402,2.01168 -0.82581,-0.90016 -2.16041,-1.29937 -4.29343,-1.29937 -0.64577,0 -1.40505,0.19177 -1.816,0.29745 l -0.16829,0.0391 -0.19177,0.047 1.23284,1.23676 c 1.9021,1.9021 3.54981,3.54198 3.54981,4.63393 0,0.65751 -0.64186,1.51464 -1.23285,1.89819 -0.12524,-2.00387 -2.14867,-4.68089 -4.1173,-6.17988 l -0.1683,-0.12524 -0.0313,0.70056 c -0.0313,0.48141 -0.0704,1.19763 -0.0704,1.96473 0,3.81204 -0.38746,4.38736 -1.71032,4.38736 -0.19961,0 -0.5088,-0.0547 -0.70449,-0.12916 0.74362,-0.91583 1.03716,-2.13301 1.03716,-4.26211 l -0.008,-0.98236 -0.0118,-0.7945 c 0,-0.86887 0.09,-1.51855 0.16046,-2.03518 l 0.0391,-0.29744 -0.20743,-0.0235 c -0.61838,-0.09 -1.76903,-0.24656 -2.64572,-0.24656 -1.88253,0 -3.15843,0.1722 -4.08208,1.04497 -0.61053,-0.49313 -1.23674,-1.34242 -1.23674,-1.88253 0,-0.7945 0.49314,-0.85711 1.14283,-0.85711 0.32876,0 0.63403,0.047 1.05672,0.10175 0.81016,0.11737 2.03126,0.29745 4.54,0.29745 l 0.15264,0 -0.047,-0.15264 c -0.63795,-1.81991 -2.3835,-4.46562 -5.18186,-7.87062 0.25048,-0.908 0.49705,-1.50682 1.37765,-1.50682 m -24.17548,9.37744 -0.047,0.15264 0.15264,0 c 2.50874,0 3.72984,-0.18003 4.54,-0.29745 0.42269,-0.0548 0.72796,-0.10175 1.05672,-0.10175 0.64578,0 1.14674,0.0626 1.14674,0.85711 0,0.54011 -0.63012,1.3894 -1.23676,1.88254 -0.92757,-0.87278 -2.20737,-1.04498 -4.08599,-1.04498 -0.88061,0 -2.02735,0.15655 -2.64572,0.24657 l -0.0978,0.007 -0.10959,0.0156 0.0352,0.29743 c 0.0744,0.51663 0.16438,1.16632 0.16438,2.03518 l -0.0117,0.7945 -0.008,0.98236 c 0,2.1291 0.28962,3.34629 1.03715,4.26211 -0.19177,0.0744 -0.50488,0.12917 -0.70839,0.12917 -1.31895,0 -1.70642,-0.57533 -1.70642,-4.38737 0,-0.7671 -0.0391,-1.48332 -0.0665,-1.96472 l -0.0391,-0.70448 -0.16437,0.12915 c -1.96864,1.49899 -3.99207,4.17602 -4.1134,6.17988 -0.59489,-0.38355 -1.23284,-1.24068 -1.23284,-1.89819 0,-1.09195 1.63987,-2.73182 3.54198,-4.63392 l 1.09586,-1.09195 0.1409,-0.14482 -0.36007,-0.0861 c -0.41095,-0.10562 -1.17023,-0.29745 -1.816,-0.29745 -2.13693,0 -3.46762,0.39922 -4.29343,1.29938 -0.29353,-0.4266 -0.54402,-1.42461 -0.54402,-2.01169 0,-0.37964 0.0744,-0.64577 0.227,-0.79841 0.18786,-0.18003 0.47357,-0.18003 0.72797,-0.18003 l 0.0548,0 c 2.34827,0 5.16229,0.42269 6.25815,0.5988 l 0.0665,0.0156 0.0391,-0.0509 c 0.19177,-0.2583 4.67306,-6.22683 5.83546,-9.39308 0.27005,-0.0979 0.50096,-0.17613 0.9667,-0.17613 0.88452,0 1.13109,0.59882 1.38549,1.50682 -2.80619,3.405 -4.54783,6.05071 -5.18577,7.87062 m -12.10534,-53.54065 c 0,-4.46171 3.24453,-7.99196 4.38735,-8.98606 0.27788,0.0665 0.54793,0.13307 0.8219,0.18786 -1.21327,1.48333 -3.35803,3.96859 -3.35803,7.25618 0,6.5282 6.97829,12.20318 14.88023,12.20318 -0.0509,0.55577 -0.0783,1.14675 -0.0783,1.74948 0,0.9667 0.0509,1.86296 0.14872,2.70834 -8.93518,-0.0548 -16.8019,-7.30705 -16.8019,-15.11898 m 59.93199,13.75735 c 4.00772,6.34034 7.14658,6.23468 11.88227,6.23468 -3.91771,-3.0058 -6.51255,-6.85305 -7.74931,-8.81778 l -7.31879,-11.71789 c -0.71623,-3.61633 -2.58702,-7.00177 -5.38929,-9.51833 0.93931,-0.35617 1.72598,-0.73188 2.19564,-1.08804 -4.77874,0 -9.51834,-2.42655 -12.12493,-2.42655 -1.67901,0 -2.75531,1.00194 -2.75531,2.3248 0.10959,1.47549 1.62814,2.97839 4.43433,2.97839 0.63403,0 1.4481,-0.0861 2.34045,-0.23092 1.51855,2.11737 2.74748,4.0312 2.74748,6.76303 0,5.13099 -6.13683,9.12696 -12.32453,9.12696 -0.35224,0 -0.68491,-0.0112 -1.03324,-0.0391 -0.56359,-1.27199 -2.42655,-3.40891 -2.42655,-5.83546 0,-4.07425 2.65746,-7.40489 2.65746,-11.44001 0,-2.50875 -1.22501,-4.06252 -1.69467,-4.7083 0.76319,-0.70447 1.59291,-1.57333 1.78469,-2.16432 -0.43834,0.18786 -0.96279,0.21526 -1.72989,0.21526 -2.96666,0 -5.38538,-0.77494 -7.74148,-0.77494 -1.34635,0 -1.71033,0.41487 -1.71033,0.81408 0,0.1409 0.0235,0.28961 0.0626,0.36397 -0.50488,-0.1996 -0.97453,-0.32483 -1.5342,-0.43051 -0.69274,-0.13306 -1.44419,-0.1996 -2.24261,-0.1996 -2.86489,0 -3.88248,1.20154 -3.88248,2.23086 0,0.87278 0.68492,2.46178 1.46376,3.67505 1.11543,-0.56358 2.45786,-0.94322 3.07233,-0.94322 1.51855,0 2.87272,1.4481 3.58894,3.16625 -1.0215,0.12137 -1.2211,0.1683 -2.25434,0.1683 -2.78662,0 -4.68872,-1.00194 -5.0801,-1.00194 -0.0391,0 -0.1135,0.0196 -0.1135,0.0821 0,0.39138 0.7945,1.42462 2.35219,1.99603 2.05474,0.75145 5.13489,1.06455 5.6476,1.14674 0,0.09 -0.52445,1.06455 -1.10369,1.2485 -0.12524,0.043 -0.21917,0.047 -0.36398,0.0156 -2.14476,-0.4227 -2.74357,-0.60273 -5.46757,-1.63989 -0.0822,-0.0312 -0.13307,0.0196 -0.13307,0.10963 0,1.0763 2.79054,3.45196 5.28753,4.36387 -2.08605,2.66139 -4.69263,5.38538 -5.92156,9.54183 -0.34833,0.0274 -0.68492,0.0391 -1.03324,0.0391 -6.19162,0 -12.32453,-3.99598 -12.32453,-9.12697 0,-2.73182 1.22893,-4.64566 2.74748,-6.76302 0.89235,0.14481 1.7025,0.23091 2.34045,0.23091 2.80619,0 4.32474,-1.5029 4.43824,-2.97838 0,-1.32287 -1.08021,-2.3248 -2.75922,-2.3248 -2.60659,0 -7.34228,2.42655 -12.12884,2.42655 0.47357,0.35616 1.25633,0.73187 2.19955,1.08803 -2.80227,2.51657 -4.67306,5.902 -5.38929,9.51834 l -7.31879,11.71788 c -1.23676,1.96472 -3.83552,5.81197 -7.75322,8.81777 4.73569,0 7.87846,0.10563 11.88618,-6.23467 l 3.75333,-6.00767 c 0.27788,0.78275 0.62229,1.54203 1.02149,2.28565 l -7.46359,11.94489 c -1.24459,1.98038 -3.81595,5.79633 -7.75322,8.81776 4.7396,0 7.87846,0.10963 11.88618,-6.22683 l 6.42644,-10.28935 c 0.4814,0.5127 0.98628,1.01367 1.52247,1.49115 l -9.07217,14.52016 c -1.24458,1.9843 -3.8042,5.7885 -7.7493,8.80995 4.73568,0 7.87846,0.1135 11.88618,-6.22685 l 8.84125,-14.15617 c 0.58315,0.3679 1.17805,0.72796 1.79252,1.06455 l -10.79032,17.26763 c -1.24459,1.98822 -3.80812,5.78068 -7.74931,8.80995 4.73569,0 7.87846,0.10963 11.88618,-6.22683 l 11.11125,-17.78819 c 0.65752,0.2544 1.32286,0.49314 2.00386,0.71231 l -12.55544,20.09738 c -1.22893,1.9569 -3.84726,5.81981 -7.7493,8.80995 4.73568,0 7.87845,0.10962 11.88618,-6.22294 l 13.38124,-21.42016 c 0.13699,0.0196 0.27006,0.043 0.40313,0.0705 0.36398,1.15848 0.61837,2.23868 0.61837,3.31498 0,6.73172 -4.41475,12.67677 -9.71794,17.26373 0.3405,0.14872 0.93148,0.1996 1.47941,0.1996 1.09195,0 1.80035,-0.0587 2.29349,-0.1448 -1.22893,2.79052 -3.86683,6.39512 -5.19752,8.262 -1.73772,-0.3131 -4.2582,-0.55575 -5.91373,-0.55575 -1.7299,0 -1.92559,1.01367 -1.92559,1.91384 0,1.57335 0.73579,2.82185 1.59291,3.5185 0.31702,-0.80233 0.9628,-1.87862 4.16036,-1.87862 0.0626,0 0.17221,0.007 0.32093,0.0196 -0.93539,1.04108 -3.85899,3.405 -3.85899,5.3071 0,1.26415 1.38548,3.1506 3.20539,3.1506 -0.10959,-0.40311 -0.0939,-0.77883 -0.0939,-1.05672 0,-1.54595 1.36591,-3.3502 2.52048,-4.61044 -0.0352,0.37573 -0.0157,0.33659 -0.0157,0.77493 0,3.64765 0.32876,5.32275 2.64181,5.32275 1.135,0 1.92167,-0.6262 2.18781,-0.81015 -1.5029,-1.38548 -1.58117,-2.47352 -1.58117,-4.51652 0.004,-0.53227 0.008,-1.05281 0.0156,-1.77295 0.004,-0.46573 -0.004,-1.08411 -0.0783,-1.53028 0.82972,-0.11738 1.16239,-0.11738 1.80034,-0.11738 0,0 3.28758,-0.25831 4.08208,1.4481 0.89235,-0.81799 2.18781,-1.97255 2.18781,-3.24454 0,-0.84146 -0.3992,-1.79251 -2.09387,-1.79251 -0.64187,0 -2.65747,0.39138 -4.34431,0.39138 0.45009,-1.00584 2.4696,-3.96075 4.21907,-6.10159 0.26613,0.82971 0.67708,1.72989 1.59682,2.46176 0.12524,-1.37374 0.93148,-5.7337 3.08798,-8.28157 0.24657,1.72206 0.58707,3.48718 0.58707,7.21311 0,9.05651 -2.17607,15.7491 -6.80217,17.02499 0.60273,1.0489 1.87471,1.98821 3.19365,1.98821 1.69076,0 2.61442,-1.90994 3.55373,-3.71419 0.48922,1.33069 1.83948,4.59479 3.19365,4.59479 1.35417,0 2.70834,-3.2641 3.19757,-4.59479 0.93931,1.80425 1.85905,3.71419 3.5498,3.71419 1.32286,0 2.59485,-0.93931 3.19757,-1.98821 -4.62218,-1.2759 -6.80216,-7.96848 -6.80216,-17.025 0,-3.72592 0.33659,-5.49105 0.58707,-7.21311 2.15259,2.54788 2.96274,6.90784 3.08798,8.28158 0.91974,-0.73188 1.33069,-1.63205 1.59683,-2.46177 1.74555,2.14084 3.76506,5.09575 4.22298,6.10159 -1.69076,0 -3.71028,-0.39137 -4.34822,-0.39137 -1.69467,0 -2.09388,0.95105 -2.09388,1.79251 0,1.27199 1.29546,2.42655 2.19172,3.24454 0.78667,-1.70642 4.07817,-1.4481 4.07817,-1.4481 0.63795,0 0.97062,0 1.80034,0.11737 -0.0744,0.44618 -0.0822,1.06455 -0.0783,1.53029 0.008,0.72014 0.0117,1.24067 0.0117,1.77295 0,2.043 -0.0744,3.13104 -1.57725,4.51651 0.26613,0.18395 1.05281,0.81015 2.18389,0.81015 2.31697,0 2.64964,-1.6751 2.64964,-5.32275 0,-0.43834 0.0117,-0.3992 -0.0196,-0.77492 1.15457,1.26023 2.52048,3.06448 2.52048,4.61043 0,0.27789 0.0156,0.65362 -0.0939,1.05673 1.82383,0 3.20539,-1.88645 3.20539,-3.1506 0,-1.9021 -2.9236,-4.26603 -3.85899,-5.3071 0.15263,-0.0113 0.25831,-0.0196 0.32093,-0.0196 3.19756,0 3.83943,1.07629 4.16427,1.87861 0.85321,-0.69665 1.58509,-1.94515 1.58509,-3.5185 0,-0.90016 -0.19178,-1.91384 -1.92168,-1.91384 -1.65553,0 -4.17601,0.24265 -5.91373,0.55575 -1.33461,-1.86687 -3.96859,-5.47147 -5.20143,-8.262 0.49705,0.0861 1.20545,0.1448 2.2974,0.1448 0.54793,0 1.13891,-0.0509 1.47941,-0.1996 -5.30319,-4.58696 -9.72186,-10.53201 -9.72186,-17.26372 0,-1.0763 0.25831,-2.1565 0.61838,-3.31499 0.13307,-0.0274 0.27005,-0.0509 0.40704,-0.0705 l 13.38124,21.42016 c 4.00773,6.33252 7.1505,6.22294 11.88619,6.22294 -3.90205,-2.99014 -6.52038,-6.85305 -7.74539,-8.80995 l -12.55935,-20.09731 c 0.67709,-0.21917 1.34635,-0.45791 2.00387,-0.71231 l 11.11125,17.78819 c 4.00772,6.33642 7.14658,6.22684 11.88618,6.22684 -3.9451,-3.02928 -6.50472,-6.82174 -7.74931,-8.80995 l -10.79032,-17.26764 c 0.61447,-0.33659 1.20936,-0.69665 1.7886,-1.06455 l 8.84517,14.15617 c 4.01164,6.34035 7.14658,6.22685 11.88227,6.22685 -3.94119,-3.02145 -6.50081,-6.82565 -7.74931,-8.80995 l -9.06825,-14.52016 c 0.53619,-0.47747 1.04498,-0.97845 1.51855,-1.49115 l 6.43036,10.28935 c 4.00772,6.33643 7.14658,6.22684 11.88618,6.22684 -3.94119,-3.02144 -6.50863,-6.83739 -7.75322,-8.81776 l -7.4636,-11.94489 c 0.39921,-0.74363 0.74362,-1.5029 1.0215,-2.28565 l 3.75333,6.00766 z"
       id="path216"
       style="fill:#1a171b;fill-opacity:1;fill-rule:nonzero;stroke:none" />
  </g>
</svg>
