<?xml version="1.0" encoding="UTF-8" standalone="no"?>
<svg
   xmlns:dc="http://purl.org/dc/elements/1.1/"
   xmlns:cc="http://creativecommons.org/ns#"
   xmlns:rdf="http://www.w3.org/1999/02/22-rdf-syntax-ns#"
   xmlns:svg="http://www.w3.org/2000/svg"
   xmlns="http://www.w3.org/2000/svg"
   viewBox="0 0 222.10001 91.787498"
   height="91.787498"
   width="222.10001"
   xml:space="preserve"
   version="1.1"
   id="svg2"><metadata
     id="metadata8"><rdf:RDF><cc:Work
         rdf:about=""><dc:format>image/svg+xml</dc:format><dc:type
           rdf:resource="http://purl.org/dc/dcmitype/StillImage" /></cc:Work></rdf:RDF></metadata><defs
     id="defs6" /><g
     transform="matrix(1.25,0,0,-1.25,0,91.7875)"
     id="g10"><g
       transform="scale(0.1,0.1)"
       id="g12"><path
         id="path14"
         style="fill:#fff200;fill-opacity:1;fill-rule:nonzero;stroke:none"
         d="m 1121.89,734.336 -31.74,-96.004 -96.67,-2.09 77.09,-61.406 -28.02,-97.309 79.34,58.071 79.43,-58.071 -28.01,97.309 76.97,61.406 -96.66,2.09 -31.73,96.004" /><path
         id="path16"
         style="fill:#fff200;fill-opacity:1;fill-rule:nonzero;stroke:none"
         d="m 1616.59,163.23 -96.65,-2.085 77.06,-61.4184 -28,-97.29301 79.3,58.07421 79.4,-58.07421 -28,97.29301 77.05,61.4184 -96.63,2.085 -31.82,96.016 -31.71,-96.016" /><path
         id="path18"
         style="fill:#fff200;fill-opacity:1;fill-rule:nonzero;stroke:none"
         d="m 1442.86,541.738 31.81,-96.015 96.63,-2.09 -77.05,-61.414 28,-97.285 -79.39,58.054 -79.32,-58.054 28,97.285 -77.04,61.414 96.63,2.09 31.73,96.015" /><path
         id="path20"
         style="fill:#254aa5;fill-opacity:1;fill-rule:nonzero;stroke:none"
         d="m 113.227,606.23 -75.02,-102.019 0,-0.402 63.223,0 -5.0081,-21.407 -96.4219,0 2.40234,15 76.21486,101.621 0,0.403 -56.2109,0 3.1992,21.004 89.8205,0 -2.199,-14.2" /><path
         id="path22"
         style="fill:#254aa5;fill-opacity:1;fill-rule:nonzero;stroke:none"
         d="m 194.82,482.402 -22.804,0 1.992,12.801 -0.391,0 C 169.008,489.805 161.215,480 143.012,480 c -15.606,0 -23.809,10 -23.809,28.605 0,5.008 0.996,13.004 2.402,20.411 l 8,50.808 25.008,0 -8.203,-50.808 c -0.996,-6.008 -1.601,-11.606 -1.601,-15.207 0,-8.606 3.398,-12.801 10.402,-12.801 8.203,0 15.008,4.805 19.004,8.394 l 11.004,70.422 25,0 -15.399,-97.422" /><path
         id="path24"
         style="fill:#254aa5;fill-opacity:1;fill-rule:nonzero;stroke:none"
         d="m 281,556.223 c -2.598,1.797 -9.395,5.996 -19.395,5.996 -7.597,0 -11.21,-3 -11.21,-7.602 0,-4.597 2.812,-7.801 10.019,-12.801 l 4.785,-3.398 c 10.606,-7.402 17.617,-15.813 17.617,-28.215 0,-17 -13.007,-30.203 -36.211,-30.203 -16.406,0 -25.41,6.602 -29.609,9.805 l 8.399,20 c 2.812,-2.598 10.605,-9.2 20.8,-9.2 7.813,0 12.403,2.403 12.403,7.403 0,4.805 -2.989,8.203 -10.586,14.199 l -4.805,3.606 c -10,7.996 -16.016,15 -16.016,27.207 0,18.203 15.606,29.207 36.407,29.207 13.418,0 21.211,-4.805 24.218,-6.805 L 281,556.223" /><path
         id="path26"
         style="fill:#254aa5;fill-opacity:1;fill-rule:nonzero;stroke:none"
         d="m 338.813,501.008 c 9.394,0 15,5.203 17.792,7.801 l 8.008,50.214 c -2.207,1.399 -5.605,3.196 -10.996,3.196 -15.215,0 -28.203,-13 -28.203,-42.403 0,-12.609 5.195,-18.808 13.399,-18.808 z m 38.593,-18.606 -22.988,0 1.797,11.602 -0.41,0 C 352.816,489.805 345.004,480 329.008,480 c -16.211,0 -28.809,11.602 -28.809,40.215 0,39.805 25.215,62.012 52.403,62.012 12.812,0 19.003,-5.204 22.011,-7.801 l 5.801,5.398 12.402,0 -15.41,-97.422" /><path
         id="path28"
         style="fill:#254aa5;fill-opacity:1;fill-rule:nonzero;stroke:none"
         d="m 545.434,533.418 -8.204,-51.016 -25.019,0 8.203,51.016 c 0.801,4.602 1.602,11.199 1.602,15 0,8.398 -3.399,12.805 -10.196,12.805 -8.613,0 -15,-4.805 -18.808,-8.203 -0.196,-6.204 -1.407,-13.801 -2.207,-19.602 l -8.203,-51.016 -25,0 8.203,51.016 c 0.8,4.797 1.601,10.801 1.601,15 0,8.398 -3.398,12.805 -10,12.805 -8.203,0 -14.609,-4.805 -18.398,-8.41 l -11.016,-70.411 -25,0 15.41,97.422 22.793,0 -1.992,-12.801 0.391,0 c 5,5.797 14.219,15.204 30.019,15.204 10.801,0 18.008,-4.805 21.407,-14.207 5.195,5.796 15.996,14.207 32.207,14.207 15.8,0 24.394,-10.204 24.394,-28.809 0,-6.199 -1.387,-14.004 -2.187,-20" /><path
         id="path30"
         style="fill:#254aa5;fill-opacity:1;fill-rule:nonzero;stroke:none"
         d="m 704.438,533.418 -8.204,-51.016 -25.019,0 8.203,51.016 c 0.801,4.602 1.602,11.199 1.602,15 0,8.398 -3.399,12.805 -10.196,12.805 -8.613,0 -15,-4.805 -18.808,-8.203 -0.196,-6.204 -1.407,-13.801 -2.207,-19.602 l -8.204,-51.016 -25,0 8.204,51.016 c 0.8,4.797 1.601,10.801 1.601,15 0,8.398 -3.398,12.805 -10,12.805 -8.203,0 -14.609,-4.805 -18.398,-8.41 l -11.016,-70.411 -25,0 15.41,97.422 22.793,0 -1.992,-12.801 0.391,0 c 5,5.797 14.218,15.204 30.019,15.204 10.801,0 18.008,-4.805 21.406,-14.207 5.196,5.796 15.997,14.207 32.207,14.207 15.801,0 24.395,-10.204 24.395,-28.809 0,-6.199 -1.387,-14.004 -2.187,-20" /><path
         id="path32"
         style="fill:#254aa5;fill-opacity:1;fill-rule:nonzero;stroke:none"
         d="m 749.809,540.613 3.398,0 c 18.613,0 24.609,5.996 24.609,15 0,5.403 -3.398,8.008 -7.812,8.008 -8.594,0 -16.387,-8.008 -20.195,-23.008 z m 5.8,-16.402 -7.793,0 0,-3 c 0,-14.402 6.192,-20.606 17.403,-20.606 11.992,0 19.59,5.801 22.207,8.204 l 5.195,-17.801 C 789.223,487.805 780.219,480 761.02,480 c -23.008,0 -37.618,12.402 -37.618,40.813 0,40.203 25.411,61.414 51.602,61.414 15.019,0 25.019,-8.204 25.019,-24.004 0,-23.008 -18.613,-34.012 -44.414,-34.012" /><path
         id="path34"
         style="fill:#254aa5;fill-opacity:1;fill-rule:nonzero;stroke:none"
         d="m 899.828,533.418 -8.203,-51.016 -25.02,0 8.204,51.016 c 1.015,6.398 1.601,11.398 1.601,15 0,8.801 -3.203,12.805 -10.605,12.805 -8.594,0 -15.586,-5 -19.59,-8.41 l -11.016,-70.411 -25,0 15.41,97.422 22.793,0 -1.992,-12.801 0.391,0 c 4.609,5.196 14.609,15.204 31.621,15.204 15.195,0 23.594,-9.805 23.594,-28.211 0,-4.602 -0.586,-11.399 -2.188,-20.598" /><path
         id="path36"
         style="fill:#254aa5;fill-opacity:1;fill-rule:nonzero;stroke:none"
         d="m 929.613,480 c -9.218,0 -15.019,5.801 -15.019,15.203 0,9.406 5.801,15.207 15.019,15.207 8.985,0 15,-5.801 15,-15.207 0,-9.402 -6.015,-15.203 -15,-15.203" /><path
         id="path38"
         style="fill:#254aa5;fill-opacity:1;fill-rule:nonzero;stroke:none"
         d="m 113.227,366.23 -75.02,-102.019 0,-0.402 63.223,0 -5.0081,-21.407 -96.4219,0 2.40234,15 76.21486,101.621 0,0.403 -56.2109,0 3.1992,21.004 89.8205,0 -2.199,-14.2" /><path
         id="path40"
         style="fill:#254aa5;fill-opacity:1;fill-rule:nonzero;stroke:none"
         d="m 194.82,242.402 -22.804,0 1.992,12.801 -0.391,0 C 169.008,249.805 161.215,240 143.012,240 c -15.606,0 -23.809,10 -23.809,28.605 0,5.008 0.996,13.004 2.402,20.411 l 8,50.808 25.008,0 -8.203,-50.808 c -0.996,-6.008 -1.601,-11.606 -1.601,-15.207 0,-8.606 3.398,-12.801 10.402,-12.801 8.203,0 15.008,4.805 19.004,8.394 l 11.004,70.422 25,0 -15.399,-97.422" /><path
         id="path42"
         style="fill:#254aa5;fill-opacity:1;fill-rule:nonzero;stroke:none"
         d="m 307.211,339.824 c 0.41,-2.004 0.996,-6.008 0.996,-9.597 0,-22.207 -10.391,-35.813 -25.801,-42.414 l 20.801,-45.411 -27.402,0 -15.801,40.411 c -1.797,-0.208 -3.809,-0.208 -5.801,-0.208 l -2.598,0 -6.406,-40.203 -24.804,0 22.207,141.028 25.41,2.207 -13.399,-83.625 2.188,0 c 17.812,0 26.601,8.008 26.601,27.605 0,4.602 -0.39,7.61 -0.8,10.207 l 24.609,0" /><path
         id="path44"
         style="fill:#254aa5;fill-opacity:1;fill-rule:nonzero;stroke:none"
         d="m 398.402,242.402 -22.793,0 1.993,12.801 -0.391,0 C 372.602,249.805 364.809,240 346.605,240 c -15.605,0 -23.808,10 -23.808,28.605 0,5.008 0.996,13.004 2.402,20.411 l 8.008,50.808 25,0 -8.203,-50.808 c -0.996,-6.008 -1.602,-11.606 -1.602,-15.207 0,-8.606 3.399,-12.801 10.411,-12.801 8.183,0 15,4.805 19.003,8.394 l 10.997,70.422 25,0 -15.411,-97.422" /><path
         id="path46"
         style="fill:#254aa5;fill-opacity:1;fill-rule:nonzero;stroke:none"
         d="m 513.617,293.418 -8.203,-51.016 -25.019,0 8.203,51.016 c 1.015,6.398 1.601,11.398 1.601,15 0,8.801 -3.203,12.805 -10.605,12.805 -8.594,0 -15.586,-5 -19.59,-8.41 l -11.016,-70.411 -25,0 15.41,97.422 22.793,0 -1.992,-12.801 0.391,0 c 4.609,5.196 14.609,15.204 31.621,15.204 15.195,0 23.594,-9.805 23.594,-28.211 0,-4.602 -0.586,-11.399 -2.188,-20.598" /><path
         id="path48"
         style="fill:#254aa5;fill-opacity:1;fill-rule:nonzero;stroke:none"
         d="m 602.016,364.23 c -1.407,0.594 -4.61,2 -8.614,2 -8.593,0 -14.394,-4.003 -16.406,-17 l -1.601,-9.406 22.402,0 -3.594,-19.804 -21.797,0 -11.601,-73.211 c -5.215,-33.215 -20.41,-45.411 -48.809,-46.821 l -3.008,20.41 c 17.207,1.606 23.809,7.805 27.012,27.805 l 11.387,71.817 -12.989,0 2.989,17.207 13.203,2.199 1.406,9.004 c 4.004,25.601 18.008,38.406 40.215,38.406 8.203,0 13.594,-2.606 15.195,-3.406 l -5.39,-19.2" /><path
         id="path50"
         style="fill:#254aa5;fill-opacity:1;fill-rule:nonzero;stroke:none"
         d="m 663.813,320.02 -22.422,0 L 636,286.211 c -0.996,-6.395 -1.797,-11.797 -1.797,-15 0,-7.606 3.399,-10.203 9.004,-10.203 5.195,0 7.988,1.394 9.59,2.195 l 1.797,-18.398 c -2.793,-1.407 -8.594,-4.407 -19.59,-4.407 -16.406,0 -26.211,8.008 -26.211,27.012 0,4.602 1.191,11.606 2.207,18.801 l 5.391,33.809 -13.008,0 3.008,17.207 13.007,2.39 7.207,26.809 22.188,0 -4.395,-26.602 22.813,0 -3.398,-19.804" /><path
         id="path52"
         style="fill:#254aa5;fill-opacity:1;fill-rule:nonzero;stroke:none"
         d="m 683.598,240 c -9.219,0 -15.02,5.801 -15.02,15.203 0,9.406 5.801,15.207 15.02,15.207 8.984,0 15,-5.801 15,-15.207 0,-9.402 -6.016,-15.203 -15,-15.203" /><path
         id="path54"
         style="fill:#254aa5;fill-opacity:1;fill-rule:nonzero;stroke:none"
         d="m 118.227,112.422 c -3.602,2.605 -11.407,8.406 -26.8051,8.406 -28.6055,0 -50.8125,-20.008 -50.8125,-62.41 0,-24.0039 11,-36.4141 31.8086,-36.4141 5,0 9.8047,0.8008 13.4062,1.6016 l 5.1953,31.4062 -22.5976,0 3.1953,21.0039 47.6058,0 -10,-62.6093 C 105.023,10 91.8203,0 66.8203,0 36.6094,0 13.0039,16.6016 13.0039,56.6094 c 0,59.6206 38.4063,86.2226 79.8125,86.2226 19.4136,0 29.6096,-6.797 33.6136,-9.402 l -8.203,-21.008" /><path
         id="path56"
         style="fill:#254aa5;fill-opacity:1;fill-rule:nonzero;stroke:none"
         d="m 161.012,60.6133 3.398,0 c 18.602,0 24.61,5.9961 24.61,15 0,5.4023 -3.411,8.0117 -7.805,8.0117 -8.602,0 -16.406,-8.0117 -20.203,-23.0117 z m 5.801,-16.4024 -7.805,0 0,-3 c 0,-14.4023 6.203,-20.6054 17.402,-20.6054 12.012,0 19.61,5.8008 22.207,8.2031 l 5.196,-17.8008 C 200.414,7.80469 191.41,0 172.211,0 c -23.008,0 -37.606,12.4023 -37.606,40.8125 0,40.2031 25.399,61.4145 51.61,61.4145 15,0 25,-8.2036 25,-24.0043 0,-23.0079 -18.594,-34.0118 -44.402,-34.0118" /><path
         id="path58"
         style="fill:#254aa5;fill-opacity:1;fill-rule:nonzero;stroke:none"
         d="m 282.016,76.2227 c -2.598,1.7968 -9.395,5.9961 -19.414,5.9961 -7.598,0 -11.192,-3 -11.192,-7.6016 0,-4.5977 2.793,-7.8008 10,-12.8008 l 4.805,-3.3984 C 276.82,51.0156 283.813,42.6055 283.813,30.2031 283.813,13.2031 270.805,0 247.602,0 231.195,0 222.211,6.60156 217.992,9.80469 l 8.418,20.00001 c 2.793,-2.5977 10.586,-9.1992 20.801,-9.1992 7.793,0 12.402,2.4023 12.402,7.4023 0,4.8047 -3.008,8.2031 -10.605,14.1992 l -4.805,3.6055 c -10,7.9961 -15.996,15 -15.996,27.207 0,18.2032 15.606,29.2075 36.406,29.2075 13.399,0 21.211,-4.8051 24.2,-6.8051 l -6.797,-19.1992" /><path
         id="path60"
         style="fill:#254aa5;fill-opacity:1;fill-rule:nonzero;stroke:none"
         d="m 363.227,80.0195 -22.422,0 -5.391,-33.8086 c -0.996,-6.3945 -1.797,-11.7968 -1.797,-15 0,-7.6054 3.399,-10.2031 9.004,-10.2031 5.195,0 7.988,1.3945 9.59,2.1953 l 1.797,-18.39841 c -2.793,-1.40625 -8.594,-4.406252 -19.59,-4.406252 -16.406,0 -26.211,8.007812 -26.211,27.011762 0,4.6015 1.191,11.6054 2.207,18.8007 l 5.391,33.8086 -13.008,0 3.008,17.2071 13.008,2.3906 7.207,26.8088 22.187,0 -4.394,-26.6018 22.812,0 -3.398,-19.8047" /><path
         id="path62"
         style="fill:#254aa5;fill-opacity:1;fill-rule:nonzero;stroke:none"
         d="m 410.805,21.0078 c 9.414,0 15,5.2031 17.812,7.8008 l 7.988,50.2148 c -2.187,1.3985 -5.585,3.1954 -10.996,3.1954 -15.195,0 -28.203,-13 -28.203,-42.4024 0,-12.6094 5.196,-18.8086 13.399,-18.8086 z m 38.613,-18.60546 -23.008,0 1.797,11.60156 -0.391,0 C 424.809,9.80469 417.016,0 401,0 c -16.191,0 -28.789,11.6016 -28.789,40.2148 0,39.8047 25.195,62.0122 52.402,62.0122 12.793,0 19.004,-5.2036 22.012,-7.8012 l 5.801,5.3984 12.402,0 -15.41,-97.42186" /><path
         id="path64"
         style="fill:#254aa5;fill-opacity:1;fill-rule:nonzero;stroke:none"
         d="m 517.602,4.60156 c -2.403,-1.39843 -8.204,-3.996091 -16.797,-3.996091 -13.614,0 -22.403,5.402341 -22.403,22.402331 0,4.1992 1.192,12.4024 3.203,24.8047 l 15,95.6175 25.411,2.207 -15.606,-97.8245 c -2.012,-12 -2.812,-18.2031 -2.812,-20.6055 0,-5.6054 2.011,-7.1953 6.211,-7.1953 3.593,0 5.8,0.9961 7.187,1.3946 l 0.606,-16.80474" /><path
         id="path66"
         style="fill:#254aa5;fill-opacity:1;fill-rule:nonzero;stroke:none"
         d="m 595.414,80.0195 -22.422,0 -5.39,-33.8086 c -0.997,-6.3945 -1.797,-11.7968 -1.797,-15 0,-7.6054 3.398,-10.2031 9.004,-10.2031 5.195,0 7.988,1.3945 9.589,2.1953 l 1.797,-18.39841 c -2.793,-1.40625 -8.593,-4.406252 -19.59,-4.406252 -16.406,0 -26.21,8.007812 -26.21,27.011762 0,4.6015 1.191,11.6054 2.207,18.8007 l 5.39,33.8086 -13.008,0 3.008,17.2071 13.008,2.3906 7.207,26.8088 22.188,0 -4.395,-26.6018 22.813,0 -3.399,-19.8047" /><path
         id="path68"
         style="fill:#254aa5;fill-opacity:1;fill-rule:nonzero;stroke:none"
         d="m 630.785,60.6133 3.418,0 c 18.594,0 24.59,5.9961 24.59,15 0,5.4023 -3.398,8.0117 -7.793,8.0117 -8.594,0 -16.406,-8.0117 -20.215,-23.0117 z m 5.82,-16.4024 -7.812,0 0,-3 c 0,-14.4023 6.211,-20.6054 17.402,-20.6054 12.012,0 19.61,5.8008 22.207,8.2031 l 5.196,-17.8008 C 670.199,7.80469 661.195,0 641.996,0 c -23.008,0 -37.598,12.4023 -37.598,40.8125 0,40.2031 25.391,61.4145 51.602,61.4145 15,0 25,-8.2036 25,-24.0043 0,-23.0079 -18.594,-34.0118 -44.395,-34.0118" /><path
         id="path70"
         style="fill:#254aa5;fill-opacity:1;fill-rule:nonzero;stroke:none"
         d="m 780.805,53.418 -8.203,-51.01566 -25,0 8.203,51.01566 c 0.996,6.3984 1.601,11.3984 1.601,15 0,8.8008 -3.203,12.8047 -10.605,12.8047 -8.594,0 -15.606,-5 -19.61,-8.4102 l -10.996,-70.41016 -25,0 15.391,97.42186 22.812,0 -2.011,-12.8008 0.41,0 c 4.59,5.1954 14.609,15.2036 31.601,15.2036 15.215,0 23.614,-9.8051 23.614,-28.2114 0,-4.6015 -0.606,-11.3984 -2.207,-20.5976" /><path
         id="path72"
         style="fill:#254aa5;fill-opacity:1;fill-rule:nonzero;stroke:none"
         d="m 810.59,0 c -9.199,0 -15,5.80078 -15,15.2031 0,9.4063 5.801,15.2071 15,15.2071 9.004,0 15,-5.8008 15,-15.2071 C 825.59,5.80078 819.594,0 810.59,0" /></g></g></svg>