<?xml version="1.0" encoding="UTF-8" standalone="no"?>
<svg
   xmlns:dc="http://purl.org/dc/elements/1.1/"
   xmlns:cc="http://creativecommons.org/ns#"
   xmlns:rdf="http://www.w3.org/1999/02/22-rdf-syntax-ns#"
   xmlns:svg="http://www.w3.org/2000/svg"
   xmlns="http://www.w3.org/2000/svg"
   viewBox="0 0 62.087502 69.275002"
   height="69.275002"
   width="62.087502"
   xml:space="preserve"
   version="1.1"
   id="svg2"><metadata
     id="metadata8"><rdf:RDF><cc:Work
         rdf:about=""><dc:format>image/svg+xml</dc:format><dc:type
           rdf:resource="http://purl.org/dc/dcmitype/StillImage" /></cc:Work></rdf:RDF></metadata><defs
     id="defs6" /><g
     transform="matrix(1.25,0,0,-1.25,0,69.275)"
     id="g10"><g
       transform="scale(0.1,0.1)"
       id="g12"><path
         id="path14"
         style="fill:#231f20;fill-opacity:1;fill-rule:nonzero;stroke:none"
         d="m 1.48438,105.09 0,68.308 43.18362,0 0,-8.066 -33.9961,0 0,-18.719 31.664,0 0,-8.078 -31.664,0 0,-25.371 33.9961,0 0,-8.074 -43.18362,0" /><path
         id="path16"
         style="fill:#231f20;fill-opacity:1;fill-rule:nonzero;stroke:none"
         d="m 94.4141,105.09 -8.711,0 0,5.699 c -2.6953,-2.332 -5.2422,-4.09 -7.6484,-5.309 -2.4297,-1.203 -5.1133,-1.808 -8.0859,-1.808 -2.254,0 -4.375,0.371 -6.3672,1.113 -2,0.711 -3.7305,1.887 -5.2227,3.469 -1.4844,1.59 -2.625,3.594 -3.457,6.004 -0.8203,2.422 -1.2188,5.359 -1.2188,8.816 l 0,33.266 8.7188,0 0,-29.184 c 0,-2.711 0.0976,-4.968 0.2929,-6.765 0.2149,-1.786 0.6524,-3.352 1.379,-4.696 0.6992,-1.32 1.6796,-2.277 2.8867,-2.89 1.2226,-0.617 2.9726,-0.918 5.2656,-0.918 2.1406,0 4.4062,0.593 6.8164,1.785 2.4102,1.191 4.6172,2.656 6.6406,4.402 l 0,38.266 8.711,0 0,-51.25" /><path
         id="path18"
         style="fill:#231f20;fill-opacity:1;fill-rule:nonzero;stroke:none"
         d="m 134.473,147.07 -0.469,0 c -0.645,0.196 -1.316,0.301 -2.051,0.34 -0.73,0.051 -1.609,0.078 -2.617,0.078 -2.363,0 -4.695,-0.504 -7.012,-1.519 -2.312,-1.02 -4.519,-2.5 -6.582,-4.485 l 0,-36.394 -8.722,0 0,51.25 8.722,0 0,-7.617 c 3.184,2.781 5.957,4.754 8.321,5.879 2.375,1.16 4.667,1.738 6.882,1.738 0.903,0 1.582,-0.02 2.024,-0.07 0.449,-0.047 0.945,-0.11 1.504,-0.204 l 0,-8.996" /><path
         id="path20"
         style="fill:#231f20;fill-opacity:1;fill-rule:nonzero;stroke:none"
         d="m 174.402,130.695 c 0,6.629 -1.226,11.563 -3.66,14.793 -2.453,3.223 -5.929,4.836 -10.437,4.836 -4.551,0 -8.039,-1.613 -10.508,-4.836 -2.453,-3.23 -3.684,-8.164 -3.684,-14.793 0,-6.425 1.231,-11.289 3.684,-14.621 2.469,-3.308 5.957,-4.961 10.508,-4.961 4.48,0 7.949,1.621 10.398,4.875 2.473,3.258 3.699,8.164 3.699,14.707 z m 8.996,0 c 0,-8.632 -2.097,-15.285 -6.308,-19.98 -4.207,-4.707 -9.805,-7.043 -16.785,-7.043 -7.2,0 -12.864,2.414 -16.992,7.266 -4.133,4.843 -6.196,11.445 -6.196,19.757 0,8.563 2.121,15.203 6.367,19.95 4.258,4.738 9.868,7.109 16.821,7.109 6.98,0 12.578,-2.352 16.785,-7.09 4.211,-4.726 6.308,-11.387 6.308,-19.969" /><path
         id="path22"
         style="fill:#231f20;fill-opacity:1;fill-rule:nonzero;stroke:none"
         d="m 226.797,131.105 c 0,5.84 -0.938,10.379 -2.82,13.594 -1.899,3.223 -4.954,4.84 -9.192,4.84 -2.48,0 -4.875,-0.535 -7.168,-1.629 -2.297,-1.086 -4.48,-2.48 -6.562,-4.187 l 0,-29.043 c 2.297,-1.094 4.25,-1.836 5.879,-2.246 1.621,-0.395 3.476,-0.61 5.578,-0.61 4.508,0 8.023,1.645 10.523,4.922 2.512,3.285 3.762,8.059 3.762,14.359 z m 8.992,0.973 c 0,-8.551 -2.066,-15.34 -6.187,-20.406 -4.133,-5.059 -9.348,-7.59 -15.649,-7.59 -2.566,0 -4.844,0.293 -6.824,0.879 -1.965,0.574 -3.992,1.484 -6.074,2.703 l 0,-21.4648 -8.711,0 0,70.1408 8.711,0 0,-5.383 c 2.16,1.934 4.582,3.547 7.215,4.856 2.648,1.289 5.519,1.941 8.656,1.941 5.933,0 10.547,-2.324 13.875,-6.973 3.332,-4.648 4.988,-10.886 4.988,-18.703" /><path
         id="path24"
         style="fill:#231f20;fill-opacity:1;fill-rule:nonzero;stroke:none"
         d="m 277.234,164.91 -9.304,0 0,8.949 9.304,0 0,-8.949 z m -3.464,-47.207 0,14.231 c -2.082,-0.188 -4.688,-0.442 -7.864,-0.762 -3.164,-0.32 -5.718,-0.77 -7.676,-1.356 -2.312,-0.695 -4.238,-1.789 -5.742,-3.234 -1.511,-1.445 -2.273,-3.469 -2.273,-6.086 0,-2.926 0.84,-5.144 2.512,-6.637 1.66,-1.504 4.097,-2.246 7.324,-2.246 2.742,0 5.23,0.586 7.449,1.778 2.234,1.16 4.324,2.605 6.27,4.312 z m -15.672,47.207 -9.328,0 0,8.949 9.328,0 0,-8.949 z m 15.672,-54.344 c -0.723,-0.527 -1.661,-1.269 -2.864,-2.207 -1.179,-0.91 -2.332,-1.66 -3.445,-2.207 -1.543,-0.8 -3.035,-1.406 -4.473,-1.836 -1.445,-0.429 -3.449,-0.644 -6.054,-0.644 -2.137,0 -4.161,0.391 -6.075,1.191 -1.914,0.793 -3.601,1.907 -5.046,3.352 -1.399,1.402 -2.512,3.144 -3.352,5.203 -0.828,2.062 -1.238,4.23 -1.238,6.555 0,3.535 0.757,6.55 2.261,9.05 1.516,2.493 3.911,4.465 7.2,5.938 2.902,1.309 6.328,2.219 10.285,2.727 3.953,0.507 8.23,0.867 12.801,1.121 l 0,1.66 c 0,2.019 -0.313,3.644 -0.938,4.875 -0.613,1.238 -1.477,2.215 -2.59,2.871 -1.101,0.699 -2.469,1.172 -4.082,1.394 -1.597,0.227 -3.262,0.34 -4.961,0.34 -2.011,0 -4.375,-0.293 -7.09,-0.875 -2.722,-0.605 -5.457,-1.476 -8.164,-2.597 l -0.515,0 0,8.75 c 1.609,0.468 3.918,0.964 6.914,1.511 3,0.547 5.969,0.832 8.906,0.832 3.555,0 6.555,-0.285 8.992,-0.832 2.446,-0.547 4.641,-1.535 6.582,-2.976 1.899,-1.399 3.293,-3.227 4.231,-5.449 0.918,-2.239 1.379,-4.961 1.379,-8.165 l 0,-35.058 -8.664,0 0,5.476" /><path
         id="path26"
         style="fill:#231f20;fill-opacity:1;fill-rule:nonzero;stroke:none"
         d="m 303.574,105.09 -8.711,0 0,51.25 8.711,0 0,-51.25 z m 0.606,59.82 -9.922,0 0,8.949 9.922,0 0,-8.949" /><path
         id="path28"
         style="fill:#231f20;fill-opacity:1;fill-rule:nonzero;stroke:none"
         d="m 330.391,103.848 c -3.465,0 -6.7,0.468 -9.715,1.379 -3.02,0.925 -5.512,1.902 -7.5,2.937 l 0,9.68 0.469,0 c 0.75,-0.586 1.621,-1.223 2.625,-1.926 0.996,-0.703 2.335,-1.445 4.011,-2.195 1.477,-0.664 3.11,-1.282 4.887,-1.797 1.773,-0.528 3.621,-0.781 5.535,-0.781 1.399,0 2.883,0.156 4.465,0.488 1.562,0.312 2.754,0.722 3.523,1.211 1.075,0.703 1.856,1.453 2.344,2.246 0.481,0.789 0.711,2 0.711,3.57 0,2.063 -0.562,3.606 -1.687,4.629 -1.121,1.059 -3.133,1.926 -6.016,2.641 -1.105,0.269 -2.566,0.574 -4.355,0.945 -1.797,0.371 -3.45,0.781 -4.961,1.191 -3.957,1.153 -6.829,2.891 -8.622,5.254 -1.796,2.375 -2.687,5.235 -2.687,8.606 0,4.617 1.77,8.379 5.281,11.297 3.528,2.898 8.203,4.347 14.055,4.347 2.871,0 5.769,-0.363 8.672,-1.047 2.898,-0.71 5.344,-1.601 7.324,-2.664 l 0,-9.23 -0.457,0 c -2.238,1.758 -4.707,3.113 -7.453,4.133 -2.735,1.015 -5.488,1.519 -8.274,1.519 -2.878,0 -5.3,-0.593 -7.285,-1.793 -1.98,-1.183 -2.957,-3 -2.957,-5.414 0,-2.136 0.574,-3.738 1.758,-4.785 1.172,-1.051 3.059,-1.93 5.652,-2.605 1.301,-0.313 2.746,-0.645 4.336,-0.977 1.594,-0.312 3.266,-0.703 5.039,-1.133 3.821,-0.957 6.711,-2.508 8.645,-4.715 1.926,-2.207 2.898,-5.207 2.898,-8.996 0,-2.215 -0.449,-4.277 -1.328,-6.258 -0.879,-1.972 -2.176,-3.664 -3.863,-5.07 -1.856,-1.531 -3.945,-2.707 -6.281,-3.484 -2.344,-0.793 -5.274,-1.203 -8.789,-1.203" /><path
         id="path30"
         style="fill:#231f20;fill-opacity:1;fill-rule:nonzero;stroke:none"
         d="m 379.348,103.953 c -3.547,0 -6.809,0.539 -9.778,1.613 -2.968,1.094 -5.527,2.735 -7.656,4.942 -2.129,2.195 -3.789,4.972 -4.949,8.332 -1.195,3.348 -1.777,7.281 -1.777,11.797 0,4.519 0.613,8.386 1.832,11.66 1.222,3.269 2.863,6.016 4.894,8.262 2.039,2.234 4.59,3.945 7.637,5.156 3.047,1.199 6.308,1.816 9.797,1.816 2.847,0 5.593,-0.402 8.242,-1.191 2.637,-0.793 5,-1.723 7.058,-2.746 l 0,-9.688 -0.5,0 c -0.625,0.52 -1.421,1.114 -2.402,1.778 -0.965,0.683 -2.144,1.367 -3.531,2.058 -1.211,0.625 -2.641,1.156 -4.27,1.613 -1.64,0.481 -3.215,0.696 -4.734,0.696 -4.516,0 -8.137,-1.699 -10.871,-5.071 -2.735,-3.386 -4.11,-8.156 -4.11,-14.343 0,-6.047 1.329,-10.766 3.961,-14.145 2.649,-3.379 6.321,-5.078 11.02,-5.078 2.852,0 5.555,0.59 8.125,1.75 2.566,1.16 4.82,2.656 6.812,4.484 l 0.5,0 0,-9.652 c -0.859,-0.406 -1.945,-0.894 -3.253,-1.465 -1.278,-0.554 -2.469,-0.996 -3.512,-1.25 -1.488,-0.426 -2.805,-0.75 -3.988,-0.984 -1.18,-0.234 -2.684,-0.344 -4.547,-0.344" /><path
         id="path32"
         style="fill:#231f20;fill-opacity:1;fill-rule:nonzero;stroke:none"
         d="m 443.281,105.09 -8.711,0 0,29.187 c 0,2.356 -0.105,4.532 -0.351,6.582 -0.227,2.032 -0.664,3.664 -1.309,4.883 -0.722,1.27 -1.711,2.238 -2.969,2.863 -1.281,0.625 -3,0.934 -5.183,0.934 -2.18,0 -4.406,-0.562 -6.711,-1.715 -2.317,-1.144 -4.563,-2.648 -6.746,-4.472 l 0,-38.262 -8.723,0 0,71.387 8.723,0 0,-25.832 c 2.594,2.296 5.152,4.054 7.683,5.285 2.559,1.199 5.227,1.824 8.036,1.824 5.097,0 9.085,-1.649 11.964,-4.981 2.871,-3.308 4.297,-8.125 4.297,-14.421 l 0,-33.262" /><path
         id="path34"
         style="fill:#231f20;fill-opacity:1;fill-rule:nonzero;stroke:none"
         d="m 488.223,136.414 c -0.059,2.336 -0.332,4.34 -0.84,6.02 -0.488,1.687 -1.199,3.093 -2.117,4.265 -1.028,1.289 -2.336,2.266 -3.926,2.942 -1.594,0.664 -3.567,1.004 -5.91,1.004 -2.317,0 -4.285,-0.34 -5.918,-1.036 -1.621,-0.683 -3.094,-1.687 -4.422,-2.996 -1.301,-1.34 -2.297,-2.832 -2.981,-4.484 -0.671,-1.633 -1.101,-3.535 -1.289,-5.715 l 27.403,0 z M 478.02,103.906 c -8.247,0 -14.661,2.293 -19.219,6.914 -4.555,4.59 -6.836,11.133 -6.836,19.59 0,8.352 2.207,15 6.621,19.934 4.422,4.949 10.215,7.41 17.352,7.41 3.21,0 6.054,-0.469 8.535,-1.375 2.468,-0.918 4.636,-2.356 6.496,-4.309 1.844,-1.953 3.269,-4.367 4.258,-7.187 0.996,-2.832 1.484,-6.289 1.484,-10.379 l 0,-4.688 -35.891,0 c 0,-5.957 1.504,-10.507 4.539,-13.664 3.032,-3.156 7.231,-4.738 12.571,-4.738 1.914,0 3.8,0.219 5.633,0.649 1.835,0.425 3.507,0.996 4.992,1.66 1.574,0.691 2.898,1.375 3.984,2.039 1.082,0.664 1.973,1.277 2.688,1.855 l 0.503,0 0,-9.402 c -1.011,-0.391 -2.285,-0.899 -3.796,-1.485 -1.512,-0.609 -2.879,-1.074 -4.082,-1.417 -1.7,-0.45 -3.235,-0.801 -4.622,-1.036 -1.367,-0.254 -3.113,-0.371 -5.21,-0.371" /><path
         id="path36"
         style="fill:#231f20;fill-opacity:1;fill-rule:nonzero;stroke:none"
         d="M 25.5938,0 C 21.543,0 18.0078,0.535156 14.9688,1.59375 11.9453,2.63672 9.36328,4.21094 7.22656,6.28906 4.82422,8.67188 3.125,11.5234 2.12891,14.8555 1.15234,18.1641 0.644531,22.2578 0.644531,27.1094 l 0,42.6289 9.187499,0 0,-42.6289 c 0,-3.1446 0.19927,-5.7891 0.60937,-7.9492 0.3906,-2.168 1.1797,-4.0899 2.3516,-5.8008 1.25,-1.836 2.9218,-3.2305 5.039,-4.17971 2.1211,-0.94531 4.7071,-1.4375 7.7618,-1.4375 2.875,0 5.4218,0.49219 7.6601,1.4375 2.2227,0.94921 3.9531,2.34371 5.1836,4.17971 1.1445,1.7304 1.9219,3.664 2.3516,5.7734 0.414,2.1055 0.625,4.6875 0.625,7.7539 l 0,42.8516 9.1797,0 0,-42.6289 c 0,-4.7266 -0.4883,-8.8086 -1.461,-12.1992 C 48.1563,11.5234 46.457,8.64453 44.0039,6.28906 41.8047,4.19141 39.2461,2.59766 36.3281,1.5625 33.4063,0.527344 29.8242,0 25.5938,0" /><path
         id="path38"
         style="fill:#231f20;fill-opacity:1;fill-rule:nonzero;stroke:none"
         d="m 103.77,1.42578 -8.7231,0 0,29.17972 c 0,2.3554 -0.1055,4.5312 -0.3399,6.582 -0.2265,2.043 -0.6718,3.6641 -1.3164,4.8828 -0.7148,1.2813 -1.6992,2.2383 -2.9726,2.8711 -1.2657,0.6172 -3.0078,0.9375 -5.1953,0.9375 -2.1563,0 -4.3829,-0.5742 -6.6954,-1.7187 -2.3085,-1.1524 -4.5546,-2.6563 -6.7421,-4.4805 l 0,-38.25392 -8.7305,0 0,51.23832 8.7305,0 0,-5.6797 c 2.5898,2.2929 5.1601,4.0429 7.6875,5.2734 2.539,1.211 5.2148,1.836 8.0156,1.836 5.1094,0 9.0937,-1.6602 11.9765,-4.9922 2.8792,-3.3125 4.3052,-8.1133 4.3052,-14.4219 l 0,-33.25392" /><path
         id="path40"
         style="fill:#231f20;fill-opacity:1;fill-rule:nonzero;stroke:none"
         d="m 124.91,1.42578 -8.711,0 0,51.23832 8.711,0 0,-51.23832 z m 0.61,59.82422 -9.922,0 0,8.9375 9.922,0 0,-8.9375" /><path
         id="path42"
         style="fill:#231f20;fill-opacity:1;fill-rule:nonzero;stroke:none"
         d="m 171.34,27.0234 c 0,6.6368 -1.223,11.5625 -3.676,14.793 -2.43,3.2344 -5.918,4.8359 -10.43,4.8359 -4.539,0 -8.046,-1.6015 -10.496,-4.8359 -2.453,-3.2305 -3.691,-8.1562 -3.691,-14.793 0,-6.4257 1.238,-11.289 3.691,-14.6211 2.45,-3.30855 5.957,-4.96089 10.496,-4.96089 4.485,0 7.961,1.63281 10.411,4.88279 2.46,3.2617 3.695,8.1563 3.695,14.6992 z m 9.004,0 c 0,-8.625 -2.114,-15.2851 -6.313,-19.97262 C 169.813,2.34375 164.219,0 157.234,0 c -7.195,0 -12.871,2.42188 -16.992,7.27734 -4.129,4.83206 -6.187,11.43356 -6.187,19.74606 0,8.5625 2.129,15.2032 6.375,19.961 4.25,4.7265 9.851,7.1094 16.804,7.1094 6.985,0 12.579,-2.3633 16.797,-7.0821 4.199,-4.7461 6.313,-11.3984 6.313,-19.9883" /><path
         id="path44"
         style="fill:#231f20;fill-opacity:1;fill-rule:nonzero;stroke:none"
         d="m 229.988,1.42578 -8.718,0 0,29.17972 c 0,2.3554 -0.118,4.5312 -0.34,6.582 -0.227,2.043 -0.676,3.6641 -1.321,4.8828 -0.722,1.2813 -1.699,2.2383 -2.968,2.8711 -1.282,0.6172 -2.996,0.9375 -5.188,0.9375 -2.176,0 -4.402,-0.5742 -6.707,-1.7187 -2.305,-1.1524 -4.558,-2.6563 -6.75,-4.4805 l 0,-38.25392 -8.719,0 0,51.23832 8.719,0 0,-5.6797 c 2.59,2.2929 5.156,4.0429 7.695,5.2734 2.539,1.211 5.215,1.836 8.02,1.836 5.098,0 9.094,-1.6602 11.973,-4.9922 2.871,-3.3125 4.304,-8.1133 4.304,-14.4219 l 0,-33.25392" /><path
         id="path46"
         style="fill:#254aa5;fill-opacity:1;fill-rule:nonzero;stroke:none"
         d="m 0,554.219 496.063,0 0,-330.711 -496.063,0 0,330.711" /><path
         id="path48"
         style="fill:#fff200;fill-opacity:1;fill-rule:nonzero;stroke:none"
         d="m 151.797,465.895 4.101,-11.723 12.481,-0.25 -9.934,-7.5 3.606,-11.887 -10.254,7.09 -10.234,-7.09 3.613,11.887 -9.942,7.5 12.469,0.25 4.094,11.723 0,0" /><path
         id="path50"
         style="fill:#fff200;fill-opacity:1;fill-rule:nonzero;stroke:none"
         d="m 151.797,465.895 4.101,-11.723 12.481,-0.25 -9.934,-7.5 3.606,-11.887 -10.254,7.09 -10.234,-7.09 3.613,11.887 -9.942,7.5 12.469,0.25 4.094,11.723 0,0" /><path
         id="path52"
         style="fill:#fff200;fill-opacity:1;fill-rule:nonzero;stroke:none"
         d="m 192.371,506.246 4.094,-11.719 12.5,-0.257 -9.949,-7.497 3.613,-11.878 -10.258,7.089 -10.23,-7.089 3.621,11.878 -9.961,7.497 12.488,0.257 4.082,11.719 0,0" /><path
         id="path54"
         style="fill:#fff200;fill-opacity:1;fill-rule:nonzero;stroke:none"
         d="m 192.371,506.246 4.094,-11.719 12.5,-0.257 -9.949,-7.497 3.613,-11.878 -10.258,7.089 -10.23,-7.089 3.621,11.878 -9.961,7.497 12.488,0.257 4.082,11.719 0,0" /><path
         id="path56"
         style="fill:#fff200;fill-opacity:1;fill-rule:nonzero;stroke:none"
         d="m 248.289,520.918 4.094,-11.723 12.48,-0.25 -9.953,-7.5 3.625,-11.879 -10.246,7.09 -10.242,-7.09 3.613,11.879 -9.941,7.5 12.469,0.25 4.101,11.723 0,0" /><path
         id="path58"
         style="fill:#fff200;fill-opacity:1;fill-rule:nonzero;stroke:none"
         d="m 248.289,520.918 4.094,-11.723 12.48,-0.25 -9.953,-7.5 3.625,-11.879 -10.246,7.09 -10.242,-7.09 3.613,11.879 -9.941,7.5 12.469,0.25 4.101,11.723 0,0" /><path
         id="path60"
         style="fill:#fff200;fill-opacity:1;fill-rule:nonzero;stroke:none"
         d="m 303.66,506.246 4.106,-11.719 12.476,-0.257 -9.937,-7.497 3.621,-11.878 -10.266,7.089 -10.222,-7.089 3.601,11.878 -9.937,7.497 12.468,0.257 4.09,11.719 0,0" /><path
         id="path62"
         style="fill:#fff200;fill-opacity:1;fill-rule:nonzero;stroke:none"
         d="m 303.66,506.246 4.106,-11.719 12.476,-0.257 -9.937,-7.497 3.621,-11.878 -10.266,7.089 -10.222,-7.089 3.601,11.878 -9.937,7.497 12.468,0.257 4.09,11.719 0,0" /><path
         id="path64"
         style="fill:#fff200;fill-opacity:1;fill-rule:nonzero;stroke:none"
         d="m 344.246,465.895 4.113,-11.723 12.461,-0.25 -9.941,-7.5 3.625,-11.887 -10.258,7.09 -10.23,-7.09 3.601,11.887 -9.929,7.5 12.457,0.25 4.101,11.723 0,0" /><path
         id="path66"
         style="fill:#fff200;fill-opacity:1;fill-rule:nonzero;stroke:none"
         d="m 344.246,465.895 4.113,-11.723 12.461,-0.25 -9.941,-7.5 3.625,-11.887 -10.258,7.09 -10.23,-7.09 3.601,11.887 -9.929,7.5 12.457,0.25 4.101,11.723 0,0" /><path
         id="path68"
         style="fill:#fff200;fill-opacity:1;fill-rule:nonzero;stroke:none"
         d="m 359.016,408.734 4.082,-11.726 12.488,-0.254 -9.961,-7.496 3.621,-11.879 -10.23,7.078 -10.254,-7.086 3.609,11.875 -9.949,7.508 12.473,0.254 4.121,11.726 0,0" /><path
         id="path70"
         style="fill:#fff200;fill-opacity:1;fill-rule:nonzero;stroke:none"
         d="m 359.016,408.734 4.082,-11.726 12.488,-0.254 -9.961,-7.496 3.621,-11.879 -10.23,7.078 -10.254,-7.086 3.609,11.875 -9.949,7.508 12.473,0.254 4.121,11.726 0,0" /><path
         id="path72"
         style="fill:#fff200;fill-opacity:1;fill-rule:nonzero;stroke:none"
         d="m 344.246,354 4.113,-11.711 12.461,-0.254 -9.941,-7.5 3.625,-11.879 -10.258,7.09 -10.23,-7.09 3.601,11.879 -9.929,7.5 12.457,0.254 4.101,11.711 0,0" /><path
         id="path74"
         style="fill:#fff200;fill-opacity:1;fill-rule:nonzero;stroke:none"
         d="m 344.246,354 4.113,-11.711 12.461,-0.254 -9.941,-7.5 3.625,-11.879 -10.258,7.09 -10.23,-7.09 3.601,11.879 -9.929,7.5 12.457,0.254 4.101,11.711 0,0" /><path
         id="path76"
         style="fill:#fff200;fill-opacity:1;fill-rule:nonzero;stroke:none"
         d="m 303.66,312.133 4.106,-11.723 12.476,-0.254 -9.937,-7.508 3.621,-11.867 -10.266,7.082 -10.222,-7.082 3.601,11.867 -9.937,7.508 12.468,0.254 4.09,11.723 0,0" /><path
         id="path78"
         style="fill:#fff200;fill-opacity:1;fill-rule:nonzero;stroke:none"
         d="m 303.66,312.133 4.106,-11.723 12.476,-0.254 -9.937,-7.508 3.621,-11.867 -10.266,7.082 -10.222,-7.082 3.601,11.867 -9.937,7.508 12.468,0.254 4.09,11.723 0,0" /><path
         id="path80"
         style="fill:#fff200;fill-opacity:1;fill-rule:nonzero;stroke:none"
         d="m 248.289,297.141 4.094,-11.711 12.48,-0.254 -9.953,-7.5 3.625,-11.875 -10.246,7.082 -10.242,-7.082 3.613,11.875 -9.941,7.5 12.469,0.254 4.101,11.711 0,0" /><path
         id="path82"
         style="fill:#fff200;fill-opacity:1;fill-rule:nonzero;stroke:none"
         d="m 248.289,297.141 4.094,-11.711 12.48,-0.254 -9.953,-7.5 3.625,-11.875 -10.246,7.082 -10.242,-7.082 3.613,11.875 -9.941,7.5 12.469,0.254 4.101,11.711 0,0" /><path
         id="path84"
         style="fill:#fff200;fill-opacity:1;fill-rule:nonzero;stroke:none"
         d="m 192.371,312.133 4.094,-11.723 12.5,-0.254 -9.949,-7.508 3.613,-11.867 -10.258,7.082 -10.23,-7.082 3.621,11.867 -9.961,7.508 12.488,0.254 4.082,11.723 0,0" /><path
         id="path86"
         style="fill:#fff200;fill-opacity:1;fill-rule:nonzero;stroke:none"
         d="m 192.371,312.133 4.094,-11.723 12.5,-0.254 -9.949,-7.508 3.613,-11.867 -10.258,7.082 -10.23,-7.082 3.621,11.867 -9.961,7.508 12.488,0.254 4.082,11.723 0,0" /><path
         id="path88"
         style="fill:#fff200;fill-opacity:1;fill-rule:nonzero;stroke:none"
         d="m 151.797,354 4.101,-11.711 12.481,-0.254 -9.934,-7.5 3.606,-11.879 -10.254,7.09 -10.234,-7.09 3.613,11.879 -9.942,7.5 12.469,0.254 4.094,11.711 0,0" /><path
         id="path90"
         style="fill:#fff200;fill-opacity:1;fill-rule:nonzero;stroke:none"
         d="m 151.797,354 4.101,-11.711 12.481,-0.254 -9.934,-7.5 3.606,-11.879 -10.254,7.09 -10.234,-7.09 3.613,11.879 -9.942,7.5 12.469,0.254 4.094,11.711 0,0" /><path
         id="path92"
         style="fill:#fff200;fill-opacity:1;fill-rule:nonzero;stroke:none"
         d="m 137.051,408.734 4.101,-11.726 12.469,-0.254 -9.937,-7.496 3.601,-11.879 -10.234,7.078 -10.254,-7.086 3.613,11.875 -9.941,7.508 12.469,0.254 4.113,11.726 0,0" /><path
         id="path94"
         style="fill:#fff200;fill-opacity:1;fill-rule:nonzero;stroke:none"
         d="m 137.051,408.734 4.101,-11.726 12.469,-0.254 -9.937,-7.496 3.601,-11.879 -10.234,7.078 -10.254,-7.086 3.613,11.875 -9.941,7.508 12.469,0.254 4.113,11.726 0,0" /></g></g></svg>