<?xml version="1.0" encoding="utf-8"?>
<!-- Generator: Adobe Illustrator 15.0.2, SVG Export Plug-In . SVG Version: 6.00 Build 0)  -->
<!DOCTYPE svg PUBLIC "-//W3C//DTD SVG 1.1//EN" "http://www.w3.org/Graphics/SVG/1.1/DTD/svg11.dtd">
<svg version="1.1" id="Layer_1" xmlns="http://www.w3.org/2000/svg" xmlns:xlink="http://www.w3.org/1999/xlink" x="0px" y="0px"
	 width="563.702px" height="170.848px" viewBox="0 0 563.702 170.848" enable-background="new 0 0 563.702 170.848"
	 xml:space="preserve">
<g>
	<g>
		<rect x="25.793" y="103.426" fill="#FFFFFF" width="66.72" height="17.113"/>
		<path fill="#FFFFFF" d="M92.513,75.699h-25.88V8.763c0.061-0.386,0.101-0.777,0.101-1.181C66.733,3.395,63.34,0,59.153,0
			c-4.188,0-7.582,3.395-7.582,7.582c0,0.193,0.015,0.383,0.029,0.572v67.545H40.956V7.582C40.956,3.395,37.561,0,33.374,0
			c-4.188,0-7.581,3.395-7.581,7.582v85.23h66.72V75.699z"/>
		<path fill="#FFFFFF" d="M118.292,72.67c0-4.188-3.394-7.582-7.582-7.582c-4.187,0-7.581,3.395-7.581,7.582v39.025h-0.014
			c0,24.241-19.722,43.963-43.962,43.963c-24.241,0-43.963-19.722-43.963-43.963h-0.015V18.198c0-0.001,0-0.001,0-0.001
			c0-4.188-3.394-7.582-7.58-7.582c-4.188,0-7.582,3.395-7.582,7.582c0,0,0,0,0,0.001v93.497H0
			c0,32.616,26.536,59.152,59.153,59.152c32.616,0,59.152-26.536,59.152-59.152h-0.014V72.67z"/>
		<path fill="#FFFFFF" d="M92.513,18.198C92.513,18.197,92.513,18.197,92.513,18.198c0-4.188-3.394-7.583-7.581-7.583
			c-4.187,0-7.582,3.395-7.582,7.582c0,0,0,0,0,0.001v46.89h15.163V18.198z"/>
	</g>
	<g>
		<path fill="#FFFFFF" d="M157.096,119.299c0,0.23-0.074,0.438-0.225,0.621c-0.148,0.184-0.395,0.332-0.74,0.447
			c-0.344,0.115-0.803,0.205-1.375,0.275c-0.574,0.068-1.309,0.102-2.203,0.102c-0.871,0-1.6-0.033-2.186-0.102
			c-0.584-0.07-1.049-0.16-1.393-0.275s-0.592-0.264-0.74-0.447c-0.15-0.184-0.225-0.391-0.225-0.621V77.25
			c0-0.23,0.074-0.436,0.225-0.621c0.148-0.182,0.4-0.332,0.758-0.447c0.355-0.113,0.818-0.205,1.393-0.275
			c0.574-0.068,1.297-0.102,2.168-0.102c0.895,0,1.629,0.033,2.203,0.102c0.572,0.07,1.031,0.162,1.375,0.275
			c0.346,0.115,0.592,0.266,0.74,0.447c0.15,0.186,0.225,0.391,0.225,0.621V119.299z"/>
		<path fill="#FFFFFF" d="M195.602,119.369c0,0.229-0.068,0.43-0.205,0.602c-0.139,0.172-0.367,0.316-0.689,0.43
			c-0.32,0.115-0.762,0.201-1.324,0.258c-0.563,0.059-1.256,0.086-2.082,0.086c-0.85,0-1.555-0.027-2.117-0.086
			c-0.563-0.057-1.004-0.143-1.324-0.258c-0.322-0.113-0.551-0.258-0.688-0.43c-0.139-0.172-0.207-0.373-0.207-0.602v-17.516
			c0-1.492-0.109-2.662-0.326-3.51c-0.219-0.85-0.533-1.578-0.947-2.186c-0.412-0.607-0.945-1.078-1.6-1.41
			c-0.654-0.334-1.418-0.5-2.289-0.5c-1.102,0-2.213,0.402-3.338,1.205c-1.123,0.803-2.293,1.973-3.51,3.51v20.406
			c0,0.229-0.068,0.43-0.207,0.602c-0.137,0.172-0.373,0.316-0.705,0.43c-0.332,0.115-0.773,0.201-1.324,0.258
			c-0.551,0.059-1.25,0.086-2.1,0.086s-1.549-0.027-2.1-0.086c-0.549-0.057-0.992-0.143-1.324-0.258
			c-0.332-0.113-0.568-0.258-0.705-0.43c-0.139-0.172-0.207-0.373-0.207-0.602V88.674c0-0.229,0.057-0.43,0.172-0.602
			c0.115-0.174,0.322-0.316,0.619-0.432c0.299-0.113,0.684-0.199,1.154-0.258c0.469-0.057,1.061-0.086,1.771-0.086
			c0.734,0,1.342,0.029,1.824,0.086c0.48,0.059,0.854,0.145,1.117,0.258c0.264,0.115,0.453,0.258,0.568,0.432
			c0.115,0.172,0.172,0.373,0.172,0.602v3.545c1.697-1.836,3.424-3.213,5.18-4.131c1.754-0.916,3.584-1.375,5.488-1.375
			c2.088,0,3.848,0.344,5.281,1.031c1.434,0.689,2.594,1.623,3.477,2.805s1.52,2.564,1.91,4.146
			c0.389,1.584,0.584,3.488,0.584,5.713V119.369z"/>
		<path fill="#FFFFFF" d="M234.075,119.369c0,0.229-0.068,0.43-0.207,0.602c-0.137,0.172-0.367,0.316-0.688,0.43
			c-0.322,0.115-0.764,0.201-1.326,0.258c-0.563,0.059-1.256,0.086-2.082,0.086c-0.848,0-1.553-0.027-2.115-0.086
			c-0.563-0.057-1.004-0.143-1.324-0.258c-0.322-0.113-0.551-0.258-0.689-0.43c-0.137-0.172-0.205-0.373-0.205-0.602v-19.274
			l8.637-5.571h-20.027v24.846c0,0.229-0.068,0.43-0.207,0.602c-0.137,0.172-0.367,0.316-0.688,0.43
			c-0.322,0.115-0.764,0.201-1.326,0.258c-0.563,0.059-1.268,0.086-2.115,0.086c-0.826,0-1.52-0.027-2.082-0.086
			c-0.563-0.057-1.01-0.143-1.342-0.258c-0.334-0.113-0.563-0.258-0.689-0.43c-0.125-0.172-0.188-0.373-0.188-0.602V94.523h-3.855
			c-0.436,0-0.762-0.27-0.98-0.809s-0.326-1.439-0.326-2.701c0-0.666,0.027-1.227,0.086-1.686c0.057-0.459,0.137-0.82,0.24-1.084
			s0.24-0.453,0.414-0.568c0.172-0.115,0.371-0.172,0.602-0.172h3.82v-2.719c0-2.088,0.211-3.91,0.635-5.471
			c0.426-1.561,1.072-2.861,1.945-3.906c0.871-1.043,1.973-1.824,3.303-2.34s2.902-0.775,4.715-0.775
			c0.504,0,1.016,0.023,1.531,0.07c0.516,0.045,1.004,0.115,1.463,0.205c0.459,0.092,0.859,0.195,1.205,0.311
			c0.344,0.115,0.578,0.236,0.705,0.361c0.125,0.127,0.229,0.27,0.309,0.43s0.15,0.367,0.207,0.619
			c0.057,0.254,0.098,0.58,0.121,0.98c0.021,0.402,0.033,0.902,0.033,1.498c0,1.102-0.063,1.875-0.189,2.322
			c-0.125,0.447-0.373,0.672-0.738,0.672c-0.139,0-0.293-0.023-0.465-0.07c-0.172-0.045-0.379-0.102-0.619-0.172
			c-0.242-0.068-0.523-0.131-0.844-0.189c-0.322-0.057-0.723-0.086-1.205-0.086c-1.215,0-2.098,0.414-2.648,1.24
			s-0.826,2.189-0.826,4.094v2.926h17.412c0.871,0,1.525,0.189,1.961,0.568c0.436,0.377,0.654,0.98,0.654,1.807V119.369z
			 M234.729,78.35c0,0.85-0.076,1.566-0.225,2.15c-0.148,0.586-0.408,1.057-0.773,1.412c-0.367,0.355-0.867,0.607-1.498,0.756
			c-0.631,0.15-1.416,0.225-2.357,0.225c-0.939,0-1.732-0.074-2.373-0.225c-0.643-0.148-1.154-0.4-1.531-0.756
			c-0.379-0.355-0.643-0.826-0.793-1.412c-0.148-0.584-0.223-1.301-0.223-2.15c0-0.826,0.074-1.525,0.223-2.098
			c0.15-0.574,0.414-1.045,0.793-1.412c0.377-0.367,0.889-0.631,1.531-0.791c0.641-0.16,1.434-0.24,2.373-0.24
			c0.941,0,1.727,0.08,2.357,0.24s1.131,0.424,1.498,0.791c0.365,0.367,0.625,0.838,0.773,1.412
			C234.653,76.824,234.729,77.523,234.729,78.35z"/>
		<path fill="#FFFFFF" d="M272.098,119.369c0,0.229-0.068,0.43-0.205,0.602c-0.139,0.172-0.367,0.316-0.689,0.43
			c-0.32,0.115-0.762,0.201-1.324,0.258c-0.563,0.059-1.256,0.086-2.082,0.086c-0.85,0-1.555-0.027-2.117-0.086
			c-0.563-0.057-1.004-0.143-1.324-0.258c-0.322-0.113-0.551-0.258-0.688-0.43c-0.139-0.172-0.207-0.373-0.207-0.602v-17.516
			c0-1.492-0.109-2.662-0.326-3.51c-0.219-0.85-0.533-1.578-0.947-2.186c-0.412-0.607-0.945-1.078-1.6-1.41
			c-0.654-0.334-1.418-0.5-2.289-0.5c-1.102,0-2.213,0.402-3.338,1.205c-1.123,0.803-2.293,1.973-3.51,3.51v20.406
			c0,0.229-0.068,0.43-0.207,0.602c-0.137,0.172-0.373,0.316-0.705,0.43c-0.332,0.115-0.773,0.201-1.324,0.258
			c-0.551,0.059-1.25,0.086-2.1,0.086s-1.549-0.027-2.1-0.086c-0.549-0.057-0.992-0.143-1.324-0.258
			c-0.332-0.113-0.568-0.258-0.705-0.43c-0.139-0.172-0.207-0.373-0.207-0.602V88.674c0-0.229,0.057-0.43,0.172-0.602
			c0.115-0.174,0.322-0.316,0.619-0.432c0.299-0.113,0.684-0.199,1.154-0.258c0.469-0.057,1.061-0.086,1.771-0.086
			c0.734,0,1.342,0.029,1.824,0.086c0.48,0.059,0.854,0.145,1.117,0.258c0.264,0.115,0.453,0.258,0.568,0.432
			c0.115,0.172,0.172,0.373,0.172,0.602v3.545c1.697-1.836,3.424-3.213,5.18-4.131c1.754-0.916,3.584-1.375,5.488-1.375
			c2.088,0,3.848,0.344,5.281,1.031c1.434,0.689,2.594,1.623,3.477,2.805s1.52,2.564,1.91,4.146
			c0.389,1.584,0.584,3.488,0.584,5.713V119.369z"/>
		<path fill="#FFFFFF" d="M289.924,78.281c0,1.744-0.355,2.947-1.066,3.613c-0.713,0.666-2.031,0.998-3.957,0.998
			c-1.951,0-3.264-0.32-3.941-0.963c-0.676-0.643-1.016-1.801-1.016-3.477c0-1.742,0.35-2.953,1.051-3.631
			c0.699-0.676,2.023-1.014,3.975-1.014c1.926,0,3.234,0.326,3.922,0.98C289.581,75.443,289.924,76.607,289.924,78.281z
			 M289.27,119.369c0,0.229-0.068,0.43-0.207,0.602c-0.137,0.172-0.373,0.316-0.705,0.43c-0.332,0.115-0.773,0.201-1.324,0.258
			c-0.551,0.059-1.25,0.086-2.1,0.086s-1.549-0.027-2.1-0.086c-0.549-0.057-0.992-0.143-1.324-0.258
			c-0.332-0.113-0.568-0.258-0.705-0.43c-0.139-0.172-0.207-0.373-0.207-0.602V88.742c0-0.229,0.068-0.43,0.207-0.602
			c0.137-0.172,0.373-0.322,0.705-0.447c0.332-0.127,0.775-0.225,1.324-0.293c0.551-0.068,1.25-0.104,2.1-0.104
			s1.549,0.035,2.1,0.104s0.992,0.166,1.324,0.293c0.332,0.125,0.568,0.275,0.705,0.447c0.139,0.172,0.207,0.373,0.207,0.602
			V119.369z"/>
		<path fill="#FFFFFF" d="M316.077,116.34c0,1.01-0.064,1.785-0.189,2.324c-0.127,0.539-0.293,0.916-0.5,1.135
			c-0.205,0.219-0.51,0.412-0.91,0.584c-0.402,0.174-0.873,0.322-1.412,0.449c-0.539,0.125-1.123,0.223-1.754,0.291
			c-0.633,0.07-1.268,0.104-1.91,0.104c-1.721,0-3.213-0.219-4.475-0.654s-2.305-1.105-3.131-2.012s-1.434-2.049-1.824-3.424
			c-0.391-1.377-0.584-3.006-0.584-4.887V94.523h-3.682c-0.438,0-0.77-0.27-0.998-0.809c-0.23-0.539-0.346-1.439-0.346-2.701
			c0-0.666,0.029-1.227,0.088-1.686c0.057-0.459,0.143-0.82,0.258-1.084c0.113-0.264,0.258-0.453,0.43-0.568
			s0.373-0.172,0.602-0.172h3.648v-6.848c0-0.23,0.063-0.436,0.189-0.619c0.125-0.184,0.355-0.34,0.688-0.465
			c0.332-0.127,0.779-0.219,1.342-0.275s1.256-0.086,2.082-0.086c0.85,0,1.555,0.029,2.117,0.086
			c0.561,0.057,1.002,0.148,1.324,0.275c0.32,0.125,0.551,0.281,0.688,0.465c0.139,0.184,0.207,0.389,0.207,0.619v6.848h6.676
			c0.229,0,0.43,0.057,0.602,0.172c0.174,0.115,0.316,0.305,0.432,0.568c0.113,0.264,0.199,0.625,0.258,1.084
			c0.057,0.459,0.086,1.02,0.086,1.686c0,1.262-0.115,2.162-0.344,2.701c-0.23,0.539-0.563,0.809-0.998,0.809h-6.711v14.418
			c0,1.676,0.264,2.932,0.791,3.77c0.527,0.836,1.469,1.256,2.822,1.256c0.459,0,0.871-0.041,1.238-0.121s0.693-0.172,0.98-0.275
			s0.527-0.195,0.723-0.275s0.373-0.121,0.535-0.121c0.137,0,0.268,0.041,0.395,0.121s0.225,0.24,0.293,0.482
			c0.068,0.24,0.131,0.566,0.189,0.98C316.047,115.17,316.077,115.699,316.077,116.34z"/>
		<path fill="#FFFFFF" d="M349.833,103.127c0,1.055-0.234,1.836-0.705,2.34s-1.117,0.756-1.943,0.756h-18.686
			c0,1.309,0.154,2.496,0.465,3.563c0.309,1.066,0.803,1.973,1.479,2.719c0.678,0.746,1.549,1.313,2.615,1.703
			c1.068,0.391,2.346,0.584,3.838,0.584c1.514,0,2.844-0.107,3.992-0.326c1.146-0.217,2.139-0.459,2.977-0.723
			c0.836-0.264,1.531-0.504,2.082-0.723c0.549-0.217,0.996-0.326,1.342-0.326c0.205,0,0.377,0.039,0.516,0.119
			c0.137,0.082,0.252,0.225,0.344,0.432c0.092,0.205,0.154,0.498,0.189,0.877s0.051,0.855,0.051,1.428
			c0,0.506-0.012,0.936-0.033,1.291c-0.023,0.355-0.059,0.66-0.104,0.912c-0.047,0.252-0.115,0.463-0.207,0.637
			c-0.092,0.172-0.211,0.338-0.361,0.498c-0.148,0.16-0.557,0.379-1.221,0.654c-0.666,0.275-1.514,0.545-2.547,0.809
			s-2.215,0.492-3.545,0.688s-2.752,0.293-4.266,0.293c-2.73,0-5.123-0.344-7.176-1.033c-2.053-0.688-3.768-1.73-5.145-3.131
			c-1.377-1.398-2.402-3.166-3.08-5.299c-0.676-2.133-1.014-4.635-1.014-7.502c0-2.73,0.354-5.189,1.066-7.381
			c0.711-2.191,1.742-4.049,3.096-5.574s3-2.689,4.939-3.494c1.938-0.803,4.123-1.203,6.555-1.203c2.568,0,4.766,0.377,6.59,1.135
			s3.32,1.807,4.49,3.148s2.031,2.932,2.582,4.766c0.549,1.836,0.824,3.832,0.824,5.988V103.127z M341.438,100.648
			c0.068-2.432-0.42-4.342-1.463-5.729c-1.045-1.389-2.656-2.082-4.836-2.082c-1.102,0-2.059,0.205-2.873,0.619
			c-0.814,0.412-1.492,0.969-2.029,1.668c-0.539,0.701-0.953,1.527-1.24,2.479s-0.453,1.967-0.498,3.045H341.438z"/>
		<path fill="#FFFFFF" d="M441.264,119.369c0,0.229-0.068,0.43-0.205,0.602c-0.139,0.172-0.367,0.316-0.689,0.43
			c-0.32,0.115-0.762,0.201-1.324,0.258c-0.563,0.059-1.256,0.086-2.082,0.086c-0.85,0-1.555-0.027-2.117-0.086
			c-0.563-0.057-1.004-0.143-1.324-0.258c-0.322-0.113-0.551-0.258-0.688-0.43c-0.139-0.172-0.207-0.373-0.207-0.602v-17.516
			c0-1.492-0.109-2.662-0.326-3.51c-0.219-0.85-0.533-1.578-0.947-2.186c-0.412-0.607-0.945-1.078-1.6-1.41
			c-0.654-0.334-1.418-0.5-2.289-0.5c-1.102,0-2.213,0.402-3.338,1.205c-1.123,0.803-2.293,1.973-3.51,3.51v20.406
			c0,0.229-0.068,0.43-0.207,0.602c-0.137,0.172-0.373,0.316-0.705,0.43c-0.332,0.115-0.773,0.201-1.324,0.258
			c-0.551,0.059-1.25,0.086-2.1,0.086s-1.549-0.027-2.1-0.086c-0.549-0.057-0.992-0.143-1.324-0.258
			c-0.332-0.113-0.568-0.258-0.705-0.43c-0.139-0.172-0.207-0.373-0.207-0.602V88.674c0-0.229,0.057-0.43,0.172-0.602
			c0.115-0.174,0.322-0.316,0.619-0.432c0.299-0.113,0.684-0.199,1.154-0.258c0.469-0.057,1.061-0.086,1.771-0.086
			c0.734,0,1.342,0.029,1.824,0.086c0.48,0.059,0.854,0.145,1.117,0.258c0.264,0.115,0.453,0.258,0.568,0.432
			c0.115,0.172,0.172,0.373,0.172,0.602v3.545c1.697-1.836,3.424-3.213,5.18-4.131c1.754-0.916,3.584-1.375,5.488-1.375
			c2.088,0,3.848,0.344,5.281,1.031c1.434,0.689,2.594,1.623,3.477,2.805s1.52,2.564,1.91,4.146
			c0.389,1.584,0.584,3.488,0.584,5.713V119.369z"/>
		<path fill="#FFFFFF" d="M477.432,90.807c0,1.102-0.127,1.916-0.379,2.443c-0.254,0.529-0.563,0.791-0.93,0.791h-3.613
			c0.504,0.551,0.865,1.176,1.084,1.877c0.219,0.699,0.326,1.428,0.326,2.184c0,1.791-0.297,3.379-0.895,4.768
			c-0.596,1.387-1.451,2.557-2.563,3.51c-1.113,0.951-2.455,1.674-4.027,2.168c-1.57,0.492-3.32,0.738-5.246,0.738
			c-0.988,0-1.928-0.119-2.822-0.361c-0.895-0.24-1.584-0.521-2.064-0.842c-0.275,0.299-0.523,0.654-0.74,1.066
			c-0.219,0.412-0.326,0.873-0.326,1.377c0,0.666,0.291,1.209,0.877,1.635c0.584,0.424,1.404,0.658,2.461,0.705l7.467,0.275
			c1.742,0.068,3.297,0.314,4.662,0.74c1.365,0.424,2.512,1.02,3.441,1.789c0.93,0.768,1.641,1.691,2.133,2.77
			c0.494,1.078,0.74,2.305,0.74,3.682c0,1.514-0.332,2.943-0.998,4.285s-1.664,2.506-2.994,3.492s-2.998,1.766-5.006,2.34
			s-4.354,0.861-7.037,0.861c-2.615,0-4.848-0.207-6.693-0.621c-1.848-0.412-3.361-0.986-4.543-1.721s-2.041-1.611-2.58-2.631
			c-0.539-1.021-0.809-2.141-0.809-3.355c0-0.758,0.098-1.48,0.293-2.168c0.193-0.689,0.48-1.348,0.859-1.979
			s0.844-1.232,1.395-1.807s1.182-1.125,1.893-1.652c-0.986-0.527-1.75-1.244-2.289-2.15s-0.809-1.898-0.809-2.977
			c0-1.354,0.311-2.586,0.93-3.699s1.422-2.117,2.408-3.012c-0.803-0.803-1.445-1.766-1.928-2.891
			c-0.48-1.123-0.723-2.523-0.723-4.197c0-1.789,0.316-3.391,0.947-4.801s1.508-2.604,2.633-3.578
			c1.123-0.975,2.465-1.721,4.025-2.236c1.561-0.518,3.281-0.775,5.162-0.775c0.963,0,1.887,0.059,2.77,0.172
			c0.883,0.115,1.703,0.275,2.461,0.482h9.738c0.391,0,0.705,0.252,0.947,0.756C477.311,88.766,477.432,89.615,477.432,90.807z
			 M468.346,122.568c0-1.031-0.412-1.824-1.238-2.373c-0.826-0.551-1.961-0.85-3.406-0.896l-6.16-0.172
			c-0.598,0.438-1.072,0.855-1.428,1.256c-0.355,0.402-0.643,0.787-0.861,1.154c-0.217,0.365-0.361,0.723-0.43,1.066
			s-0.104,0.699-0.104,1.066c0,1.146,0.58,2.018,1.738,2.615c1.158,0.596,2.793,0.895,4.904,0.895c1.307,0,2.408-0.133,3.303-0.395
			c0.895-0.266,1.617-0.615,2.168-1.051s0.941-0.924,1.17-1.463S468.346,123.166,468.346,122.568z M466.317,98.068
			c0-1.652-0.459-2.938-1.377-3.854c-0.918-0.918-2.215-1.377-3.889-1.377c-0.85,0-1.594,0.143-2.236,0.43s-1.176,0.678-1.6,1.17
			c-0.426,0.494-0.74,1.066-0.947,1.721s-0.309,1.336-0.309,2.047c0,1.561,0.457,2.793,1.375,3.699s2.191,1.359,3.82,1.359
			c0.871,0,1.629-0.137,2.271-0.412c0.641-0.275,1.176-0.654,1.6-1.137c0.424-0.48,0.746-1.037,0.963-1.668
			C466.208,99.416,466.317,98.756,466.317,98.068z"/>
		<path fill="#FFFFFF" d="M510.776,103.127c0,1.055-0.236,1.836-0.705,2.34c-0.471,0.504-1.119,0.756-1.945,0.756H489.44
			c0,1.309,0.156,2.496,0.465,3.563c0.311,1.066,0.803,1.973,1.48,2.719c0.676,0.746,1.549,1.313,2.615,1.703
			s2.346,0.584,3.836,0.584c1.516,0,2.846-0.107,3.992-0.326c1.146-0.217,2.139-0.459,2.977-0.723s1.531-0.504,2.082-0.723
			c0.551-0.217,0.998-0.326,1.342-0.326c0.207,0,0.379,0.039,0.516,0.119c0.139,0.082,0.254,0.225,0.346,0.432
			c0.09,0.205,0.154,0.498,0.189,0.877c0.033,0.379,0.051,0.855,0.051,1.428c0,0.506-0.012,0.936-0.035,1.291
			c-0.021,0.355-0.057,0.66-0.104,0.912c-0.045,0.252-0.113,0.463-0.205,0.637c-0.092,0.172-0.213,0.338-0.361,0.498
			c-0.15,0.16-0.557,0.379-1.223,0.654c-0.664,0.275-1.514,0.545-2.545,0.809c-1.033,0.264-2.215,0.492-3.545,0.688
			c-1.332,0.195-2.754,0.293-4.268,0.293c-2.73,0-5.121-0.344-7.174-1.033c-2.055-0.688-3.77-1.73-5.145-3.131
			c-1.377-1.398-2.404-3.166-3.08-5.299c-0.678-2.133-1.016-4.635-1.016-7.502c0-2.73,0.355-5.189,1.066-7.381
			s1.744-4.049,3.098-5.574s2.998-2.689,4.938-3.494c1.939-0.803,4.123-1.203,6.557-1.203c2.568,0,4.766,0.377,6.588,1.135
			c1.824,0.758,3.322,1.807,4.492,3.148s2.029,2.932,2.58,4.766c0.551,1.836,0.826,3.832,0.826,5.988V103.127z M502.379,100.648
			c0.068-2.432-0.418-4.342-1.463-5.729c-1.043-1.389-2.654-2.082-4.834-2.082c-1.102,0-2.061,0.205-2.873,0.619
			c-0.814,0.412-1.492,0.969-2.031,1.668c-0.539,0.701-0.951,1.527-1.238,2.479s-0.453,1.967-0.5,3.045H502.379z"/>
		<path fill="#FFFFFF" d="M537.618,91.529c0,0.826-0.023,1.504-0.07,2.031c-0.045,0.527-0.113,0.941-0.205,1.238
			c-0.092,0.299-0.213,0.506-0.361,0.619c-0.15,0.115-0.34,0.172-0.568,0.172c-0.184,0-0.391-0.039-0.619-0.119
			c-0.23-0.08-0.488-0.166-0.775-0.26c-0.287-0.09-0.602-0.176-0.945-0.258c-0.344-0.08-0.723-0.119-1.135-0.119
			c-0.482,0-0.965,0.098-1.445,0.291c-0.482,0.195-0.982,0.5-1.498,0.912c-0.516,0.414-1.055,0.965-1.617,1.652
			s-1.164,1.537-1.807,2.547v19.133c0,0.229-0.068,0.43-0.207,0.602c-0.137,0.172-0.373,0.316-0.705,0.43
			c-0.332,0.115-0.773,0.201-1.324,0.258c-0.551,0.059-1.25,0.086-2.1,0.086s-1.549-0.027-2.1-0.086
			c-0.549-0.057-0.992-0.143-1.324-0.258c-0.332-0.113-0.568-0.258-0.705-0.43c-0.139-0.172-0.207-0.373-0.207-0.602V88.674
			c0-0.229,0.057-0.43,0.172-0.602c0.115-0.174,0.322-0.316,0.619-0.432c0.299-0.113,0.684-0.199,1.154-0.258
			c0.469-0.057,1.061-0.086,1.771-0.086c0.734,0,1.342,0.029,1.824,0.086c0.48,0.059,0.854,0.145,1.117,0.258
			c0.264,0.115,0.453,0.258,0.568,0.432c0.115,0.172,0.172,0.373,0.172,0.602v3.82c0.803-1.148,1.561-2.094,2.271-2.84
			s1.389-1.336,2.031-1.771c0.641-0.436,1.283-0.74,1.926-0.912s1.285-0.258,1.928-0.258c0.297,0,0.619,0.016,0.963,0.051
			s0.699,0.092,1.066,0.172s0.689,0.172,0.965,0.275s0.475,0.213,0.602,0.326c0.125,0.115,0.217,0.242,0.275,0.379
			c0.057,0.139,0.109,0.328,0.154,0.568c0.047,0.24,0.08,0.602,0.104,1.084S537.618,90.703,537.618,91.529z"/>
		<path fill="#FFFFFF" d="M563.702,110.697c0,1.744-0.328,3.281-0.98,4.611c-0.654,1.33-1.578,2.443-2.771,3.338
			s-2.604,1.564-4.232,2.012s-3.395,0.672-5.299,0.672c-1.148,0-2.242-0.086-3.287-0.258c-1.043-0.172-1.979-0.391-2.805-0.654
			c-0.824-0.264-1.514-0.533-2.064-0.809s-0.951-0.533-1.203-0.773c-0.254-0.242-0.447-0.621-0.586-1.137
			c-0.137-0.516-0.207-1.277-0.207-2.287c0-0.666,0.023-1.199,0.07-1.602c0.045-0.4,0.113-0.723,0.205-0.963s0.207-0.4,0.346-0.482
			c0.137-0.08,0.309-0.119,0.516-0.119c0.252,0,0.625,0.143,1.117,0.43c0.494,0.287,1.107,0.602,1.842,0.945
			c0.734,0.346,1.588,0.666,2.564,0.965c0.975,0.299,2.082,0.447,3.32,0.447c0.779,0,1.473-0.08,2.082-0.242
			c0.607-0.16,1.135-0.389,1.582-0.688c0.447-0.297,0.785-0.676,1.016-1.135c0.229-0.459,0.344-0.986,0.344-1.584
			c0-0.688-0.213-1.277-0.637-1.771s-0.986-0.924-1.686-1.291c-0.701-0.367-1.492-0.711-2.375-1.031
			c-0.883-0.322-1.789-0.678-2.719-1.068c-0.928-0.389-1.836-0.836-2.719-1.342c-0.883-0.504-1.674-1.123-2.373-1.857
			c-0.701-0.734-1.262-1.617-1.688-2.65c-0.424-1.031-0.635-2.271-0.635-3.717c0-1.467,0.285-2.814,0.859-4.043
			c0.572-1.227,1.398-2.275,2.479-3.148c1.076-0.871,2.391-1.549,3.939-2.029c1.549-0.482,3.285-0.723,5.213-0.723
			c0.963,0,1.898,0.068,2.805,0.205c0.906,0.139,1.727,0.311,2.461,0.518c0.732,0.205,1.354,0.43,1.857,0.67
			c0.504,0.242,0.865,0.447,1.084,0.619s0.373,0.346,0.465,0.518s0.16,0.377,0.207,0.619c0.045,0.24,0.086,0.539,0.119,0.895
			c0.035,0.355,0.053,0.797,0.053,1.324c0,0.619-0.018,1.125-0.053,1.514c-0.033,0.391-0.092,0.701-0.172,0.93
			c-0.08,0.23-0.189,0.385-0.326,0.465c-0.139,0.08-0.299,0.121-0.482,0.121c-0.207,0-0.527-0.121-0.963-0.361
			c-0.436-0.242-0.98-0.5-1.635-0.775s-1.41-0.533-2.271-0.773c-0.859-0.242-1.84-0.361-2.941-0.361c-0.781,0-1.457,0.08-2.031,0.24
			c-0.572,0.16-1.043,0.391-1.41,0.688c-0.367,0.299-0.643,0.648-0.826,1.051c-0.184,0.4-0.275,0.832-0.275,1.291
			c0,0.711,0.219,1.307,0.654,1.789c0.436,0.48,1.01,0.906,1.721,1.273s1.52,0.711,2.426,1.031c0.906,0.322,1.824,0.672,2.752,1.051
			c0.93,0.377,1.848,0.82,2.754,1.324s1.715,1.123,2.426,1.857s1.285,1.613,1.721,2.633
			C563.483,108.088,563.702,109.299,563.702,110.697z"/>
		<path fill="#FFFFFF" d="M403.241,119.369c0,0.229-0.068,0.43-0.207,0.602c-0.137,0.172-0.367,0.316-0.688,0.43
			c-0.322,0.115-0.764,0.201-1.326,0.258c-0.563,0.059-1.256,0.086-2.082,0.086c-0.848,0-1.553-0.027-2.115-0.086
			c-0.563-0.057-1.004-0.143-1.324-0.258c-0.322-0.113-0.551-0.258-0.689-0.43c-0.137-0.172-0.205-0.373-0.205-0.602v-19.274
			l8.637-5.571h-20.027v24.846c0,0.229-0.068,0.43-0.207,0.602c-0.137,0.172-0.367,0.316-0.688,0.43
			c-0.322,0.115-0.764,0.201-1.326,0.258c-0.563,0.059-1.268,0.086-2.115,0.086c-0.826,0-1.52-0.027-2.082-0.086
			c-0.563-0.057-1.01-0.143-1.342-0.258c-0.334-0.113-0.563-0.258-0.689-0.43c-0.125-0.172-0.188-0.373-0.188-0.602V94.523h-3.855
			c-0.436,0-0.762-0.27-0.98-0.809s-0.326-1.439-0.326-2.701c0-0.666,0.027-1.227,0.086-1.686c0.057-0.459,0.137-0.82,0.24-1.084
			s0.24-0.453,0.414-0.568c0.172-0.115,0.371-0.172,0.602-0.172h3.82v-2.719c0-2.088,0.211-3.91,0.635-5.471
			c0.426-1.561,1.072-2.861,1.945-3.906c0.871-1.043,1.973-1.824,3.303-2.34s2.902-0.775,4.715-0.775
			c0.504,0,1.016,0.023,1.531,0.07c0.516,0.045,1.004,0.115,1.463,0.205c0.459,0.092,0.859,0.195,1.205,0.311
			c0.344,0.115,0.578,0.236,0.705,0.361c0.125,0.127,0.229,0.27,0.309,0.43s0.15,0.367,0.207,0.619
			c0.057,0.254,0.098,0.58,0.121,0.98c0.021,0.402,0.033,0.902,0.033,1.498c0,1.102-0.063,1.875-0.189,2.322
			c-0.125,0.447-0.373,0.672-0.738,0.672c-0.139,0-0.293-0.023-0.465-0.07c-0.172-0.045-0.379-0.102-0.619-0.172
			c-0.242-0.068-0.523-0.131-0.844-0.189c-0.322-0.057-0.723-0.086-1.205-0.086c-1.215,0-2.098,0.414-2.648,1.24
			s-0.826,2.189-0.826,4.094v2.926h17.412c0.871,0,1.525,0.189,1.961,0.568c0.436,0.377,0.654,0.98,0.654,1.807V119.369z
			 M403.895,78.35c0,0.85-0.076,1.566-0.225,2.15c-0.148,0.586-0.408,1.057-0.773,1.412c-0.367,0.355-0.867,0.607-1.498,0.756
			c-0.631,0.15-1.416,0.225-2.357,0.225c-0.939,0-1.732-0.074-2.373-0.225c-0.643-0.148-1.154-0.4-1.531-0.756
			c-0.379-0.355-0.643-0.826-0.793-1.412c-0.148-0.584-0.223-1.301-0.223-2.15c0-0.826,0.074-1.525,0.223-2.098
			c0.15-0.574,0.414-1.045,0.793-1.412c0.377-0.367,0.889-0.631,1.531-0.791c0.641-0.16,1.434-0.24,2.373-0.24
			c0.941,0,1.727,0.08,2.357,0.24s1.131,0.424,1.498,0.791c0.365,0.367,0.625,0.838,0.773,1.412
			C403.819,76.824,403.895,77.523,403.895,78.35z"/>
	</g>
</g>
</svg>
