<?xml version="1.0" encoding="utf-8"?>
<!-- Generator: Adobe Illustrator 15.0.2, SVG Export Plug-In . SVG Version: 6.00 Build 0)  -->
<!DOCTYPE svg PUBLIC "-//W3C//DTD SVG 1.1//EN" "http://www.w3.org/Graphics/SVG/1.1/DTD/svg11.dtd">
<svg version="1.1" xmlns="http://www.w3.org/2000/svg" xmlns:xlink="http://www.w3.org/1999/xlink" x="0px" y="0px"
	 width="118.306px" height="170.848px" viewBox="0 0 118.306 170.848" enable-background="new 0 0 118.306 170.848"
	 xml:space="preserve">
<g id="Layer_2">
</g>
<g id="Layer_3">
</g>
<g id="Layer_1">
	<g>
		<rect x="25.793" y="103.426" width="66.721" height="17.113"/>
		<path d="M92.514,75.699H66.633V8.763c0.061-0.386,0.102-0.777,0.102-1.181C66.734,3.395,63.34,0,59.154,0
			c-4.189,0-7.582,3.395-7.582,7.582c0,0.193,0.014,0.383,0.029,0.572v67.545H40.957V7.582C40.957,3.395,37.561,0,33.375,0
			c-4.188,0-7.582,3.395-7.582,7.582v85.23h66.721V75.699z"/>
		<path d="M118.292,72.67c0-4.188-3.394-7.582-7.581-7.582s-7.582,3.395-7.582,7.582v39.025h-0.014
			c0,24.241-19.721,43.963-43.961,43.963c-24.242,0-43.963-19.722-43.963-43.963h-0.016V18.198c0-0.001,0-0.001,0-0.001
			c0-4.188-3.393-7.582-7.58-7.582s-7.582,3.395-7.582,7.582c0,0,0,0,0,0.001v93.497H0c0,32.616,26.537,59.152,59.154,59.152
			c32.615,0,59.151-26.536,59.151-59.152h-0.014V72.67z"/>
		<path d="M92.514,18.198C92.514,18.197,92.514,18.197,92.514,18.198c0-4.188-3.395-7.583-7.582-7.583
			c-4.186,0-7.582,3.395-7.582,7.582c0,0,0,0,0,0.001v46.89h15.164V18.198z"/>
	</g>
</g>
</svg>
