<?xml version="1.0" encoding="UTF-8" standalone="no"?>
<svg
   xmlns:svg="http://www.w3.org/2000/svg"
   xmlns="http://www.w3.org/2000/svg"
   version="1.1"
   width="390.3129"
   height="196.99982"
   id="svg3134">
  <defs
     id="defs3136">
    <linearGradient
       x1="0"
       y1="0"
       x2="1"
       y2="0"
       id="linearGradient342"
       gradientUnits="userSpaceOnUse"
       gradientTransform="matrix(14.185996,-22.292739,22.292739,14.185996,324.45311,538.70454)"
       spreadMethod="pad">
      <stop
         id="stop344"
         style="stop-color:#e3000f;stop-opacity:1"
         offset="0" />
      <stop
         id="stop346"
         style="stop-color:#c00808;stop-opacity:1"
         offset="0.84187299" />
      <stop
         id="stop348"
         style="stop-color:#c00808;stop-opacity:1"
         offset="0.84187299" />
      <stop
         id="stop350"
         style="stop-color:#c00808;stop-opacity:1"
         offset="1" />
    </linearGradient>
    <linearGradient
       x1="0"
       y1="0"
       x2="1"
       y2="0"
       id="linearGradient378"
       gradientUnits="userSpaceOnUse"
       gradientTransform="matrix(10.712077,-24.319926,24.319926,10.712077,309.50284,565.43824)"
       spreadMethod="pad">
      <stop
         id="stop380"
         style="stop-color:#f8d100;stop-opacity:1"
         offset="0" />
      <stop
         id="stop382"
         style="stop-color:#d9b900;stop-opacity:1"
         offset="0.94016999" />
      <stop
         id="stop384"
         style="stop-color:#d9b900;stop-opacity:1"
         offset="0.94016999" />
      <stop
         id="stop386"
         style="stop-color:#d9b900;stop-opacity:1"
         offset="1" />
    </linearGradient>
    <linearGradient
       x1="0"
       y1="0"
       x2="1"
       y2="0"
       id="linearGradient322"
       gradientUnits="userSpaceOnUse"
       gradientTransform="matrix(-2.8955241,28.660427,-28.660427,-2.8955241,307.90514,560.8985)"
       spreadMethod="pad">
      <stop
         id="stop324"
         style="stop-color:#0a2c68;stop-opacity:1"
         offset="0" />
      <stop
         id="stop326"
         style="stop-color:#134094;stop-opacity:1"
         offset="1" />
    </linearGradient>
  </defs>
  <g
     transform="translate(-233.41498,-464.29077)"
     id="layer1">
    <path
       d="m 515.44317,485.42358 c -17.07649,0 -36.60115,5.1272 -36.60115,27.48882 0,17.08256 9.74411,23.40651 15.49094,27.03321 l 17.16154,10.63104 c 4.53186,2.71547 8.04921,5.04215 8.04921,10.93478 0,8.61418 -7.63612,10.02355 -15.79468,10.02355 -11.94322,0 -18.84428,-3.95474 -21.41395,-5.46739 -1.05703,-0.60748 -1.83461,-1.21497 -3.18931,-1.21497 -1.81639,0 -2.12621,1.22712 -2.12621,2.42995 l 0,11.99788 c 0,1.81032 0.31589,2.88557 1.82246,3.7968 2.27201,1.50657 10.71609,5.61927 27.48883,5.61927 20.0957,0 36.2974,-8.15857 36.2974,-29.91878 0,-16.62087 -7.65435,-22.81117 -19.43961,-29.31129 l -13.36474,-7.44173 c -4.53186,-2.4178 -8.35295,-5.04215 -8.35295,-10.63104 0,-7.40527 7.01648,-9.11231 13.66847,-9.11231 8.91185,0 13.39511,1.84069 20.50272,5.61926 1.2089,0.60141 1.98041,1.36685 3.49305,1.36685 1.81032,0 2.12621,-1.22105 2.12621,-2.42995 l 0,-12.14976 c 0,-1.81639 -0.31006,-2.89164 -1.82246,-3.7968 -6.1903,-3.77858 -15.38159,-5.46739 -23.99577,-5.46739 z m -115.11895,0.91123 c -1.21498,0 -2.7337,0.31589 -2.7337,2.7337 l 0,95.37559 c 0,2.4178 1.51872,2.7337 2.7337,2.7337 l 61.05253,0 c 1.2089,0 2.73369,-0.3159 2.73369,-2.7337 l 0,-12.30163 c 0,-2.41173 -1.52479,-2.73369 -2.73369,-2.73369 l -38.11987,0 c -0.60141,0 -1.36684,-0.46753 -1.36684,-1.82247 l 0,-22.02143 c 0,-1.51265 0.76543,-1.82247 1.36684,-1.82247 l 27.48883,0 c 1.2089,0 2.73369,-0.31589 2.73369,-2.73369 l 0,-12.14976 c 0,-2.4178 -1.52479,-2.73369 -2.73369,-2.73369 l -27.48883,0 c -0.60141,0 -1.36684,-0.4617 -1.36684,-1.82247 l 0,-18.52838 c 0,-1.51264 0.76543,-1.82246 1.36684,-1.82246 l 35.08243,0 c 1.2089,0 2.73369,-0.16378 2.73369,-2.58182 l 0,-12.30163 c 0,-2.41781 -1.52479,-2.7337 -2.73369,-2.7337 l -58.01509,0 z m 164.78108,0.30374 c -0.93543,0.19877 -1.82246,0.92037 -1.82246,2.7337 l 0,95.3756 c 0,2.42387 1.52479,2.73369 2.73369,2.73369 l 18.83213,0 c 1.2089,0 2.73369,-0.31006 2.73369,-2.73369 l 0,-35.84179 c 0,-1.51264 0.76544,-1.82246 1.36685,-1.82246 l 26.27385,0 c 1.2089,0 2.7337,-0.3159 2.7337,-2.7337 l 0,-12.30163 c 0,-2.4178 -1.5248,-2.58182 -2.7337,-2.58182 l -26.27385,0 c -0.60141,0 -1.36685,-0.46169 -1.36685,-1.82246 l 0,-21.56582 c 0,-1.51265 0.76544,-1.82247 1.36685,-1.82247 l 32.04498,0 c 1.20891,0 2.7337,-0.31589 2.7337,-2.73369 l 0,-12.14976 c 0,-2.4178 -1.52479,-2.7337 -2.7337,-2.7337 l -54.97765,0 c -0.30228,0 -0.59942,-0.0661 -0.91123,0 z"
       id="path152"
       style="fill:#134094;fill-opacity:1;fill-rule:nonzero;stroke:none" />
    <path
       d="m 543.38761,604.79494 c -1.09406,0.17836 -2.28872,0.85807 -2.88557,2.42996 -0.20071,0.51636 -0.30374,1.09347 -0.30374,2.42995 l 0,0.60749 c 0,0.25514 -0.18857,0.45537 -0.30375,0.45537 l -1.21497,0 c -0.22502,0 -0.45537,0 -0.45537,0.45537 l 0,1.82247 c 0,0.45537 0.23084,0.45537 0.45537,0.45537 l 1.21497,0 c 0.11518,0 0.30375,0.19439 0.30375,0.45537 l 0,10.63104 c 0,0.44954 0.37664,0.60749 0.60749,0.60749 l 3.18931,0 c 0.22452,0 0.45537,-0.15795 0.45537,-0.60749 l 0,-10.63104 c 0,-0.26146 0.18808,-0.45537 0.30374,-0.45537 l 2.12621,0 c 0.23085,0 0.45537,0 0.45537,-0.45537 l 0,-1.82247 c 0,-0.45537 -0.22501,-0.45537 -0.45537,-0.45537 l -2.12621,0 c -0.11566,0 -0.30374,-0.20023 -0.30374,-0.45537 l 0,-0.30375 c 0,-0.40094 0.0972,-1.16638 0.15163,-1.36685 0.1701,-0.62571 0.55889,-0.91123 1.21497,-0.91123 0.62572,0 0.87479,0.30375 1.21498,0.30375 0.20655,0 0.30374,-0.11518 0.30374,-0.45538 l 0,-1.67059 c 0,-0.68646 -1.37292,-1.0631 -2.88556,-1.0631 -0.29937,0 -0.69842,-0.0593 -1.06311,0 z m 56.3445,0 c -0.22501,0 -0.60749,0.15163 -0.60749,0.60749 l 0,5.46739 c 0,0.23085 0.0194,0.30375 -0.15163,0.30375 -0.28576,0 -1.32432,-0.75936 -3.34118,-0.75936 -4.10054,0 -6.83424,2.6122 -6.83424,7.5936 0,4.49541 2.49678,7.28985 6.68237,7.28985 2.15658,0 3.01921,-0.75936 3.64492,-0.75936 0.28528,0 0.30375,0.0389 0.30375,0.15163 0,0.20023 -0.0389,0.45537 0.30374,0.45537 l 3.18931,0 c 0.23085,0 0.60749,-0.15163 0.60749,-0.60749 l 0,-19.13586 c 0,-0.45538 -0.37664,-0.60749 -0.60749,-0.60749 l -3.18931,0 z m -248.61441,0.15163 c -1.50657,0 -2.42995,0.62572 -2.42995,1.82247 0,1.22105 0.893,1.97433 2.42995,1.97433 1.50657,0 2.27808,-0.63178 2.27808,-1.82246 0,-1.22713 -0.74114,-1.97434 -2.27808,-1.97434 z m 39.18297,0 c -0.11081,0.0646 -0.15163,0.19732 -0.15163,0.45538 l 0,19.13586 c 0,0.51029 0.30957,0.60749 0.45537,0.60749 l 3.34118,0 c 0.13948,0 0.45538,-0.0972 0.45538,-0.60749 l 0,-9.41606 c 0,-0.70468 0.34019,-1.1117 0.91123,-1.36685 0.42524,-0.20022 1.03273,-0.15162 1.51872,-0.15162 0.91123,0 1.54909,0.21869 1.97433,0.75936 0.37033,0.48599 0.45538,1.136 0.45538,2.27808 l 0,7.89734 c 0,0.44954 0.22452,0.60749 0.45537,0.60749 l 3.34118,0 c 0.22453,0 0.45538,-0.15795 0.45538,-0.60749 l 0,-8.04922 c 0,-2.33275 -0.1215,-3.68137 -1.06311,-4.70803 -0.91123,-0.99628 -2.32668,-1.36685 -3.94867,-1.36685 -2.18696,0 -3.48091,0.91124 -3.7968,0.91124 -0.1701,0 -0.30374,-0.0792 -0.30374,-0.30375 l 0,-5.61926 c 0,-0.51637 -0.3159,-0.45537 -0.45538,-0.45537 l -3.34118,0 c -0.0729,0 -0.19294,-0.0646 -0.30374,0 z m 113.44836,0 c -1.50657,0 -2.42996,0.62572 -2.42996,1.82247 0,1.22105 0.88694,1.97433 2.42996,1.97433 1.50657,0 2.42995,-0.63178 2.42995,-1.82246 0,-1.22713 -0.89301,-1.97434 -2.42995,-1.97434 z m 25.9701,0 c -0.0996,0.0719 -0.15163,0.22793 -0.15163,0.45538 l 0,19.13586 c 0,0.44955 0.23085,0.60749 0.45538,0.60749 l 3.18931,0 c 0.22452,0 0.60749,-0.15794 0.60749,-0.60749 l 0,-18.98399 c 0,-0.46169 -0.38297,-0.60749 -0.60749,-0.60749 l -3.18931,0 c -0.11227,0 -0.20412,-0.0719 -0.30375,0 z m -195.0036,0.60749 c -1.13601,0 -1.6706,0.50422 -1.6706,1.67059 0,1.19675 0.55889,1.67059 1.6706,1.67059 1.136,0 1.82246,-0.49814 1.82246,-1.67059 0,-1.19067 -0.71076,-1.67059 -1.82246,-1.67059 z m 5.16364,0 c -1.136,0 -1.82246,0.50422 -1.82246,1.67059 0,1.19675 0.55889,1.67059 1.67059,1.67059 1.14208,0 1.82246,-0.49814 1.82246,-1.67059 0,-1.19067 -0.55888,-1.67059 -1.67059,-1.67059 z m 116.4858,0.30375 c -3.21361,0 -6.83424,0.94768 -6.83424,5.16364 0,3.21361 1.80424,4.48326 2.88557,5.16365 l 3.34118,1.97433 c 0.85656,0.51029 1.51872,1.00843 1.51872,2.12621 0,1.61592 -1.50657,1.82247 -3.03744,1.82247 -2.25378,0 -3.61455,-0.77151 -4.10054,-1.06311 -0.19439,-0.10935 -0.35234,-0.15163 -0.60749,-0.15163 -0.34651,0 -0.30374,0.22453 -0.30374,0.45538 l 0,2.27808 c 0,0.34019 0.0194,0.43739 0.30374,0.60748 0.43108,0.28577 2.00471,1.06311 5.16365,1.06311 3.78465,0 6.83424,-1.51872 6.83424,-5.61927 0,-3.12856 -1.4276,-4.24026 -3.64493,-5.46739 l -2.42995,-1.36684 c -0.85656,-0.45538 -1.67059,-0.92339 -1.67059,-1.97434 0,-1.39722 1.3304,-1.82246 2.58182,-1.82246 1.67667,0 2.6122,0.34602 3.94867,1.0631 0.22453,0.11567 0.32173,0.30374 0.60749,0.30374 0.34019,0 0.45537,-0.22452 0.45537,-0.45537 l 0,-2.27808 c 0,-0.34019 -0.17009,-0.58926 -0.45537,-0.75936 -1.16638,-0.71076 -2.93417,-1.0631 -4.55616,-1.0631 z m -213.68386,0.30374 c -0.0996,0.0705 -0.15163,0.22793 -0.15163,0.45537 l 0,17.92089 c 0,0.44955 0.23085,0.60749 0.45538,0.60749 l 11.54227,0 c 0.23084,0 0.45537,-0.15794 0.45537,-0.60749 l 0,-2.27807 c 0,-0.45538 -0.22501,-0.45538 -0.45537,-0.45538 l -7.13799,0 c -0.10934,0 -0.30374,-0.0486 -0.30374,-0.30374 l 0,-4.25242 c 0,-0.29159 0.1944,-0.30374 0.30374,-0.30374 l 5.16365,0 c 0.23085,0 0.45537,0 0.45537,-0.45537 l 0,-2.42996 c 0,-0.44954 -0.22501,-0.45537 -0.45537,-0.45537 l -5.16365,0 c -0.10934,0 -0.30374,-0.0486 -0.30374,-0.30374 l 0,-3.49306 c 0,-0.27944 0.1944,-0.30374 0.30374,-0.30374 l 6.5305,0 c 0.23084,0 0.60749,-0.15163 0.60749,-0.60749 l 0,-2.27808 c 0,-0.45537 -0.37665,-0.45537 -0.60749,-0.45537 l -10.93478,0 c -0.11227,0 -0.20412,-0.0705 -0.30375,0 z m 44.34662,4.25241 c -2.13228,0 -2.81875,1.06311 -3.64493,1.06311 -0.1701,0 -0.30374,-0.01 -0.30374,-0.15163 l 0,-0.30374 c 0,-0.20023 0.034,-0.30375 -0.30375,-0.30375 l -3.18931,0 c -0.23084,0 -0.45537,0 -0.45537,0.45537 l 0,13.36474 c 0,0.45537 0.22453,0.60749 0.45537,0.60749 l 3.18931,0 c 0.23085,0 0.60749,-0.15163 0.60749,-0.60749 l 0,-8.35296 c 0,-1.05095 0.30958,-2.27808 2.58182,-2.27808 1.51265,0 1.70097,0.30374 2.12621,0.30374 0.28528,0 0.30375,-0.19439 0.30375,-0.45537 l 0,-2.42995 c 0,-0.47967 -0.11567,-0.91123 -1.36685,-0.91123 z m 12.14976,0 c -5.09683,0 -7.5936,3.23791 -7.5936,7.5936 0,4.49541 2.52107,7.28986 7.44172,7.28986 5.09683,0 7.5936,-3.08604 7.5936,-7.44173 0,-4.49541 -2.52107,-7.44173 -7.44172,-7.44173 z m 20.50271,0 c -2.16266,0 -3.01921,0.75936 -3.64493,0.75936 -0.28576,0 -0.30374,-0.0437 -0.30374,-0.15162 0,-0.20023 -0.11567,-0.30375 -0.45537,-0.30375 l -3.18931,0 c -0.22502,0 -0.45538,0 -0.45538,0.45537 l 0,19.28774 c 0,0.45538 0.23085,0.45538 0.45538,0.45538 l 3.34118,0 c 0.22453,0 0.45537,0 0.45537,-0.45538 l 0,-5.46739 c 0,-0.22452 0.13365,-0.45537 0.30375,-0.45537 0.28527,0 1.16637,0.75936 3.18931,0.75936 4.10054,0 6.83424,-2.6122 6.83424,-7.5936 0,-4.49541 -2.34491,-7.28985 -6.5305,-7.28985 z m 17.31341,0 c -1.70705,0 -4.20382,0.20023 -5.31552,0.91124 -0.28577,0.17592 -0.30375,0.41941 -0.30375,0.75936 l 0,1.82246 c 0,0.25514 0.0486,0.60749 0.30375,0.60749 0.20022,0 0.28527,-0.0666 0.45537,-0.15163 0.31589,-0.17593 1.83461,-1.06311 4.25241,-1.06311 2.02294,0 2.58183,0.2673 2.58183,1.06311 l 0,0.15163 c 0,0.57104 -0.42524,0.61356 -0.91123,0.75936 l -3.18931,1.0631 c -3.07389,0.93553 -4.55616,2.00471 -4.55616,4.70803 0,1.96826 0.9902,4.25242 4.8599,4.25242 2.16266,0 3.17109,-0.75936 3.7968,-0.75936 0.28527,0 0.30374,0.0389 0.30374,0.15163 0,0.20022 -0.0389,0.45537 0.30375,0.45537 l 3.03744,0 c 0.23084,0 0.60748,-0.15163 0.60748,-0.60749 l 0,-8.96044 c 0,-1.96827 -0.44371,-3.02529 -1.21497,-3.7968 -0.3402,-0.34603 -1.4519,-1.36685 -5.01178,-1.36685 z m 27.03321,0 c -2.98884,0 -5.46739,1.31218 -5.46739,4.55616 0,2.16266 1.02665,2.95239 2.73369,3.94867 l 1.97434,1.06311 c 0.51029,0.28576 1.21497,0.71683 1.21497,1.51872 0,0.91123 -0.9416,1.0631 -1.82246,1.0631 -1.39722,0 -2.64865,-0.37032 -3.64493,-0.91123 -0.17641,-0.085 -0.25514,-0.15163 -0.45537,-0.15163 -0.3402,0 -0.30375,0.23085 -0.30375,0.45537 l 0,1.82247 c 0,0.37032 0.0194,0.55281 0.30375,0.75936 0.28527,0.22453 1.48834,0.75936 4.25241,0.75936 3.6996,0 5.61927,-1.96826 5.61927,-4.55616 0,-2.21733 -1.26358,-3.18931 -2.88557,-4.10054 l -1.82247,-1.06311 c -0.51028,-0.27944 -1.21497,-0.50421 -1.21497,-1.21497 0,-0.94161 0.91123,-1.21498 1.82246,-1.21498 1.3061,0 2.21126,0.45537 3.03744,0.91123 0.1701,0.0851 0.25515,0.15163 0.45538,0.15163 0.34019,0 0.30374,-0.22453 0.30374,-0.45537 l 0,-1.82247 c 0,-0.34019 -0.0243,-0.56496 -0.30374,-0.75936 -0.57104,-0.42524 -2.08976,-0.75936 -3.7968,-0.75936 z m 16.40217,0 c -6.91321,0 -7.89734,4.89028 -7.89734,7.5936 0,2.55753 0.93553,7.28986 7.59359,7.28986 1.622,0 3.8454,-0.22453 4.55616,-0.75936 0.28528,-0.20655 0.30375,-0.38879 0.30375,-0.75936 l 0,-1.97434 c 0,-0.22453 -0.1458,-0.45537 -0.45538,-0.45537 -0.20071,0 -0.28576,0.0666 -0.45537,0.15163 -1.00235,0.53459 -1.82246,0.75936 -3.18931,0.75936 -2.81267,0 -3.7968,-1.95004 -3.7968,-4.25242 0,-2.30845 0.75936,-4.55616 3.94867,-4.55616 1.36685,0 1.98041,0.1944 3.03744,0.75936 0.1701,0.085 0.25515,0.15163 0.45537,0.15163 0.3402,0 0.45538,-0.23084 0.45538,-0.45537 l 0,-1.97434 c 0,-0.34019 -0.0194,-0.56496 -0.30375,-0.75936 -0.57104,-0.42524 -2.71547,-0.75936 -4.25241,-0.75936 z m 34.93055,0 c -4.07017,0 -7.13798,2.15659 -7.13798,7.5936 0,5.75291 3.88792,7.44173 8.04921,7.44173 2.10191,0 4.14914,-0.37664 4.85991,-0.91123 0.28527,-0.20655 0.30374,-0.38879 0.30374,-0.75936 l 0,-1.82247 c 0,-0.23084 -0.13997,-0.45537 -0.45537,-0.45537 -0.20072,0 -0.13365,0.0666 -0.30375,0.15163 -0.54066,0.28576 -1.91358,0.91123 -3.7968,0.91123 -2.50285,0 -4.25241,-1.06918 -4.25241,-3.49305 0,-0.27945 0.20023,-0.30375 0.45537,-0.30375 l 8.6567,0 c 0.23085,0 0.60749,-0.15794 0.60749,-0.60749 l 0,-0.60748 c 0,-2.98884 -0.89908,-7.13799 -6.98611,-7.13799 z m 19.89523,0 c -2.13228,0 -2.81875,1.06311 -3.64493,1.06311 -0.1701,0 -0.30374,-0.01 -0.30374,-0.15163 l 0,-0.30374 c 0,-0.20023 0.034,-0.30375 -0.30375,-0.30375 l -3.18931,0 c -0.23084,0 -0.45537,0 -0.45537,0.45537 l 0,13.36474 c 0,0.45537 0.22453,0.60749 0.45537,0.60749 l 3.18931,0 c 0.23085,0 0.60749,-0.15163 0.60749,-0.60749 l 0,-8.35296 c 0,-1.05095 0.30375,-2.27808 2.58182,-2.27808 1.51265,0 1.70097,0.30374 2.12621,0.30374 0.28528,0 0.30375,-0.19439 0.30375,-0.45537 l 0,-2.42995 c 0,-0.47967 -0.11567,-0.91123 -1.36685,-0.91123 z m 38.11986,0 c -5.09682,0 -7.5936,3.23791 -7.5936,7.5936 0,4.49541 2.515,7.28986 7.44173,7.28986 5.09682,0 7.5936,-3.08604 7.5936,-7.44173 0,-4.49541 -2.515,-7.44173 -7.44173,-7.44173 z m 44.19474,0 c -1.70704,0 -4.20381,0.20023 -5.31551,0.91124 -0.28577,0.17592 -0.30375,0.41941 -0.30375,0.75936 l 0,1.97433 c 0,0.25515 0.0437,0.45537 0.30375,0.45537 0.19439,0 0.27944,-0.0666 0.45537,-0.15162 0.30957,-0.17593 1.83461,-1.06311 4.25241,-1.06311 2.02294,0 2.58183,0.2673 2.58183,1.06311 l 0,0.15162 c 0,0.57104 -0.42524,0.61357 -0.91123,0.75936 l -3.18932,1.06311 c -3.07388,0.93553 -4.55615,2.00471 -4.55615,4.70803 0,1.96826 0.9902,4.25241 4.8599,4.25241 2.16266,0 3.17108,-0.75936 3.7968,-0.75936 0.28527,0 0.30374,0.0389 0.30374,0.15163 0,0.20023 -0.0389,0.45538 0.30375,0.45538 l 3.03743,0 c 0.22453,0 0.60749,-0.15795 0.60749,-0.60749 l 0,-8.96045 c 0,-1.96826 -0.44371,-3.03136 -1.21497,-3.7968 -0.3402,-0.34602 -1.4519,-1.36684 -5.01178,-1.36684 z m 40.54982,0 c -5.09682,0 -7.44173,3.23791 -7.44173,7.5936 0,4.49541 2.515,7.28986 7.44173,7.28986 5.09075,0 7.5936,-3.08604 7.5936,-7.44173 0,-4.49541 -2.67295,-7.44173 -7.5936,-7.44173 z m 20.80646,0 c -0.88086,0 -2.05938,0.27313 -2.88557,0.60749 -0.25514,0.1215 -0.56496,0.15163 -0.91123,0.15163 -0.27944,0 -0.30374,-0.034 -0.30374,-0.15163 0,-0.20023 -0.11567,-0.30374 -0.45538,-0.30374 l -3.18931,0 c -0.23084,0 -0.60749,0 -0.60749,0.45537 l 0,13.36473 c 0,0.44955 0.37665,0.60749 0.60749,0.60749 l 3.18931,0 c 0.22453,0 0.60749,-0.15794 0.60749,-0.60749 l 0,-9.41606 c 0,-0.70468 0.1944,-1.1117 0.75936,-1.36685 0.42524,-0.20022 1.03273,-0.15162 1.51872,-0.15162 0.91123,0 1.5491,0.21869 1.97434,0.75936 0.37032,0.48599 0.45537,1.136 0.45537,2.27808 l 0,7.89734 c 0,0.44954 0.38247,0.60749 0.60749,0.60749 l 3.18931,0 c 0.22453,0 0.60749,-0.15795 0.60749,-0.60749 l 0,-8.04922 c 0,-2.33275 -0.27362,-3.68137 -1.21498,-4.70803 -0.91123,-0.99628 -2.33275,-1.36685 -3.94867,-1.36685 z m 35.38617,0 c -2.98884,0 -5.46739,1.31218 -5.46739,4.55616 0,2.16266 1.02665,2.95239 2.73369,3.94867 l 1.97434,1.06311 c 0.50421,0.28576 1.21497,0.71683 1.21497,1.51872 0,0.91123 -0.93553,1.0631 -1.82246,1.0631 -1.39115,0 -2.64865,-0.37032 -3.64493,-0.91123 -0.17009,-0.085 -0.25514,-0.15163 -0.45537,-0.15163 -0.33436,0 -0.30374,0.23085 -0.30374,0.45537 l 0,1.82247 c 0,0.37032 0.0194,0.55281 0.30374,0.75936 0.27944,0.22453 1.48835,0.75936 4.25242,0.75936 3.69352,0 5.61926,-1.96826 5.61926,-4.55616 0,-2.21733 -1.2575,-3.18931 -2.88557,-4.10054 l -1.82246,-1.06311 c -0.50422,-0.27944 -1.21498,-0.50421 -1.21498,-1.21497 0,-0.94161 0.91123,-1.21498 1.82246,-1.21498 1.31218,0 2.21126,0.45537 3.03744,0.91123 0.1701,0.0851 0.24883,0.15163 0.45538,0.15163 0.34019,0 0.30374,-0.22453 0.30374,-0.45537 l 0,-1.82247 c 0,-0.34019 -0.0194,-0.56496 -0.30374,-0.75936 -0.56497,-0.42524 -2.08976,-0.75936 -3.7968,-0.75936 z m -354.3173,0.30375 c -0.0996,0.0705 -0.15163,0.22793 -0.15163,0.45537 l 0,8.20109 c 0,2.33883 0.12733,3.5295 1.0631,4.55616 0.91731,0.99628 2.32061,1.36684 3.94867,1.36684 0.88086,0 2.05939,-0.10934 2.88557,-0.45537 0.25515,-0.10935 0.72291,-0.30374 1.06311,-0.30374 0.28527,0 0.30374,0.0389 0.30374,0.15163 0,0.20022 -0.0389,0.45537 0.30374,0.45537 l 3.18931,0 c 0.22453,0 0.60749,-0.15795 0.60749,-0.60749 l 0,-13.36473 c 0,-0.45537 -0.38296,-0.45537 -0.60749,-0.45537 l -3.18931,0 c -0.23084,0 -0.45537,0 -0.45537,0.45537 l 0,9.41606 c 0,0.71076 -0.34019,1.1117 -0.91123,1.36685 -0.43156,0.20023 -1.03881,0.30374 -1.51872,0.30374 -0.91123,0 -1.5491,-0.21869 -1.97434,-0.75936 -0.37081,-0.47967 -0.45537,-1.28787 -0.45537,-2.42995 l 0,-7.89734 c 0,-0.45537 -0.38296,-0.45537 -0.60749,-0.45537 l -3.18931,0 c -0.11226,0 -0.20411,-0.0705 -0.30374,0 z m 89.14884,0 c -0.10011,0.0705 -0.30374,0.22793 -0.30374,0.45537 l 0,13.36473 c 0,0.44955 0.37664,0.60749 0.60749,0.60749 l 3.18931,0 c 0.22453,0 0.60749,-0.15794 0.60749,-0.60749 l 0,-13.36473 c 0,-0.45537 -0.38296,-0.45537 -0.60749,-0.45537 l -3.18931,0 c -0.11567,0 -0.20363,-0.0705 -0.30375,0 z m 136.07729,0 c -0.10012,0.0705 -0.15163,0.22793 -0.15163,0.45537 l 0,1.82247 c 0,0.45537 0.37664,0.45537 0.60748,0.45537 l 5.01178,0 c 0.25514,0 0.45537,0.13365 0.45537,0.30374 0,0.1458 -0.0671,0.18857 -0.15163,0.30375 l -5.923,7.74547 c -0.25515,0.34019 -0.30375,0.69253 -0.30375,1.0631 l 0,1.67059 c 0,0.44954 0.37665,0.60749 0.60749,0.60749 l 10.78291,0 c 0.22453,0 0.60749,-0.15795 0.60749,-0.60749 l 0,-1.82246 c 0,-0.45537 -0.38296,-0.45537 -0.60749,-0.45537 l -5.77113,0 c -0.25515,0 -0.45538,0.0194 -0.45538,-0.15163 0,-0.13948 0.0666,-0.3402 0.15163,-0.45538 l 6.07488,-8.04921 c 0.25515,-0.34603 0.30374,-0.48599 0.30374,-0.91123 l 0,-1.51872 c 0,-0.45538 -0.23084,-0.45538 -0.45537,-0.45538 l -10.32729,0 c -0.11567,0 -0.35526,-0.0705 -0.45538,0 z m 16.55404,0 c -0.0996,0.0705 -0.15163,0.22793 -0.15163,0.45537 l 0,13.36473 c 0,0.44955 0.23085,0.60749 0.45537,0.60749 l 3.34119,0 c 0.22452,0 0.45537,-0.15794 0.45537,-0.60749 l 0,-13.36473 c 0,-0.45537 -0.23085,-0.45537 -0.45537,-0.45537 l -3.34119,0 c -0.11226,0 -0.20411,-0.0705 -0.30374,0 z m -86.56702,2.27808 c 1.22105,0 2.88557,0.54066 2.88557,2.73369 0,0.3159 -0.1701,0.30375 -0.45538,0.30375 l -4.70803,0 c -0.27944,0 -0.30374,0.0194 -0.30374,-0.15163 0,-1.68274 0.89908,-2.88557 2.58182,-2.88557 z m -116.18206,0.30374 c 2.5636,0 3.18932,1.96219 3.18932,4.40429 0,2.50892 -0.48016,4.8599 -3.03744,4.8599 -2.5636,0 -3.18932,-2.10798 -3.18932,-4.55616 0,-2.50285 0.47385,-4.70803 3.03744,-4.70803 z m 174.19715,0 c 2.5636,0 3.18931,1.96219 3.18931,4.40429 0,2.50892 -0.47384,4.8599 -3.03744,4.8599 -2.5636,0 -3.18931,-2.10798 -3.18931,-4.55616 0,-2.50285 0.47967,-4.70803 3.03744,-4.70803 z m 84.89643,0 c 2.5636,0 3.03744,1.96219 3.03744,4.40429 0,2.50892 -0.47384,4.8599 -3.03744,4.8599 -2.5636,0 -3.03744,-2.10798 -3.03744,-4.55616 0,-2.50285 0.47384,-4.70803 3.03744,-4.70803 z m -239.95771,0.15163 c 2.59397,0 3.64493,1.60377 3.64493,4.25242 0,4.12484 -2.36313,4.70803 -3.64493,4.70803 -0.45537,0 -0.82011,-0.13365 -1.21497,-0.30375 -0.63179,-0.26146 -1.06311,-0.59534 -1.06311,-1.36684 l 0,-5.4674 c 0,-1.05095 0.43108,-1.37899 1.06311,-1.67059 0.39462,-0.17009 0.75936,-0.15163 1.21497,-0.15163 z m 278.68506,0 c 0.45537,0 0.97198,-0.01 1.36685,0.15163 0.62571,0.26146 0.91123,0.59534 0.91123,1.36685 l 0,5.46739 c 0,1.05703 -0.28576,1.38507 -0.91123,1.67059 -0.39511,0.17593 -0.91123,0.15163 -1.36685,0.15163 -2.5879,0 -3.49305,-1.60984 -3.49305,-4.25242 0,-4.13091 2.21733,-4.55616 3.49305,-4.55616 z m -258.48609,4.40429 c 0.25515,-0.0851 0.25515,0 0.45538,0 0.17009,0 0.15163,-0.0486 0.15163,0.15163 l 0,2.88556 c 0,0.74721 -0.32222,0.99021 -0.60749,1.21498 -0.28576,0.22453 -0.97806,0.45537 -1.51872,0.45537 -1.48227,0 -2.12621,-0.54066 -2.12621,-1.82246 0,-1.42152 1.0631,-1.93181 1.97434,-2.27808 l 1.67059,-0.60749 z m 180.57577,0 c 0.26098,-0.0851 0.26098,0 0.45538,0 0.17592,0 0.15162,0.10351 0.15162,0.30374 l 0,2.7337 c 0,0.74113 -0.17009,0.9902 -0.45537,1.21497 -0.28576,0.23085 -1.12993,0.45538 -1.67059,0.45538 -1.48227,0 -2.12621,-0.54067 -2.12621,-1.82247 0,-1.42152 1.06918,-1.93788 1.97434,-2.27808 l 1.67059,-0.60748 z m -204.57154,22.93267 c -1.09406,0.17738 -2.28872,0.84897 -2.88556,2.42995 -0.20072,0.51029 -0.30375,0.9416 -0.30375,2.27808 l 0,0.75936 c 0,0.25514 -0.0389,0.30374 -0.15163,0.30374 l -1.36685,0 c -0.23084,0 -0.45537,0.15163 -0.45537,0.60749 l 0,1.82246 c 0,0.45537 0.22453,0.45537 0.45537,0.45537 l 1.36685,0 c 0.11518,0 0.15163,0.0486 0.15163,0.30375 l 0,10.78291 c 0,0.45537 0.37664,0.60749 0.60749,0.60749 l 3.18931,0 c 0.22453,0 0.45537,-0.15163 0.45537,-0.60749 l 0,-10.78291 c 0,-0.25515 0.18808,-0.30375 0.30375,-0.30375 l 2.1262,0 c 0.23085,0 0.45538,0 0.45538,-0.45537 l 0,-1.82246 c 0,-0.45538 -0.22502,-0.60749 -0.45538,-0.60749 l -2.1262,0 c -0.11567,0 -0.30375,-0.0486 -0.30375,-0.30374 l 0,-0.30375 c 0,-0.39462 0.0972,-1.16637 0.15163,-1.36685 0.1701,-0.62571 0.55889,-0.91123 1.21498,-0.91123 0.62571,0 0.86871,0.30375 1.21497,0.30375 0.1944,0 0.30375,-0.11518 0.30375,-0.45538 l 0,-1.67059 c 0,-0.68038 -1.37292,-1.0631 -2.88557,-1.0631 -0.29937,0 -0.69842,-0.0593 -1.0631,0 z m 231.60475,0 c -0.22501,0 -0.60749,0 -0.60749,0.45537 l 0,5.46739 c 0,0.23084 0.0194,0.45537 -0.15162,0.45537 -0.28577,0 -1.32433,-0.75936 -3.34119,-0.75936 -4.10054,0 -6.83424,2.6122 -6.83424,7.5936 0,4.50149 2.49678,7.28985 6.68237,7.28985 2.16266,0 3.01922,-0.75936 3.64493,-0.75936 0.28527,0 0.30374,0.0389 0.30374,0.15163 0,0.20023 -0.0389,0.45538 0.30375,0.45538 l 3.18931,0 c 0.23084,0 0.45537,-0.1458 0.45537,-0.60749 l 0,-19.28774 c 0,-0.45537 -0.22501,-0.45537 -0.45537,-0.45537 l -3.18931,0 z m -75.93598,0.15162 c -0.11081,0.0632 -0.15163,0.20363 -0.15163,0.45538 l 0,19.13586 c 0,0.51637 0.30958,0.60749 0.45537,0.60749 l 3.34119,0 c 0.13948,0 0.45537,-0.0909 0.45537,-0.60749 l 0,-9.41606 c 0,-0.71076 0.34019,-1.1117 0.91123,-1.36684 0.42524,-0.20023 1.03273,-0.30375 1.51872,-0.30375 0.91123,0 1.54909,0.37033 1.97434,0.91123 0.37032,0.48599 0.45537,1.13601 0.45537,2.27808 l 0,7.89734 c 0,0.4617 0.22453,0.60749 0.45537,0.60749 l 3.34119,0 c 0.22452,0 0.45537,-0.14579 0.45537,-0.60749 l 0,-8.20108 c 0,-2.33275 -0.1215,-3.52951 -1.06311,-4.55616 -0.91123,-0.99628 -2.32667,-1.36685 -3.94867,-1.36685 -2.19303,0 -3.4809,0.91123 -3.7968,0.91123 -0.17009,0 -0.30374,-0.0729 -0.30374,-0.30374 l 0,-5.61926 c 0,-0.50422 -0.31589,-0.45538 -0.45537,-0.45538 l -3.34119,0 c -0.0729,0 -0.19293,-0.0632 -0.30374,0 z m 19.13587,0 c -0.0996,0.07 -0.15163,0.23085 -0.15163,0.45538 l 0,19.13586 c 0,0.4617 0.23084,0.60749 0.45537,0.60749 l 3.34118,0 c 0.22453,0 0.45538,-0.14579 0.45538,-0.60749 l 0,-19.13586 c 0,-0.45538 -0.23085,-0.45538 -0.45538,-0.45538 l -3.34118,0 c -0.11226,0 -0.20412,-0.07 -0.30374,0 z m -163.56611,0.60749 c -0.6732,0.19148 -1.06311,0.79581 -1.06311,1.67059 0,1.19068 0.71684,1.6706 1.82247,1.6706 1.14208,0 1.82246,-0.50422 1.82246,-1.6706 0,-1.19067 -0.71683,-1.67059 -1.82246,-1.67059 -0.28576,0 -0.53498,-0.0637 -0.75936,0 z m 5.16365,0 c -0.6732,0.19148 -1.06311,0.79581 -1.06311,1.67059 0,1.19068 0.56496,1.6706 1.67059,1.6706 1.14208,0 1.82247,-0.50422 1.82247,-1.6706 0,-1.19067 -0.56497,-1.67059 -1.6706,-1.67059 -0.28576,0 -0.53497,-0.0637 -0.75935,0 z m 33.86744,0.60749 c -0.10011,0.0719 -0.15163,0.22793 -0.15163,0.45537 l 0,17.92089 c 0,0.4617 0.22453,0.60749 0.45538,0.60749 l 6.53049,0 c 2.76407,0 4.71411,-0.54066 6.22675,-1.36685 2.70332,-1.47619 4.25242,-4.5683 4.25242,-8.35295 0,-3.83933 -1.65237,-6.95574 -4.55616,-8.35296 -1.33647,-0.65609 -3.21969,-0.91123 -5.46739,-0.91123 l -6.98611,0 c -0.11567,0 -0.20363,-0.0719 -0.30375,0 z m 60.1413,0.91123 c -0.0996,0.0705 -0.15163,0.22793 -0.15163,0.45537 l 0,2.7337 c 0,0.25514 -0.18856,0.30374 -0.30374,0.30374 l -1.21498,0 c -0.22501,0 -0.45537,0.15163 -0.45537,0.60749 l 0,1.82247 c 0,0.45537 0.23085,0.45537 0.45537,0.45537 l 1.21498,0 c 0.11518,0 0.30374,0.0486 0.30374,0.30374 l 0,6.83424 c 0,2.10191 0.54067,3.14679 1.36685,3.7968 1.136,0.91123 3.05567,0.91123 3.7968,0.91123 1.33647,0 3.34118,-0.29742 3.34118,-1.0631 l 0,-2.12621 c 0,-0.34019 -0.0792,-0.45537 -0.30374,-0.45537 -0.37081,0 -0.73506,0.60749 -2.12621,0.60749 -1.1117,0 -1.52479,-0.58319 -1.67059,-1.06311 -0.11566,-0.40094 -0.15163,-0.78973 -0.15163,-1.67059 l 0,-5.77113 c 0,-0.25515 0.18808,-0.30375 0.30375,-0.30375 l 3.49305,0 c 0.22453,0 0.45537,0 0.45537,-0.45537 l 0,-1.82247 c 0,-0.45537 -0.23084,-0.60748 -0.45537,-0.60748 l -3.49305,0 c -0.11567,0 -0.30375,-0.0486 -0.30375,-0.30375 l 0,-2.73369 c 0,-0.45538 -0.22501,-0.45538 -0.45537,-0.45538 l -3.34118,0 c -0.11227,0 -0.20412,-0.0705 -0.30375,0 z m -55.73701,2.42995 c 0.0569,-0.051 0.24591,0 0.30374,0 l 1.06311,0 c 1.81639,0 2.80659,-0.0292 3.94867,0.45538 1.90751,0.8201 2.88557,2.86126 2.88557,5.61926 0,5.52206 -3.54166,6.22675 -6.07488,6.22675 l -1.82247,0 c -0.11566,0 -0.30374,-0.20023 -0.30374,-0.45537 l 0,-11.54227 c 0,-0.14288 -0.0569,-0.25272 0,-0.30375 z m -19.43961,0.91123 c -2.13228,0 -2.81874,1.06311 -3.64493,1.06311 -0.17009,0 -0.30374,-0.15795 -0.30374,-0.30375 l 0,-0.15162 c 0,-0.20023 0.034,-0.45538 -0.30375,-0.45538 l -3.18931,0 c -0.23084,0 -0.45537,0.15163 -0.45537,0.60749 l 0,13.36473 c 0,0.46169 0.22453,0.60749 0.45537,0.60749 l 3.18931,0 c 0.22453,0 0.60749,-0.1458 0.60749,-0.60749 l 0,-8.35295 c 0,-1.05096 0.30375,-2.27808 2.58183,-2.27808 1.50657,0 1.70096,0.15163 2.1262,0.15163 0.28528,0 0.30375,-0.0486 0.30375,-0.30375 l 0,-2.42995 c 0,-0.48599 -0.11567,-0.91123 -1.36685,-0.91123 z m 43.58725,0 c -4.07017,0 -7.13798,2.15659 -7.13798,7.5936 0,5.75291 3.894,7.28986 8.04922,7.28986 2.10798,0 4.14914,-0.3645 4.8599,-0.91123 0.28527,-0.1944 0.30374,-0.243 0.30374,-0.60749 l 0,-1.82247 c 0,-0.22452 -0.13996,-0.45537 -0.45537,-0.45537 -0.1944,0 -0.28576,0.0666 -0.45537,0.15163 -0.54067,0.27944 -1.91967,0.91123 -3.7968,0.91123 -2.50893,0 -4.10055,-1.06918 -4.10055,-3.49305 0,-0.27945 0.20023,-0.45538 0.45538,-0.45538 l 8.6567,0 c 0.22453,0 0.45537,0 0.45537,-0.45537 l 0,-0.60749 c 0,-2.98884 -0.74721,-7.13798 -6.83424,-7.13798 z m 50.57337,0 c -2.98884,0 -5.46739,1.31825 -5.46739,4.55616 0,2.16874 1.02665,2.95239 2.73369,3.94868 l 1.97434,1.0631 c 0.51029,0.29159 1.21497,0.57104 1.21497,1.36685 0,0.91123 -0.93553,1.21497 -1.82246,1.21497 -1.39722,0 -2.64865,-0.37032 -3.64493,-0.91123 -0.17641,-0.0792 -0.25514,-0.15163 -0.45537,-0.15163 -0.34019,0 -0.30374,0.23085 -0.30374,0.45537 l 0,1.82247 c 0,0.36449 0.01,0.55889 0.30374,0.75936 0.27945,0.21869 1.49442,0.75936 4.25242,0.75936 3.6996,0 5.61926,-1.96826 5.61926,-4.55616 0,-2.21733 -1.26358,-3.18931 -2.88557,-4.10054 l -1.82246,-1.06311 c -0.51029,-0.27944 -1.21498,-0.65001 -1.21498,-1.36685 0,-0.9416 0.91123,-1.0631 1.82247,-1.0631 1.30609,0 2.21125,0.45537 3.03743,0.91123 0.1701,0.0851 0.25515,0.15163 0.45538,0.15163 0.34019,0 0.30374,-0.22453 0.30374,-0.45537 l 0,-1.82247 c 0,-0.34019 -0.0243,-0.55888 -0.30374,-0.75936 -0.57104,-0.43155 -2.08976,-0.75936 -3.7968,-0.75936 z m 16.40217,0 c -6.91321,0 -7.89734,4.89028 -7.89734,7.5936 0,2.5636 0.93553,7.28986 7.5936,7.28986 1.62806,0 3.8454,-0.37033 4.55616,-0.91123 0.28527,-0.20023 0.30374,-0.23717 0.30374,-0.60749 l 0,-1.97434 c 0,-0.21869 -0.1458,-0.45537 -0.45537,-0.45537 -0.20072,0 -0.28576,0.0666 -0.45538,0.15163 -1.00235,0.54066 -1.82246,0.75936 -3.18931,0.75936 -2.81267,0 -3.7968,-1.94396 -3.7968,-4.25242 0,-2.30845 0.76544,-4.55616 3.94868,-4.55616 1.37292,0 1.98041,0.18857 3.03743,0.75936 0.1701,0.0851 0.25515,0.15163 0.45538,0.15163 0.34019,0 0.45537,-0.23084 0.45537,-0.45537 l 0,-1.97434 c 0,-0.34602 -0.0194,-0.55888 -0.30374,-0.75936 -0.57104,-0.42524 -2.71547,-0.75936 -4.25242,-0.75936 z m 44.80223,0 c -1.70704,0 -4.20381,0.20023 -5.31552,0.91124 -0.28576,0.17009 -0.30374,0.41941 -0.30374,0.75936 l 0,1.82246 c 0,0.24883 0.0486,0.45537 0.30374,0.45537 0.20655,0 0.27945,-0.0666 0.45538,-0.15163 0.30957,-0.17009 1.83461,-1.0631 4.25241,-1.0631 2.02294,0 2.58182,0.41941 2.58182,1.21498 l 0,0.15162 c 0,0.56497 -0.42524,0.61964 -0.91123,0.75936 l -3.18931,1.06311 c -3.07389,0.9416 -4.55616,1.99863 -4.55616,4.70803 0,1.96219 0.99021,4.25241 4.8599,4.25241 2.16266,0 3.17717,-0.75936 3.7968,-0.75936 0.2916,0 0.30375,0.0389 0.30375,0.15163 0,0.20023 -0.0389,0.45538 0.30374,0.45538 l 3.03744,0 c 0.23085,0 0.60749,-0.15163 0.60749,-0.60749 l 0,-8.96045 c 0,-1.96218 -0.44371,-3.03136 -1.21498,-3.7968 -0.34019,-0.34019 -1.45797,-1.36684 -5.01177,-1.36684 z m 20.19897,0 c -0.88085,0 -2.05938,0.1215 -2.88556,0.45538 -0.25515,0.11566 -0.57104,0.30374 -0.91124,0.30374 -0.28576,0 -0.30374,-0.034 -0.30374,-0.15163 0,-0.20023 -0.11567,-0.45537 -0.45537,-0.45537 l -3.18931,0 c -0.23085,0 -0.60749,0.15163 -0.60749,0.60749 l 0,13.36473 c 0,0.46169 0.37664,0.60749 0.60749,0.60749 l 3.18931,0 c 0.22452,0 0.60749,-0.1458 0.60749,-0.60749 l 0,-9.41606 c 0,-0.71076 0.18807,-1.1117 0.75935,-1.36685 0.42525,-0.20023 1.03273,-0.30374 1.51872,-0.30374 0.91124,0 1.5491,0.37032 1.97434,0.91123 0.37032,0.48599 0.45537,1.136 0.45537,2.27808 l 0,7.89734 c 0,0.46169 0.37665,0.60749 0.60749,0.60749 l 3.18931,0 c 0.22453,0 0.60749,-0.1458 0.60749,-0.60749 l 0,-8.20109 c 0,-2.33275 -0.27361,-3.5295 -1.21498,-4.55615 -0.91123,-0.99628 -2.3206,-1.36685 -3.94867,-1.36685 z m -202.29346,0.15163 c -0.23084,0 -0.45537,0.15163 -0.45537,0.60749 l 0,8.20109 c 0,2.33883 0.1215,3.53558 1.0631,4.55616 0.91124,1.00235 2.32061,1.36684 3.94867,1.36684 0.88086,0 2.05939,-0.11518 2.88557,-0.45537 0.25515,-0.11518 0.72291,-0.30374 1.06311,-0.30374 0.28527,0 0.30374,0.0292 0.30374,0.15163 0,0.20022 -0.0389,0.45537 0.30374,0.45537 l 3.18932,0 c 0.23084,0 0.60748,-0.15163 0.60748,-0.60749 l 0,-13.36473 c 0,-0.45537 -0.37664,-0.60749 -0.60748,-0.60749 l -3.18932,0 c -0.23084,0 -0.45537,0.15163 -0.45537,0.60749 l 0,9.41606 c 0,0.70469 -0.34019,1.1117 -0.91123,1.36685 -0.42524,0.20023 -1.03273,0.30374 -1.51872,0.30374 -0.91123,0 -1.54909,-0.21869 -1.97434,-0.75936 -0.37081,-0.48599 -0.45537,-1.29395 -0.45537,-2.42995 l 0,-7.89734 c 0,-0.45537 -0.38296,-0.60749 -0.60749,-0.60749 l -3.18931,0 z m 82.61835,0 c -0.23084,0 -0.60748,0.15163 -0.60748,0.60749 l 0,8.20109 c 0,2.33275 0.12149,3.5295 1.0631,4.55616 0.91123,0.99628 2.47855,1.36684 4.10054,1.36684 0.88086,0 1.90751,-0.10934 2.7337,-0.45537 0.25514,-0.11518 0.72291,-0.30374 1.0631,-0.30374 0.28528,0 0.30375,0.0389 0.30375,0.15163 0,0.20022 0.10934,0.45537 0.45537,0.45537 l 3.18931,0 c 0.23084,0 0.45537,-0.1458 0.45537,-0.60749 l 0,-13.36473 c 0,-0.45537 -0.22501,-0.60749 -0.45537,-0.60749 l -3.18931,0 c -0.23085,0 -0.60749,0.15163 -0.60749,0.60749 l 0,9.41606 c 0,0.71076 -0.18856,1.10563 -0.75936,1.36685 -0.42524,0.20023 -1.03273,0.30374 -1.51872,0.30374 -0.91123,0 -1.70097,-0.21869 -2.12621,-0.75936 -0.37081,-0.47967 -0.45537,-1.28787 -0.45537,-2.42995 l 0,-7.89734 c 0,-0.45537 -0.23085,-0.60749 -0.45537,-0.60749 l -3.18931,0 z m -12.4535,2.42996 c 1.22713,0 2.7337,0.54673 2.7337,2.73369 0,0.31589 -0.0194,0.30374 -0.30375,0.30374 l -4.70803,0 c -0.28576,0 -0.45537,-0.13364 -0.45537,-0.30374 0,-1.68274 1.05703,-2.73369 2.73369,-2.73369 z m 148.9864,0.45537 c 0.39365,-0.10789 0.74264,0 1.06311,0 0.45537,0 0.97198,-0.0194 1.36684,0.15163 0.62572,0.25514 0.91123,0.59534 0.91123,1.36684 l 0,5.4674 c 0,1.05702 -0.28576,1.37899 -0.91123,1.67059 -0.39511,0.17009 -0.91123,0.15163 -1.36684,0.15163 -2.59398,0 -3.49306,-1.60985 -3.49306,-4.25242 0,-3.09362 1.24846,-4.23293 2.42995,-4.55616 z m -35.23429,4.25241 c 0.16377,0 0.15162,0.10935 0.15162,0.30375 l 0,2.73369 c 0,0.74114 -0.32221,1.14208 -0.60748,1.36685 -0.27945,0.23085 -0.97806,0.30374 -1.51872,0.30374 -1.48227,0 -2.12621,-0.54066 -2.12621,-1.82246 0,-1.42152 1.06918,-1.77994 1.97433,-2.12621 l 1.6706,-0.60748 c 0.25514,-0.0909 0.24882,-0.15163 0.45537,-0.15163 z"
       id="path308"
       style="fill:#000000;fill-opacity:1;fill-rule:nonzero;stroke:none" />
    <path
       d="m 233.41498,586.20703 143.762,0.93553 -116.69842,-36.54039 -27.06358,35.60486 z"
       id="path328"
       style="fill:url(#linearGradient322);stroke:none" />
    <path
       d="m 264.62771,499.1115 116.13953,84.69595 -73.59716,-97.61722 -42.54237,12.92127 z"
       id="path352"
       style="fill:url(#linearGradient342);stroke:none" />
    <path
       d="m 382.48643,582.53358 -40.10028,-115.48952 -44.45596,-0.75329 84.55624,116.24281 z"
       id="path364"
       style="fill:#000000;fill-opacity:1;fill-rule:nonzero;stroke:none" />
    <path
       d="m 242.41795,540.2445 136.46,45.18495 -99.8953,-70.48682 -36.5647,25.30187 z"
       id="path388"
       style="fill:url(#linearGradient378);stroke:none" />
  </g>
</svg>
